SplineFontDB: 3.0
FontName: FdSymbolD-Medium
FullName: FdSymbolD-Medium
FamilyName: FdSymbolD
Weight: Medium
Copyright: Copyright (c) 2012, Michael Ummels. This Font Software is licensed under the SIL Open Font License, Version 1.1.
Version: 1.008
ItalicAngle: 0
UnderlinePosition: -100
UnderlineWidth: 50
Ascent: 800
Descent: 200
InvalidEm: 0
LayerCount: 2
Layer: 0 0 "Back" 1
Layer: 1 0 "Fore" 0
UniqueID: 4382301
OS2Version: 0
OS2_WeightWidthSlopeOnly: 0
OS2_UseTypoMetrics: 0
CreationTime: 1431875146
ModificationTime: 1431875146
OS2TypoAscent: 0
OS2TypoAOffset: 1
OS2TypoDescent: 0
OS2TypoDOffset: 1
OS2TypoLinegap: 0
OS2WinAscent: 0
OS2WinAOffset: 1
OS2WinDescent: 0
OS2WinDOffset: 1
HheadAscent: 0
HheadAOffset: 1
HheadDescent: 0
HheadDOffset: 1
OS2Vendor: 'PfEd'
DEI: 91125
Encoding: Custom
UnicodeInterp: none
NameList: AGL For New Fonts
DisplaySize: -48
AntiAlias: 1
FitToEm: 0
BeginPrivate: 2
BlueValues 31 [-10 0 546 556 707 717 754 764]
OtherBlues 11 [-230 -220]
EndPrivate
BeginChars: 256 232

StartChar: uni219B
Encoding: 0 8603 0
Width: 930
Flags: W
HStem: -6 21G<272.926 334.311> 232 86<90 331 445 693> 536 20G<441.689 503.074>
LayerCount: 2
Back
Fore
SplineSet
449 556 m 1
 522 529 l 1
 445 318 l 1
 693 318 l 1
 613 399 l 1
 673 459 l 1
 858 275 l 1
 673 91 l 1
 613 151 l 1
 693 232 l 1
 414 232 l 1
 327 -6 l 1
 254 21 l 1
 331 232 l 1
 90 232 l 1
 90 318 l 1
 362 318 l 1
 449 556 l 1
EndSplineSet
EndChar

StartChar: uni21910338
Encoding: 1 -1 1
Width: 728
Flags: W
VStem: 321 86<-100 141 255 503>
LayerCount: 2
Back
Fore
SplineSet
110 64 m 1
 83 137 l 1
 321 224 l 1
 321 503 l 1
 240 423 l 1
 180 483 l 1
 364 668 l 1
 548 483 l 1
 488 423 l 1
 407 503 l 1
 407 255 l 1
 618 332 l 1
 645 259 l 1
 407 172 l 1
 407 -100 l 1
 321 -100 l 1
 321 141 l 1
 110 64 l 1
EndSplineSet
EndChar

StartChar: uni219A
Encoding: 2 8602 2
Width: 930
Flags: W
HStem: -6 21G<426.926 488.311> 232 86<237 485 599 840> 536 20G<595.689 657.074>
LayerCount: 2
Back
Fore
SplineSet
481 -6 m 1
 408 21 l 1
 485 232 l 1
 237 232 l 1
 317 151 l 1
 257 91 l 1
 72 275 l 1
 257 459 l 1
 317 399 l 1
 237 318 l 1
 516 318 l 1
 603 556 l 1
 676 529 l 1
 599 318 l 1
 840 318 l 1
 840 232 l 1
 568 232 l 1
 481 -6 l 1
EndSplineSet
EndChar

StartChar: uni21930338
Encoding: 3 -1 3
Width: 728
Flags: W
VStem: 321 86<47 295 409 650>
LayerCount: 2
Back
Fore
SplineSet
618 486 m 1
 645 413 l 1
 407 326 l 1
 407 47 l 1
 488 127 l 1
 548 67 l 1
 364 -118 l 1
 180 67 l 1
 240 127 l 1
 321 47 l 1
 321 295 l 1
 110 218 l 1
 83 291 l 1
 321 378 l 1
 321 650 l 1
 407 650 l 1
 407 409 l 1
 618 486 l 1
EndSplineSet
EndChar

StartChar: uni21970338
Encoding: 4 -1 4
Width: 1098
Flags: W
HStem: 467 86<566 680>
VStem: 741 86<292 406>
LayerCount: 2
Back
Fore
SplineSet
339 462 m 1
 409 495 l 1
 504 291 l 1
 680 467 l 1
 566 467 l 1
 566 553 l 1
 827 553 l 1
 827 292 l 1
 741 292 l 1
 741 406 l 1
 543 208 l 1
 650 -21 l 1
 580 -54 l 1
 485 150 l 1
 314 -21 l 1
 253 40 l 1
 446 233 l 1
 339 462 l 1
EndSplineSet
EndChar

StartChar: uni21960338
Encoding: 5 -1 5
Width: 1098
Flags: W
HStem: 467 86<418 532>
VStem: 271 86<292 406>
LayerCount: 2
Back
Fore
SplineSet
518 -54 m 1
 448 -21 l 1
 555 208 l 1
 357 406 l 1
 357 292 l 1
 271 292 l 1
 271 553 l 1
 532 553 l 1
 532 467 l 1
 418 467 l 1
 594 291 l 1
 689 495 l 1
 759 462 l 1
 652 233 l 1
 844 40 l 1
 784 -21 l 1
 613 150 l 1
 518 -54 l 1
EndSplineSet
EndChar

StartChar: uni21990338
Encoding: 6 -1 6
Width: 1098
Flags: W
HStem: -3 86<418 532>
VStem: 271 86<144 258>
LayerCount: 2
Back
Fore
SplineSet
759 88 m 1
 689 55 l 1
 594 259 l 1
 418 83 l 1
 532 83 l 1
 532 -3 l 1
 271 -3 l 1
 271 258 l 1
 357 258 l 1
 357 144 l 1
 555 342 l 1
 448 571 l 1
 518 604 l 1
 613 400 l 1
 784 571 l 1
 844 510 l 1
 652 317 l 1
 759 88 l 1
EndSplineSet
EndChar

StartChar: uni21980338
Encoding: 7 -1 7
Width: 1098
Flags: W
HStem: -3 86<566 680>
VStem: 741 86<144 258>
LayerCount: 2
Back
Fore
SplineSet
580 604 m 1
 650 571 l 1
 543 342 l 1
 741 144 l 1
 741 258 l 1
 827 258 l 1
 827 -3 l 1
 566 -3 l 1
 566 83 l 1
 680 83 l 1
 504 259 l 1
 409 55 l 1
 339 88 l 1
 446 317 l 1
 253 510 l 1
 314 571 l 1
 485 400 l 1
 580 604 l 1
EndSplineSet
EndChar

StartChar: uni21CF
Encoding: 8 8655 8
Width: 1080
Flags: W
HStem: 136 86<90 294 408 747> 328 86<90 364 478 747>
LayerCount: 2
Back
Fore
SplineSet
833 328 m 1
 446 328 l 1
 408 222 l 1
 833 222 l 1
 886 275 l 1
 833 328 l 1
469 617 m 1
 542 591 l 1
 478 414 l 1
 747 414 l 1
 716 445 l 1
 777 506 l 1
 1008 275 l 1
 777 44 l 1
 716 105 l 1
 747 136 l 1
 377 136 l 1
 303 -67 l 1
 230 -41 l 1
 294 136 l 1
 90 136 l 1
 90 222 l 1
 326 222 l 1
 364 328 l 1
 90 328 l 1
 90 414 l 1
 395 414 l 1
 469 617 l 1
EndSplineSet
EndChar

StartChar: uni21D10338
Encoding: 9 -1 9
Width: 851
Flags: W
VStem: 286 86<-175 29 143 481> 479 86<-175 99 213 481>
LayerCount: 2
Back
Fore
SplineSet
372 567 m 1
 372 143 l 1
 479 182 l 1
 479 568 l 1
 426 621 l 1
 372 567 l 1
110 -35 m 1
 83 38 l 1
 286 112 l 1
 286 481 l 1
 256 451 l 1
 195 512 l 1
 426 743 l 1
 656 512 l 1
 595 451 l 1
 565 481 l 1
 565 213 l 1
 741 277 l 1
 768 204 l 1
 565 130 l 1
 565 -175 l 1
 479 -175 l 1
 479 99 l 1
 372 60 l 1
 372 -175 l 1
 286 -175 l 1
 286 29 l 1
 110 -35 l 1
EndSplineSet
EndChar

StartChar: uni21CD
Encoding: 10 8653 10
Width: 1080
Flags: W
HStem: 136 86<333 602 716 990> 328 86<333 672 786 990>
LayerCount: 2
Back
Fore
SplineSet
247 222 m 1
 634 222 l 1
 672 328 l 1
 247 328 l 1
 194 275 l 1
 247 222 l 1
611 -67 m 1
 538 -41 l 1
 602 136 l 1
 333 136 l 1
 364 105 l 1
 303 44 l 1
 72 275 l 1
 303 506 l 1
 364 445 l 1
 333 414 l 1
 703 414 l 1
 777 617 l 1
 850 591 l 1
 786 414 l 1
 990 414 l 1
 990 328 l 1
 754 328 l 1
 716 222 l 1
 990 222 l 1
 990 136 l 1
 685 136 l 1
 611 -67 l 1
EndSplineSet
EndChar

StartChar: uni21D30338
Encoding: 11 -1 11
Width: 851
Flags: W
VStem: 286 86<69 337 451 725> 479 86<69 407 521 725>
LayerCount: 2
Back
Fore
SplineSet
479 -18 m 1
 479 407 l 1
 372 368 l 1
 372 -17 l 1
 426 -71 l 1
 479 -18 l 1
741 585 m 1
 768 512 l 1
 565 438 l 1
 565 69 l 1
 595 99 l 1
 656 38 l 1
 426 -193 l 1
 195 38 l 1
 256 99 l 1
 286 69 l 1
 286 337 l 1
 110 273 l 1
 83 346 l 1
 286 420 l 1
 286 725 l 1
 372 725 l 1
 372 451 l 1
 479 490 l 1
 479 725 l 1
 565 725 l 1
 565 521 l 1
 741 585 l 1
EndSplineSet
EndChar

StartChar: uni21D70338
Encoding: 12 -1 12
Width: 1291
Flags: W
HStem: -6 21G<270 310> 520 86<650 694 816 890>
VStem: 890 86<280 322 444 520>
LayerCount: 2
Back
Fore
SplineSet
816 520 m 1
 542 246 l 1
 590 144 l 1
 890 444 l 1
 890 520 l 1
 816 520 l 1
354 467 m 1
 424 500 l 1
 503 329 l 1
 694 520 l 1
 650 520 l 1
 650 606 l 1
 976 606 l 1
 976 280 l 1
 890 280 l 1
 890 322 l 1
 629 61 l 1
 720 -135 l 1
 649 -168 l 1
 570 2 l 1
 426 -142 l 1
 365 -81 l 1
 531 85 l 1
 484 188 l 1
 290 -6 l 1
 229 55 l 1
 445 271 l 1
 354 467 l 1
EndSplineSet
EndChar

StartChar: uni21D60338
Encoding: 13 -1 13
Width: 1291
Flags: W
HStem: -6 21G<981 1021> 520 86<401 475 597 641>
VStem: 315 86<280 322 444 520>
LayerCount: 2
Back
Fore
SplineSet
401 444 m 1
 701 144 l 1
 749 246 l 1
 475 520 l 1
 401 520 l 1
 401 444 l 1
642 -168 m 1
 571 -135 l 1
 662 61 l 1
 401 322 l 1
 401 280 l 1
 315 280 l 1
 315 606 l 1
 641 606 l 1
 641 520 l 1
 597 520 l 1
 788 329 l 1
 867 500 l 1
 937 467 l 1
 846 271 l 1
 1062 55 l 1
 1001 -6 l 1
 807 188 l 1
 760 85 l 1
 926 -81 l 1
 865 -142 l 1
 721 2 l 1
 642 -168 l 1
EndSplineSet
EndChar

StartChar: uni21D90338
Encoding: 14 -1 14
Width: 1291
Flags: W
HStem: -56 86<401 475 597 641> 536 20G<981 1021> 698 20G<598.97 651.294>
VStem: 315 86<30 106 228 270>
LayerCount: 2
Back
Fore
SplineSet
475 30 m 1
 749 304 l 1
 701 406 l 1
 401 106 l 1
 401 30 l 1
 475 30 l 1
937 83 m 1
 867 50 l 1
 788 221 l 1
 597 30 l 1
 641 30 l 1
 641 -56 l 1
 315 -56 l 1
 315 270 l 1
 401 270 l 1
 401 228 l 1
 662 489 l 1
 571 685 l 1
 642 718 l 1
 721 548 l 1
 865 692 l 1
 926 631 l 1
 760 465 l 1
 807 362 l 1
 1001 556 l 1
 1062 495 l 1
 846 279 l 1
 937 83 l 1
EndSplineSet
EndChar

StartChar: uni21D80338
Encoding: 15 -1 15
Width: 1291
Flags: W
HStem: -56 86<650 694 816 890> 536 20G<270 310> 698 20G<639.706 692.03>
VStem: 890 86<30 106 228 270>
LayerCount: 2
Back
Fore
SplineSet
890 106 m 1
 590 406 l 1
 542 304 l 1
 816 30 l 1
 890 30 l 1
 890 106 l 1
649 718 m 1
 720 685 l 1
 629 489 l 1
 890 228 l 1
 890 270 l 1
 976 270 l 1
 976 -56 l 1
 650 -56 l 1
 650 30 l 1
 694 30 l 1
 503 221 l 1
 424 50 l 1
 354 83 l 1
 445 279 l 1
 229 495 l 1
 290 556 l 1
 484 362 l 1
 531 465 l 1
 365 631 l 1
 426 692 l 1
 570 548 l 1
 649 718 l 1
EndSplineSet
EndChar

StartChar: uni21AE
Encoding: 16 8622 16
Width: 1080
Flags: W
HStem: -6 21G<424.926 486.311> 232 86<237 483 597 843> 536 20G<593.689 655.074>
LayerCount: 2
Back
Fore
SplineSet
601 556 m 1
 674 529 l 1
 597 318 l 1
 843 318 l 1
 763 399 l 1
 823 459 l 1
 1008 275 l 1
 823 91 l 1
 763 151 l 1
 843 232 l 1
 566 232 l 1
 479 -6 l 1
 406 21 l 1
 483 232 l 1
 237 232 l 1
 317 151 l 1
 257 91 l 1
 72 275 l 1
 257 459 l 1
 317 399 l 1
 237 318 l 1
 514 318 l 1
 601 556 l 1
EndSplineSet
EndChar

StartChar: uni21950338
Encoding: 17 -1 17
Width: 728
Flags: W
VStem: 321 86<-28 218 332 578>
LayerCount: 2
Back
Fore
SplineSet
110 141 m 1
 83 214 l 1
 321 301 l 1
 321 578 l 1
 240 498 l 1
 180 558 l 1
 364 743 l 1
 548 558 l 1
 488 498 l 1
 407 578 l 1
 407 332 l 1
 618 409 l 1
 645 336 l 1
 407 249 l 1
 407 -28 l 1
 488 52 l 1
 548 -8 l 1
 364 -193 l 1
 180 -8 l 1
 240 52 l 1
 321 -28 l 1
 321 218 l 1
 110 141 l 1
EndSplineSet
EndChar

StartChar: uni29210338
Encoding: 18 -1 18
Width: 1204
Flags: W
HStem: -56 86<418 532> 1 21G<677.64 730.75> 520 86<672 786> 529 20G<473.25 526.36>
VStem: 271 86<91 205> 847 86<345 459>
LayerCount: 2
Back
Fore
SplineSet
447 517 m 1x8c
 517 549 l 1x9c
 612 346 l 1
 786 520 l 1
 672 520 l 1
 672 606 l 1
 933 606 l 1
 933 345 l 1
 847 345 l 1
 847 459 l 1
 650 262 l 1
 757 33 l 1
 687 1 l 1x6c
 592 204 l 1
 418 30 l 1
 532 30 l 1
 532 -56 l 1
 271 -56 l 1
 271 205 l 1
 357 205 l 1
 357 91 l 1
 554 288 l 1
 447 517 l 1x8c
EndSplineSet
EndChar

StartChar: uni29220338
Encoding: 19 -1 19
Width: 1204
Flags: W
HStem: -56 86<672 786> 1 21G<473.25 526.36> 520 86<418 532> 529 20G<677.64 730.75>
VStem: 271 86<345 459> 847 86<91 205>
LayerCount: 2
Back
Fore
SplineSet
517 1 m 1x4c
 447 33 l 1
 554 262 l 1
 357 459 l 1
 357 345 l 1
 271 345 l 1
 271 606 l 1
 532 606 l 1
 532 520 l 1
 418 520 l 1x6c
 592 346 l 1
 687 549 l 1
 757 517 l 1
 650 288 l 1
 847 91 l 1
 847 205 l 1
 933 205 l 1
 933 -56 l 1
 672 -56 l 1
 672 30 l 1
 786 30 l 1x9c
 612 204 l 1
 517 1 l 1x4c
EndSplineSet
EndChar

StartChar: uni21CE
Encoding: 20 8654 20
Width: 1230
Flags: W
HStem: 136 86<333 523 637 897> 328 86<333 593 707 897>
LayerCount: 2
Back
Fore
SplineSet
247 328 m 1
 194 275 l 1
 247 222 l 1
 555 222 l 1
 593 328 l 1
 247 328 l 1
983 328 m 1
 675 328 l 1
 637 222 l 1
 983 222 l 1
 1036 275 l 1
 983 328 l 1
698 617 m 1
 771 591 l 1
 707 414 l 1
 897 414 l 1
 866 445 l 1
 927 506 l 1
 1158 275 l 1
 927 44 l 1
 866 105 l 1
 897 136 l 1
 606 136 l 1
 532 -67 l 1
 459 -41 l 1
 523 136 l 1
 333 136 l 1
 364 105 l 1
 303 44 l 1
 72 275 l 1
 303 506 l 1
 364 445 l 1
 333 414 l 1
 624 414 l 1
 698 617 l 1
EndSplineSet
EndChar

StartChar: uni21D50338
Encoding: 21 -1 21
Width: 851
Flags: W
VStem: 286 86<-6 183 297 556> 479 86<-6 253 367 556>
LayerCount: 2
Back
Fore
SplineSet
372 -92 m 1
 426 -146 l 1
 479 -93 l 1
 479 253 l 1
 372 214 l 1
 372 -92 l 1
372 642 m 1
 372 297 l 1
 479 336 l 1
 479 643 l 1
 426 696 l 1
 372 642 l 1
110 119 m 1
 83 192 l 1
 286 266 l 1
 286 556 l 1
 256 526 l 1
 195 587 l 1
 426 818 l 1
 656 587 l 1
 595 526 l 1
 565 556 l 1
 565 367 l 1
 741 431 l 1
 768 358 l 1
 565 284 l 1
 565 -6 l 1
 595 24 l 1
 656 -37 l 1
 426 -268 l 1
 195 -37 l 1
 256 24 l 1
 286 -6 l 1
 286 183 l 1
 110 119 l 1
EndSplineSet
EndChar

StartChar: sym030_uni0338
Encoding: 22 -1 22
Width: 1397
Flags: W
HStem: -109 86<401 475 597 641> 573 86<756 800 922 996>
VStem: 315 86<-23 53 175 217> 996 86<333 375 497 573>
LayerCount: 2
Back
Fore
SplineSet
401 53 m 1
 401 -23 l 1
 475 -23 l 1
 693 195 l 1
 646 297 l 1
 401 53 l 1
922 573 m 1
 704 356 l 1
 752 253 l 1
 996 497 l 1
 996 573 l 1
 922 573 l 1
516 576 m 1
 586 609 l 1
 665 439 l 1
 800 573 l 1
 756 573 l 1
 756 659 l 1
 1082 659 l 1
 1082 333 l 1
 996 333 l 1
 996 375 l 1
 791 170 l 1
 882 -26 l 1
 811 -59 l 1
 732 111 l 1
 597 -23 l 1
 641 -23 l 1
 641 -109 l 1
 315 -109 l 1
 315 217 l 1
 401 217 l 1
 401 175 l 1
 607 380 l 1
 516 576 l 1
EndSplineSet
EndChar

StartChar: sym031_uni0338
Encoding: 23 -1 23
Width: 1397
Flags: W
HStem: -109 86<756 800 922 996> 573 86<401 475 597 641>
VStem: 315 86<333 375 497 573> 996 86<-23 53 175 217>
LayerCount: 2
Back
Fore
SplineSet
922 -23 m 1
 996 -23 l 1
 996 53 l 1
 752 297 l 1
 704 194 l 1
 922 -23 l 1
401 497 m 1
 646 253 l 1
 693 355 l 1
 475 573 l 1
 401 573 l 1
 401 497 l 1
586 -59 m 1
 516 -26 l 1
 607 170 l 1
 401 375 l 1
 401 333 l 1
 315 333 l 1
 315 659 l 1
 641 659 l 1
 641 573 l 1
 597 573 l 1
 732 439 l 1
 811 609 l 1
 882 576 l 1
 791 380 l 1
 996 175 l 1
 996 217 l 1
 1082 217 l 1
 1082 -109 l 1
 756 -109 l 1
 756 -23 l 1
 800 -23 l 1
 665 111 l 1
 586 -59 l 1
EndSplineSet
EndChar

StartChar: uni21A00338
Encoding: 24 -1 24
Width: 1118
Flags: W
HStem: -6 21G<249.926 311.227> 232 86<90 308 421 646 768 881> 536 20G<418.689 479.333>
LayerCount: 2
Back
Fore
SplineSet
426 556 m 1
 498 529 l 1
 421 318 l 1
 646 318 l 1
 566 399 l 1
 627 459 l 1
 768 318 l 1
 881 318 l 1
 800 399 l 1
 861 459 l 1
 1045 275 l 1
 861 91 l 1
 800 151 l 1
 881 232 l 1
 768 232 l 1
 627 91 l 1
 566 151 l 1
 646 232 l 1
 390 232 l 1
 304 -6 l 1
 231 21 l 1
 308 232 l 1
 90 232 l 1
 90 318 l 1
 339 318 l 1
 426 556 l 1
EndSplineSet
EndChar

StartChar: uni219F0338
Encoding: 25 -1 25
Width: 728
Flags: W
HStem: 742 20G<344.108 383.892>
VStem: 321 86<-194 24 137 363 484 597>
LayerCount: 2
Back
Fore
SplineSet
110 -53 m 1
 83 20 l 1
 321 106 l 1
 321 363 l 1
 240 282 l 1
 180 343 l 1
 321 484 l 1
 321 597 l 1
 240 516 l 1
 180 577 l 1
 364 762 l 1
 548 577 l 1
 488 516 l 1
 407 597 l 1
 407 484 l 1
 548 343 l 1
 488 282 l 1
 407 363 l 1
 407 137 l 1
 618 214 l 1
 645 142 l 1
 407 55 l 1
 407 -194 l 1
 321 -194 l 1
 321 24 l 1
 110 -53 l 1
EndSplineSet
EndChar

StartChar: uni219E0338
Encoding: 26 -1 26
Width: 1118
Flags: W
HStem: -6 21G<637.926 699.311> 232 86<237 350 471 696 810 1028> 536 20G<806.689 868.074>
LayerCount: 2
Back
Fore
SplineSet
692 -6 m 1
 619 21 l 1
 696 232 l 1
 471 232 l 1
 552 151 l 1
 491 91 l 1
 350 232 l 1
 237 232 l 1
 317 151 l 1
 257 91 l 1
 72 275 l 1
 257 459 l 1
 317 399 l 1
 237 318 l 1
 350 318 l 1
 491 459 l 1
 552 399 l 1
 471 318 l 1
 727 318 l 1
 814 556 l 1
 887 529 l 1
 810 318 l 1
 1028 318 l 1
 1028 232 l 1
 779 232 l 1
 692 -6 l 1
EndSplineSet
EndChar

StartChar: uni21A10338
Encoding: 27 -1 27
Width: 728
Flags: W
VStem: 321 86<-47 66 187 413 526 744>
LayerCount: 2
Back
Fore
SplineSet
618 603 m 1
 645 530 l 1
 407 444 l 1
 407 187 l 1
 488 268 l 1
 548 207 l 1
 407 66 l 1
 407 -47 l 1
 488 34 l 1
 548 -27 l 1
 364 -212 l 1
 180 -27 l 1
 240 34 l 1
 321 -47 l 1
 321 66 l 1
 180 207 l 1
 240 268 l 1
 321 187 l 1
 321 413 l 1
 110 336 l 1
 83 408 l 1
 321 495 l 1
 321 744 l 1
 407 744 l 1
 407 526 l 1
 618 603 l 1
EndSplineSet
EndChar

StartChar: sym033_uni0338
Encoding: 28 -1 28
Width: 1230
Flags: W
HStem: 367 86<533 647> 533 86<698 813>
VStem: 708 86<193 307> 873 86<358 472>
LayerCount: 2
Back
Fore
SplineSet
323 379 m 1
 393 412 l 1
 488 208 l 1
 647 367 l 1
 533 367 l 1
 533 453 l 1
 733 453 l 1
 813 533 l 1
 698 533 l 1
 698 619 l 1
 959 619 l 1
 959 358 l 1
 873 358 l 1
 873 472 l 1
 794 393 l 1
 794 193 l 1
 708 193 l 1
 708 307 l 1
 526 125 l 1
 633 -104 l 1
 563 -137 l 1
 468 67 l 1
 314 -87 l 1
 253 -26 l 1
 429 150 l 1
 323 379 l 1
EndSplineSet
EndChar

StartChar: sym032_uni0338
Encoding: 29 -1 29
Width: 1230
Flags: W
HStem: 367 86<584 698> 533 86<418 532>
VStem: 271 86<358 473> 437 86<193 307>
LayerCount: 2
Back
Fore
SplineSet
667 -137 m 1
 597 -104 l 1
 704 125 l 1
 523 307 l 1
 523 193 l 1
 437 193 l 1
 437 393 l 1
 357 473 l 1
 357 358 l 1
 271 358 l 1
 271 619 l 1
 532 619 l 1
 532 533 l 1
 418 533 l 1
 498 453 l 1
 698 453 l 1
 698 367 l 1
 584 367 l 1
 743 208 l 1
 838 412 l 1
 908 379 l 1
 801 150 l 1
 977 -26 l 1
 916 -87 l 1
 762 67 l 1
 667 -137 l 1
EndSplineSet
EndChar

StartChar: sym035_uni0338
Encoding: 30 -1 30
Width: 1230
Flags: W
HStem: -69 86<418 532> 97 86<584 698>
VStem: 271 86<77 192> 437 86<243 357>
LayerCount: 2
Back
Fore
SplineSet
908 171 m 1
 838 138 l 1
 743 342 l 1
 584 183 l 1
 698 183 l 1
 698 97 l 1
 498 97 l 1
 418 17 l 1
 532 17 l 1
 532 -69 l 1
 271 -69 l 1
 271 192 l 1
 357 192 l 1
 357 77 l 1
 437 157 l 1
 437 357 l 1
 523 357 l 1
 523 243 l 1
 704 425 l 1
 597 654 l 1
 667 687 l 1
 762 483 l 1
 916 637 l 1
 977 576 l 1
 801 400 l 1
 908 171 l 1
EndSplineSet
EndChar

StartChar: sym034_uni0338
Encoding: 31 -1 31
Width: 1230
Flags: W
HStem: -69 86<698 813> 97 86<533 647>
VStem: 708 86<243 357> 873 86<78 192>
LayerCount: 2
Back
Fore
SplineSet
563 687 m 1
 633 654 l 1
 526 425 l 1
 708 243 l 1
 708 357 l 1
 794 357 l 1
 794 157 l 1
 873 78 l 1
 873 192 l 1
 959 192 l 1
 959 -69 l 1
 698 -69 l 1
 698 17 l 1
 813 17 l 1
 733 97 l 1
 533 97 l 1
 533 183 l 1
 647 183 l 1
 488 342 l 1
 393 138 l 1
 323 171 l 1
 429 400 l 1
 253 576 l 1
 314 637 l 1
 468 483 l 1
 563 687 l 1
EndSplineSet
EndChar

StartChar: uni21A30338
Encoding: 32 -1 32
Width: 930
Flags: W
HStem: -6 21G<349.926 411.311> 232 86<305 408 522 693> 536 20G<518.689 580.074>
LayerCount: 2
Back
Fore
SplineSet
526 556 m 1
 599 529 l 1
 522 318 l 1
 693 318 l 1
 613 399 l 1
 673 459 l 1
 858 275 l 1
 673 91 l 1
 613 151 l 1
 693 232 l 1
 491 232 l 1
 404 -6 l 1
 331 21 l 1
 408 232 l 1
 305 232 l 1
 163 91 l 1
 103 151 l 1
 226 275 l 1
 103 399 l 1
 163 459 l 1
 305 318 l 1
 439 318 l 1
 526 556 l 1
EndSplineSet
EndChar

StartChar: sym036_uni0338
Encoding: 33 -1 33
Width: 728
Flags: W
VStem: 321 86<115 218 332 503>
LayerCount: 2
Back
Fore
SplineSet
110 141 m 1
 83 214 l 1
 321 301 l 1
 321 503 l 1
 240 423 l 1
 180 483 l 1
 364 668 l 1
 548 483 l 1
 488 423 l 1
 407 503 l 1
 407 332 l 1
 618 409 l 1
 645 336 l 1
 407 249 l 1
 407 115 l 1
 548 -27 l 1
 488 -87 l 1
 364 36 l 1
 240 -87 l 1
 180 -27 l 1
 321 115 l 1
 321 218 l 1
 110 141 l 1
EndSplineSet
EndChar

StartChar: uni21A20338
Encoding: 34 -1 34
Width: 930
Flags: W
HStem: -6 21G<349.926 411.311> 232 86<237 408 522 625> 536 20G<518.689 580.074>
LayerCount: 2
Back
Fore
SplineSet
404 -6 m 1
 331 21 l 1
 408 232 l 1
 237 232 l 1
 317 151 l 1
 257 91 l 1
 72 275 l 1
 257 459 l 1
 317 399 l 1
 237 318 l 1
 439 318 l 1
 526 556 l 1
 599 529 l 1
 522 318 l 1
 625 318 l 1
 767 459 l 1
 827 399 l 1
 704 275 l 1
 827 151 l 1
 767 91 l 1
 625 232 l 1
 491 232 l 1
 404 -6 l 1
EndSplineSet
EndChar

StartChar: sym037_uni0338
Encoding: 35 -1 35
Width: 728
Flags: W
VStem: 321 86<47 218 332 435>
LayerCount: 2
Back
Fore
SplineSet
618 409 m 1
 645 336 l 1
 407 249 l 1
 407 47 l 1
 488 127 l 1
 548 67 l 1
 364 -118 l 1
 180 67 l 1
 240 127 l 1
 321 47 l 1
 321 218 l 1
 110 141 l 1
 83 214 l 1
 321 301 l 1
 321 435 l 1
 180 577 l 1
 240 637 l 1
 364 514 l 1
 488 637 l 1
 548 577 l 1
 407 435 l 1
 407 332 l 1
 618 409 l 1
EndSplineSet
EndChar

StartChar: sym039_uni0338
Encoding: 36 -1 36
Width: 1098
Flags: W
HStem: 1 21G<624.686 677.75> 106 86<205 380> 467 86<566 680>
VStem: 380 86<-69 106> 741 86<292 406>
LayerCount: 2
Back
Fore
SplineSet
394 517 m 1
 464 549 l 1
 559 346 l 1
 680 467 l 1
 566 467 l 1
 566 553 l 1
 827 553 l 1
 827 292 l 1
 741 292 l 1
 741 406 l 1
 597 263 l 1
 704 33 l 1
 634 1 l 1
 539 205 l 1
 466 132 l 1
 466 -69 l 1
 380 -69 l 1
 380 106 l 1
 205 106 l 1
 205 192 l 1
 405 192 l 1
 501 288 l 1
 394 517 l 1
EndSplineSet
EndChar

StartChar: sym038_uni0338
Encoding: 37 -1 37
Width: 1098
Flags: W
HStem: 1 21G<420.25 473.36> 106 86<718 893> 467 86<418 532>
VStem: 271 86<292 406> 632 86<-69 106>
LayerCount: 2
Back
Fore
SplineSet
464 1 m 1
 394 33 l 1
 501 262 l 1
 357 406 l 1
 357 292 l 1
 271 292 l 1
 271 553 l 1
 532 553 l 1
 532 467 l 1
 418 467 l 1
 539 346 l 1
 634 549 l 1
 704 517 l 1
 597 288 l 1
 693 192 l 1
 893 192 l 1
 893 106 l 1
 718 106 l 1
 718 -69 l 1
 632 -69 l 1
 632 131 l 1
 559 204 l 1
 464 1 l 1
EndSplineSet
EndChar

StartChar: sym03B_uni0338
Encoding: 38 -1 38
Width: 1098
Flags: W
HStem: -3 86<418 532> 358 86<718 893> 529 20G<420.25 473.36>
VStem: 271 86<144 258> 632 86<444 619>
LayerCount: 2
Back
Fore
SplineSet
704 33 m 1
 634 1 l 1
 539 204 l 1
 418 83 l 1
 532 83 l 1
 532 -3 l 1
 271 -3 l 1
 271 258 l 1
 357 258 l 1
 357 144 l 1
 501 288 l 1
 394 517 l 1
 464 549 l 1
 559 346 l 1
 632 419 l 1
 632 619 l 1
 718 619 l 1
 718 444 l 1
 893 444 l 1
 893 358 l 1
 693 358 l 1
 597 262 l 1
 704 33 l 1
EndSplineSet
EndChar

StartChar: sym03A_uni0338
Encoding: 39 -1 39
Width: 1098
Flags: W
HStem: -3 86<566 680> 358 86<205 380> 529 20G<624.686 677.75>
VStem: 380 86<444 619> 741 86<144 258>
LayerCount: 2
Back
Fore
SplineSet
634 549 m 1
 704 517 l 1
 597 287 l 1
 741 144 l 1
 741 258 l 1
 827 258 l 1
 827 -3 l 1
 566 -3 l 1
 566 83 l 1
 680 83 l 1
 559 204 l 1
 464 1 l 1
 394 33 l 1
 501 262 l 1
 405 358 l 1
 205 358 l 1
 205 444 l 1
 380 444 l 1
 380 619 l 1
 466 619 l 1
 466 418 l 1
 539 345 l 1
 634 549 l 1
EndSplineSet
EndChar

StartChar: uni21A60338
Encoding: 40 -1 40
Width: 930
Flags: W
HStem: -6 21G<272.926 334.311> 232 86<176 331 445 693> 536 20G<441.689 503.074>
VStem: 90 86<78 232 318 472>
LayerCount: 2
Back
Fore
SplineSet
449 556 m 1
 522 529 l 1
 445 318 l 1
 693 318 l 1
 613 399 l 1
 673 459 l 1
 858 275 l 1
 673 91 l 1
 613 151 l 1
 693 232 l 1
 414 232 l 1
 327 -6 l 1
 254 21 l 1
 331 232 l 1
 176 232 l 1
 176 78 l 1
 90 78 l 1
 90 472 l 1
 176 472 l 1
 176 318 l 1
 362 318 l 1
 449 556 l 1
EndSplineSet
EndChar

StartChar: uni21A50338
Encoding: 41 -1 41
Width: 728
Flags: W
HStem: -100 86<167 321 407 561>
VStem: 321 86<-14 141 255 503>
LayerCount: 2
Back
Fore
SplineSet
110 64 m 1
 83 137 l 1
 321 224 l 1
 321 503 l 1
 240 423 l 1
 180 483 l 1
 364 668 l 1
 548 483 l 1
 488 423 l 1
 407 503 l 1
 407 255 l 1
 618 332 l 1
 645 259 l 1
 407 172 l 1
 407 -14 l 1
 561 -14 l 1
 561 -100 l 1
 167 -100 l 1
 167 -14 l 1
 321 -14 l 1
 321 141 l 1
 110 64 l 1
EndSplineSet
EndChar

StartChar: uni21A40338
Encoding: 42 -1 42
Width: 930
Flags: W
HStem: -6 21G<426.926 488.311> 232 86<237 485 599 754> 536 20G<595.689 657.074>
VStem: 754 86<78 232 318 472>
LayerCount: 2
Back
Fore
SplineSet
481 -6 m 1
 408 21 l 1
 485 232 l 1
 237 232 l 1
 317 151 l 1
 257 91 l 1
 72 275 l 1
 257 459 l 1
 317 399 l 1
 237 318 l 1
 516 318 l 1
 603 556 l 1
 676 529 l 1
 599 318 l 1
 754 318 l 1
 754 472 l 1
 840 472 l 1
 840 78 l 1
 754 78 l 1
 754 232 l 1
 568 232 l 1
 481 -6 l 1
EndSplineSet
EndChar

StartChar: uni21A70338
Encoding: 43 -1 43
Width: 728
Flags: W
HStem: 564 86<167 321 407 561>
VStem: 321 86<47 295 409 564>
LayerCount: 2
Back
Fore
SplineSet
618 486 m 1
 645 413 l 1
 407 326 l 1
 407 47 l 1
 488 127 l 1
 548 67 l 1
 364 -118 l 1
 180 67 l 1
 240 127 l 1
 321 47 l 1
 321 295 l 1
 110 218 l 1
 83 291 l 1
 321 378 l 1
 321 564 l 1
 167 564 l 1
 167 650 l 1
 561 650 l 1
 561 564 l 1
 407 564 l 1
 407 409 l 1
 618 486 l 1
EndSplineSet
EndChar

StartChar: uni29070338
Encoding: 44 -1 44
Width: 1080
Flags: W
HStem: 136 86<176 371 485 747> 328 86<176 441 555 747>
VStem: 90 86<32 136 222 328 414 518>
LayerCount: 2
Back
Fore
SplineSet
833 328 m 1
 523 328 l 1
 485 222 l 1
 833 222 l 1
 886 275 l 1
 833 328 l 1
176 328 m 1
 176 222 l 1
 403 222 l 1
 441 328 l 1
 176 328 l 1
546 617 m 1
 619 591 l 1
 555 414 l 1
 747 414 l 1
 716 445 l 1
 777 506 l 1
 1008 275 l 1
 777 44 l 1
 716 105 l 1
 747 136 l 1
 454 136 l 1
 380 -67 l 1
 307 -41 l 1
 371 136 l 1
 176 136 l 1
 176 32 l 1
 90 32 l 1
 90 518 l 1
 176 518 l 1
 176 414 l 1
 472 414 l 1
 546 617 l 1
EndSplineSet
EndChar

StartChar: sym03C_uni0338
Encoding: 45 -1 45
Width: 851
Flags: W
HStem: -175 86<182 286 372 479 565 669>
VStem: 286 86<-89 106 220 481> 479 86<-89 176 290 481>
LayerCount: 2
Back
Fore
SplineSet
372 567 m 1
 372 220 l 1
 479 259 l 1
 479 568 l 1
 426 621 l 1
 372 567 l 1
372 -89 m 1
 479 -89 l 1
 479 176 l 1
 372 137 l 1
 372 -89 l 1
110 42 m 1
 83 115 l 1
 286 189 l 1
 286 481 l 1
 256 451 l 1
 195 512 l 1
 426 743 l 1
 656 512 l 1
 595 451 l 1
 565 481 l 1
 565 290 l 1
 741 354 l 1
 768 281 l 1
 565 207 l 1
 565 -89 l 1
 669 -89 l 1
 669 -175 l 1
 182 -175 l 1
 182 -89 l 1
 286 -89 l 1
 286 106 l 1
 110 42 l 1
EndSplineSet
EndChar

StartChar: uni29060338
Encoding: 46 -1 46
Width: 1080
Flags: W
HStem: 136 86<333 525 639 904> 328 86<333 595 709 904>
VStem: 904 86<32 136 222 328 414 518>
LayerCount: 2
Back
Fore
SplineSet
247 222 m 1
 557 222 l 1
 595 328 l 1
 247 328 l 1
 194 275 l 1
 247 222 l 1
904 222 m 1
 904 328 l 1
 677 328 l 1
 639 222 l 1
 904 222 l 1
534 -67 m 1
 461 -41 l 1
 525 136 l 1
 333 136 l 1
 364 105 l 1
 303 44 l 1
 72 275 l 1
 303 506 l 1
 364 445 l 1
 333 414 l 1
 626 414 l 1
 700 617 l 1
 773 591 l 1
 709 414 l 1
 904 414 l 1
 904 518 l 1
 990 518 l 1
 990 32 l 1
 904 32 l 1
 904 136 l 1
 608 136 l 1
 534 -67 l 1
EndSplineSet
EndChar

StartChar: sym03D_uni0338
Encoding: 47 -1 47
Width: 851
Flags: W
HStem: 639 86<182 286 372 479 565 669>
VStem: 286 86<69 260 374 639> 479 86<69 330 444 639>
LayerCount: 2
Back
Fore
SplineSet
479 -18 m 1
 479 330 l 1
 372 291 l 1
 372 -17 l 1
 426 -71 l 1
 479 -18 l 1
479 639 m 1
 372 639 l 1
 372 374 l 1
 479 413 l 1
 479 639 l 1
741 508 m 1
 768 435 l 1
 565 361 l 1
 565 69 l 1
 595 99 l 1
 656 38 l 1
 426 -193 l 1
 195 38 l 1
 256 99 l 1
 286 69 l 1
 286 260 l 1
 110 196 l 1
 83 269 l 1
 286 343 l 1
 286 639 l 1
 182 639 l 1
 182 725 l 1
 669 725 l 1
 669 639 l 1
 565 639 l 1
 565 444 l 1
 741 508 l 1
EndSplineSet
EndChar

StartChar: uni21AA0338
Encoding: 48 -1 48
Width: 930
Flags: W
HStem: -6 21G<272.926 334.311> 232 86<180.102 331 445 693> 386 86<180.102 253> 536 20G<441.689 503.074>
VStem: 90 86<321.216 382.784>
LayerCount: 2
Back
Fore
SplineSet
449 556 m 1
 522 529 l 1
 445 318 l 1
 693 318 l 1
 613 399 l 1
 673 459 l 1
 858 275 l 1
 673 91 l 1
 613 151 l 1
 693 232 l 1
 414 232 l 1
 327 -6 l 1
 254 21 l 1
 331 232 l 1
 210 232 l 2
 144 232 90 286 90 352 c 0
 90 418 144 472 210 472 c 2
 253 472 l 1
 253 386 l 1
 210 386 l 2
 191 386 176 371 176 352 c 0
 176 333 191 318 210 318 c 2
 362 318 l 1
 449 556 l 1
EndSplineSet
EndChar

StartChar: sym03E_uni0338
Encoding: 49 -1 49
Width: 728
Flags: W
HStem: -100 86<256.216 317.784>
VStem: 167 86<-9.89838 63> 321 86<-9.89838 141 255 503>
LayerCount: 2
Back
Fore
SplineSet
110 64 m 1
 83 137 l 1
 321 224 l 1
 321 503 l 1
 240 423 l 1
 180 483 l 1
 364 668 l 1
 548 483 l 1
 488 423 l 1
 407 503 l 1
 407 255 l 1
 618 332 l 1
 645 259 l 1
 407 172 l 1
 407 20 l 2
 407 -46 353 -100 287 -100 c 0
 221 -100 167 -46 167 20 c 2
 167 63 l 1
 253 63 l 1
 253 20 l 2
 253 1 268 -14 287 -14 c 0
 306 -14 321 1 321 20 c 2
 321 141 l 1
 110 64 l 1
EndSplineSet
EndChar

StartChar: uni21A90338.alt
Encoding: 50 -1 50
Width: 930
Flags: W
HStem: -6 21G<426.926 488.311> 78 86<677 749.898> 232 86<237 485 599 749.898> 536 20G<595.689 657.074>
VStem: 754 86<167.216 228.784>
LayerCount: 2
Back
Fore
SplineSet
481 -6 m 1
 408 21 l 1
 485 232 l 1
 237 232 l 1
 317 151 l 1
 257 91 l 1
 72 275 l 1
 257 459 l 1
 317 399 l 1
 237 318 l 1
 516 318 l 1
 603 556 l 1
 676 529 l 1
 599 318 l 1
 720 318 l 2
 786 318 840 264 840 198 c 0
 840 132 786 78 720 78 c 2
 677 78 l 1
 677 164 l 1
 720 164 l 2
 739 164 754 179 754 198 c 0
 754 217 739 232 720 232 c 2
 568 232 l 1
 481 -6 l 1
EndSplineSet
EndChar

StartChar: sym03F_uni0338.alt
Encoding: 51 -1 51
Width: 728
Flags: W
HStem: 564 86<410.216 471.784>
VStem: 321 86<47 295 409 559.898> 475 86<487 559.898>
LayerCount: 2
Back
Fore
SplineSet
618 486 m 1
 645 413 l 1
 407 326 l 1
 407 47 l 1
 488 127 l 1
 548 67 l 1
 364 -118 l 1
 180 67 l 1
 240 127 l 1
 321 47 l 1
 321 295 l 1
 110 218 l 1
 83 291 l 1
 321 378 l 1
 321 530 l 2
 321 596 375 650 441 650 c 0
 507 650 561 596 561 530 c 2
 561 487 l 1
 475 487 l 1
 475 530 l 2
 475 549 460 564 441 564 c 0
 422 564 407 549 407 530 c 2
 407 409 l 1
 618 486 l 1
EndSplineSet
EndChar

StartChar: uni29240338.alt
Encoding: 52 -1 52
Width: 1098
Flags: W
HStem: 29 86<282.523 349.692> 467 86<566 680>
VStem: 194 86<117.523 184.599> 741 86<292 406>
LayerCount: 2
Back
Fore
SplineSet
280 149 m 0
 280 131 296 115 314 115 c 0
 323 115 332 119 338 125 c 2
 446 233 l 1
 339 462 l 1
 409 495 l 1
 504 291 l 1
 680 467 l 1
 566 467 l 1
 566 553 l 1
 827 553 l 1
 827 292 l 1
 741 292 l 1
 741 406 l 1
 543 208 l 1
 650 -21 l 1
 580 -54 l 1
 485 150 l 1
 399 64 l 2
 375 40 345 29 314 29 c 0
 283 29 253 40 229 64 c 0
 205 88 194 118 194 149 c 0
 194 180 205 210 229 234 c 2
 260 264 l 1
 321 204 l 1
 290 173 l 2
 284 167 280 158 280 149 c 0
EndSplineSet
EndChar

StartChar: uni29230338
Encoding: 53 -1 53
Width: 1098
Flags: W
HStem: -80 86<639.401 706.477> 467 86<418 532>
VStem: 271 86<292 406> 709 86<8.52266 75.1612>
LayerCount: 2
Back
Fore
SplineSet
675 6 m 0
 693 6 709 22 709 40 c 0
 709 49 705 58 699 64 c 2
 613 150 l 1
 518 -54 l 1
 448 -21 l 1
 555 208 l 1
 357 406 l 1
 357 292 l 1
 271 292 l 1
 271 553 l 1
 532 553 l 1
 532 467 l 1
 418 467 l 1
 594 291 l 1
 689 495 l 1
 759 462 l 1
 652 233 l 1
 760 125 l 2
 784 101 795 71 795 40 c 0
 795 9 784 -21 760 -45 c 0
 736 -68 706 -80 675 -80 c 0
 644 -80 614 -68 590 -45 c 2
 560 -14 l 1
 620 47 l 1
 651 16 l 2
 657 10 666 6 675 6 c 0
EndSplineSet
EndChar

StartChar: uni29260338.alt
Encoding: 54 -1 54
Width: 1098
Flags: W
HStem: -3 86<418 532> 435 86<748.308 815.477>
VStem: 271 86<144 258> 818 86<365.401 432.54>
LayerCount: 2
Back
Fore
SplineSet
818 401 m 0
 818 420 802 435 784 435 c 0
 775 435 766 431 760 425 c 2
 652 317 l 1
 759 88 l 1
 689 55 l 1
 594 259 l 1
 418 83 l 1
 532 83 l 1
 532 -3 l 1
 271 -3 l 1
 271 258 l 1
 357 258 l 1
 357 144 l 1
 555 342 l 1
 448 571 l 1
 518 604 l 1
 613 400 l 1
 699 486 l 2
 723 510 753 521 784 521 c 0
 815 521 845 510 869 486 c 0
 892 462 904 432 904 401 c 0
 904 370 892 340 869 316 c 2
 838 286 l 1
 777 346 l 1
 808 377 l 2
 814 383 818 392 818 401 c 0
EndSplineSet
EndChar

StartChar: uni29250338
Encoding: 55 -1 55
Width: 1098
Flags: W
HStem: -3 86<566 680> 544 86<391.523 458.411>
VStem: 303 86<474.839 541.477> 741 86<144 258>
LayerCount: 2
Back
Fore
SplineSet
423 544 m 0
 405 544 389 528 389 510 c 0
 389 501 393 492 399 486 c 2
 485 400 l 1
 580 604 l 1
 650 571 l 1
 543 342 l 1
 741 144 l 1
 741 258 l 1
 827 258 l 1
 827 -3 l 1
 566 -3 l 1
 566 83 l 1
 680 83 l 1
 504 259 l 1
 409 55 l 1
 339 88 l 1
 446 317 l 1
 338 425 l 2
 314 449 303 479 303 510 c 0
 303 541 314 571 338 595 c 0
 362 618 392 630 423 630 c 0
 454 630 484 618 508 595 c 2
 538 564 l 1
 477 503 l 1
 447 534 l 2
 441 540 432 544 423 544 c 0
EndSplineSet
EndChar

StartChar: uni21AA0338.alt
Encoding: 56 -1 56
Width: 930
Flags: W
HStem: -6 21G<272.926 334.311> 78 86<180.102 253> 232 86<180.102 331 445 693> 536 20G<441.689 503.074>
VStem: 90 86<167.216 228.784>
LayerCount: 2
Back
Fore
SplineSet
449 556 m 1
 522 529 l 1
 445 318 l 1
 693 318 l 1
 613 399 l 1
 673 459 l 1
 858 275 l 1
 673 91 l 1
 613 151 l 1
 693 232 l 1
 414 232 l 1
 327 -6 l 1
 254 21 l 1
 331 232 l 1
 210 232 l 2
 191 232 176 217 176 198 c 0
 176 179 191 164 210 164 c 2
 253 164 l 1
 253 78 l 1
 210 78 l 2
 144 78 90 132 90 198 c 0
 90 264 144 318 210 318 c 2
 362 318 l 1
 449 556 l 1
EndSplineSet
EndChar

StartChar: sym03E_uni0338.alt
Encoding: 57 -1 57
Width: 728
Flags: W
HStem: -100 86<410.216 471.784>
VStem: 321 86<-9.89838 141 255 503> 475 86<-9.89838 63>
LayerCount: 2
Back
Fore
SplineSet
110 64 m 1
 83 137 l 1
 321 224 l 1
 321 503 l 1
 240 423 l 1
 180 483 l 1
 364 668 l 1
 548 483 l 1
 488 423 l 1
 407 503 l 1
 407 255 l 1
 618 332 l 1
 645 259 l 1
 407 172 l 1
 407 20 l 2
 407 1 422 -14 441 -14 c 0
 460 -14 475 1 475 20 c 2
 475 63 l 1
 561 63 l 1
 561 20 l 2
 561 -46 507 -100 441 -100 c 0
 375 -100 321 -46 321 20 c 2
 321 141 l 1
 110 64 l 1
EndSplineSet
EndChar

StartChar: uni21A90338
Encoding: 58 -1 58
Width: 930
Flags: W
HStem: -6 21G<426.926 488.311> 232 86<237 485 599 749.898> 386 86<677 749.898> 536 20G<595.689 657.074>
VStem: 754 86<321.216 382.784>
LayerCount: 2
Back
Fore
SplineSet
481 -6 m 1
 408 21 l 1
 485 232 l 1
 237 232 l 1
 317 151 l 1
 257 91 l 1
 72 275 l 1
 257 459 l 1
 317 399 l 1
 237 318 l 1
 516 318 l 1
 603 556 l 1
 676 529 l 1
 599 318 l 1
 720 318 l 2
 739 318 754 333 754 352 c 0
 754 371 739 386 720 386 c 2
 677 386 l 1
 677 472 l 1
 720 472 l 2
 786 472 840 418 840 352 c 0
 840 286 786 232 720 232 c 2
 568 232 l 1
 481 -6 l 1
EndSplineSet
EndChar

StartChar: sym03F_uni0338
Encoding: 59 -1 59
Width: 728
Flags: W
HStem: 564 86<256.216 317.784>
VStem: 167 86<487 559.898> 321 86<47 295 409 559.898>
LayerCount: 2
Back
Fore
SplineSet
618 486 m 1
 645 413 l 1
 407 326 l 1
 407 47 l 1
 488 127 l 1
 548 67 l 1
 364 -118 l 1
 180 67 l 1
 240 127 l 1
 321 47 l 1
 321 295 l 1
 110 218 l 1
 83 291 l 1
 321 378 l 1
 321 530 l 2
 321 549 306 564 287 564 c 0
 268 564 253 549 253 530 c 2
 253 487 l 1
 167 487 l 1
 167 530 l 2
 167 596 221 650 287 650 c 0
 353 650 407 596 407 530 c 2
 407 409 l 1
 618 486 l 1
EndSplineSet
EndChar

StartChar: uni29240338
Encoding: 60 -1 60
Width: 1098
Flags: W
HStem: -80 86<391.523 458.411> 467 86<566 680>
VStem: 303 86<8.52266 75.1612> 741 86<292 406>
LayerCount: 2
Back
Fore
SplineSet
389 40 m 0
 389 22 405 6 423 6 c 0
 432 6 441 10 447 16 c 2
 477 47 l 1
 538 -14 l 1
 508 -45 l 2
 484 -68 454 -80 423 -80 c 0
 392 -80 362 -68 338 -45 c 0
 314 -21 303 9 303 40 c 0
 303 71 314 101 338 125 c 2
 446 233 l 1
 339 462 l 1
 409 495 l 1
 504 291 l 1
 680 467 l 1
 566 467 l 1
 566 553 l 1
 827 553 l 1
 827 292 l 1
 741 292 l 1
 741 406 l 1
 543 208 l 1
 650 -21 l 1
 580 -54 l 1
 485 150 l 1
 399 64 l 2
 393 58 389 49 389 40 c 0
EndSplineSet
EndChar

StartChar: uni29230338.alt
Encoding: 61 -1 61
Width: 1098
Flags: W
HStem: 29 86<748.308 815.477> 467 86<418 532>
VStem: 271 86<292 406> 818 86<117.46 184.599>
LayerCount: 2
Back
Fore
SplineSet
784 115 m 0
 802 115 818 130 818 149 c 0
 818 158 814 167 808 173 c 2
 777 204 l 1
 838 264 l 1
 869 234 l 2
 892 210 904 180 904 149 c 0
 904 118 892 88 869 64 c 0
 845 40 815 29 784 29 c 0
 753 29 723 40 699 64 c 2
 613 150 l 1
 518 -54 l 1
 448 -21 l 1
 555 208 l 1
 357 406 l 1
 357 292 l 1
 271 292 l 1
 271 553 l 1
 532 553 l 1
 532 467 l 1
 418 467 l 1
 594 291 l 1
 689 495 l 1
 759 462 l 1
 652 233 l 1
 760 125 l 2
 766 119 775 115 784 115 c 0
EndSplineSet
EndChar

StartChar: uni29260338
Encoding: 62 -1 62
Width: 1098
Flags: W
HStem: -3 86<418 532> 544 86<639.401 706.477>
VStem: 271 86<144 258> 709 86<474.839 541.477>
LayerCount: 2
Back
Fore
SplineSet
709 510 m 0
 709 528 693 544 675 544 c 0
 666 544 657 540 651 534 c 2
 620 503 l 1
 560 564 l 1
 590 595 l 2
 614 618 644 630 675 630 c 0
 706 630 736 618 760 595 c 0
 784 571 795 541 795 510 c 0
 795 479 784 449 760 425 c 2
 652 317 l 1
 759 88 l 1
 689 55 l 1
 594 259 l 1
 418 83 l 1
 532 83 l 1
 532 -3 l 1
 271 -3 l 1
 271 258 l 1
 357 258 l 1
 357 144 l 1
 555 342 l 1
 448 571 l 1
 518 604 l 1
 613 400 l 1
 699 486 l 2
 705 492 709 501 709 510 c 0
EndSplineSet
EndChar

StartChar: uni29250338.alt
Encoding: 63 -1 63
Width: 1098
Flags: W
HStem: -3 86<566 680> 435 86<282.523 349.692>
VStem: 194 86<365.401 432.477> 741 86<144 258>
LayerCount: 2
Back
Fore
SplineSet
314 435 m 0
 296 435 280 419 280 401 c 0
 280 392 284 383 290 377 c 2
 321 346 l 1
 260 286 l 1
 229 316 l 2
 205 340 194 370 194 401 c 0
 194 432 205 462 229 486 c 0
 253 510 283 521 314 521 c 0
 345 521 375 510 399 486 c 2
 485 400 l 1
 580 604 l 1
 650 571 l 1
 543 342 l 1
 741 144 l 1
 741 258 l 1
 827 258 l 1
 827 -3 l 1
 566 -3 l 1
 566 83 l 1
 680 83 l 1
 504 259 l 1
 409 55 l 1
 339 88 l 1
 446 317 l 1
 338 425 l 2
 332 431 323 435 314 435 c 0
EndSplineSet
EndChar

StartChar: uni21C00338
Encoding: 64 -1 64
Width: 930
Flags: W
HStem: -6 21G<272.926 334.311> 232 86<90 331 445 693> 536 20G<441.689 503.074>
LayerCount: 2
Back
Fore
SplineSet
449 556 m 1
 522 529 l 1
 445 318 l 1
 693 318 l 1
 591 420 l 1
 652 481 l 1
 858 275 l 1
 846 232 l 1
 414 232 l 1
 327 -6 l 1
 254 21 l 1
 331 232 l 1
 90 232 l 1
 90 318 l 1
 362 318 l 1
 449 556 l 1
EndSplineSet
EndChar

StartChar: uni21BF0338
Encoding: 65 -1 65
Width: 728
Flags: W
VStem: 321 86<-100 141 255 503>
LayerCount: 2
Back
Fore
SplineSet
110 64 m 1
 83 137 l 1
 321 224 l 1
 321 503 l 1
 219 401 l 1
 158 462 l 1
 364 668 l 1
 407 656 l 1
 407 255 l 1
 618 332 l 1
 645 259 l 1
 407 172 l 1
 407 -100 l 1
 321 -100 l 1
 321 141 l 1
 110 64 l 1
EndSplineSet
EndChar

StartChar: uni21BD0338
Encoding: 66 -1 66
Width: 930
Flags: W
HStem: -6 21G<426.926 488.311> 232 86<237 485 599 840> 536 20G<595.689 657.074>
LayerCount: 2
Back
Fore
SplineSet
481 -6 m 1
 408 21 l 1
 485 232 l 1
 237 232 l 1
 339 130 l 1
 278 69 l 1
 72 275 l 1
 84 318 l 1
 516 318 l 1
 603 556 l 1
 676 529 l 1
 599 318 l 1
 840 318 l 1
 840 232 l 1
 568 232 l 1
 481 -6 l 1
EndSplineSet
EndChar

StartChar: uni21C20338
Encoding: 67 -1 67
Width: 728
Flags: W
VStem: 321 86<47 295 409 650>
LayerCount: 2
Back
Fore
SplineSet
618 486 m 1
 645 413 l 1
 407 326 l 1
 407 47 l 1
 509 149 l 1
 570 88 l 1
 364 -118 l 1
 321 -106 l 1
 321 295 l 1
 110 218 l 1
 83 291 l 1
 321 378 l 1
 321 650 l 1
 407 650 l 1
 407 409 l 1
 618 486 l 1
EndSplineSet
EndChar

StartChar: sym041_uni0338
Encoding: 68 -1 68
Width: 1098
Flags: W
HStem: 467 86<535 680>
LayerCount: 2
Back
Fore
SplineSet
339 462 m 1
 409 495 l 1
 504 291 l 1
 680 467 l 1
 535 467 l 1
 535 553 l 1
 827 553 l 1
 849 514 l 1
 814 479 l 1
 543 208 l 1
 650 -21 l 1
 580 -54 l 1
 485 150 l 1
 314 -21 l 1
 253 40 l 1
 446 233 l 1
 339 462 l 1
EndSplineSet
EndChar

StartChar: sym040_uni0338
Encoding: 69 -1 69
Width: 1098
Flags: W
VStem: 271 86<262 406>
LayerCount: 2
Back
Fore
SplineSet
518 -54 m 1
 448 -21 l 1
 555 208 l 1
 357 406 l 1
 357 262 l 1
 271 262 l 1
 271 553 l 1
 310 575 l 1
 326 559 341 544 357 528 c 2
 594 291 l 1
 689 495 l 1
 759 462 l 1
 652 233 l 1
 844 40 l 1
 784 -21 l 1
 613 150 l 1
 518 -54 l 1
EndSplineSet
EndChar

StartChar: sym043_uni0338
Encoding: 70 -1 70
Width: 1098
Flags: W
HStem: -3 86<418 562>
LayerCount: 2
Back
Fore
SplineSet
759 88 m 1
 689 55 l 1
 594 259 l 1
 418 83 l 1
 562 83 l 1
 562 -3 l 1
 271 -3 l 1
 249 36 l 1
 555 342 l 1
 448 571 l 1
 518 604 l 1
 613 400 l 1
 784 571 l 1
 844 510 l 1
 652 317 l 1
 759 88 l 1
EndSplineSet
EndChar

StartChar: sym042_uni0338
Encoding: 71 -1 71
Width: 1098
Flags: W
VStem: 741 86<144 288>
LayerCount: 2
Back
Fore
SplineSet
580 604 m 1
 650 571 l 1
 543 342 l 1
 741 144 l 1
 741 288 l 1
 827 288 l 1
 827 -3 l 1
 788 -25 l 1
 504 259 l 1
 409 55 l 1
 339 88 l 1
 446 317 l 1
 253 510 l 1
 314 571 l 1
 485 400 l 1
 580 604 l 1
EndSplineSet
EndChar

StartChar: uni21C10338
Encoding: 72 -1 72
Width: 930
Flags: W
HStem: -6 21G<272.926 334.311> 232 86<90 331 445 693> 536 20G<441.689 503.074>
LayerCount: 2
Back
Fore
SplineSet
449 556 m 1
 522 529 l 1
 445 318 l 1
 846 318 l 1
 858 275 l 1
 652 69 l 1
 591 130 l 1
 693 232 l 1
 414 232 l 1
 327 -6 l 1
 254 21 l 1
 331 232 l 1
 90 232 l 1
 90 318 l 1
 362 318 l 1
 449 556 l 1
EndSplineSet
EndChar

StartChar: uni21BE0338
Encoding: 73 -1 73
Width: 728
Flags: W
VStem: 321 86<-100 141 255 503>
LayerCount: 2
Back
Fore
SplineSet
110 64 m 1
 83 137 l 1
 321 224 l 1
 321 656 l 1
 364 668 l 1
 570 462 l 1
 509 401 l 1
 407 503 l 1
 407 255 l 1
 618 332 l 1
 645 259 l 1
 407 172 l 1
 407 -100 l 1
 321 -100 l 1
 321 141 l 1
 110 64 l 1
EndSplineSet
EndChar

StartChar: uni21BC0338
Encoding: 74 -1 74
Width: 930
Flags: W
HStem: -6 21G<426.926 488.311> 232 86<237 485 599 840> 536 20G<595.689 657.074>
LayerCount: 2
Back
Fore
SplineSet
481 -6 m 1
 408 21 l 1
 485 232 l 1
 84 232 l 1
 72 275 l 1
 278 481 l 1
 339 420 l 1
 237 318 l 1
 516 318 l 1
 603 556 l 1
 676 529 l 1
 599 318 l 1
 840 318 l 1
 840 232 l 1
 568 232 l 1
 481 -6 l 1
EndSplineSet
EndChar

StartChar: uni21C30338
Encoding: 75 -1 75
Width: 728
Flags: W
VStem: 321 86<47 295 409 650>
LayerCount: 2
Back
Fore
SplineSet
618 486 m 1
 645 413 l 1
 407 326 l 1
 407 -106 l 1
 364 -118 l 1
 158 88 l 1
 219 149 l 1
 321 47 l 1
 321 295 l 1
 110 218 l 1
 83 291 l 1
 321 378 l 1
 321 650 l 1
 407 650 l 1
 407 409 l 1
 618 486 l 1
EndSplineSet
EndChar

StartChar: sym045_uni0338
Encoding: 76 -1 76
Width: 1098
Flags: W
VStem: 741 86<262 406>
LayerCount: 2
Back
Fore
SplineSet
339 462 m 1
 409 495 l 1
 504 291 l 1
 788 575 l 1
 827 553 l 1
 827 262 l 1
 741 262 l 1
 741 406 l 1
 543 208 l 1
 650 -21 l 1
 580 -54 l 1
 485 150 l 1
 314 -21 l 1
 253 40 l 1
 446 233 l 1
 339 462 l 1
EndSplineSet
EndChar

StartChar: sym044_uni0338
Encoding: 77 -1 77
Width: 1098
Flags: W
HStem: 467 86<418 562>
LayerCount: 2
Back
Fore
SplineSet
518 -54 m 1
 448 -21 l 1
 555 208 l 1
 249 514 l 1
 271 553 l 1
 562 553 l 1
 562 467 l 1
 418 467 l 1
 594 291 l 1
 689 495 l 1
 759 462 l 1
 652 233 l 1
 844 40 l 1
 784 -21 l 1
 613 150 l 1
 518 -54 l 1
EndSplineSet
EndChar

StartChar: sym047_uni0338
Encoding: 78 -1 78
Width: 1098
Flags: W
VStem: 271 86<144 288>
LayerCount: 2
Back
Fore
SplineSet
759 88 m 1
 689 55 l 1
 594 259 l 1
 511 176 428 93 345 10 c 2
 310 -25 l 1
 271 -3 l 1
 271 288 l 1
 357 288 l 1
 357 144 l 1
 555 342 l 1
 448 571 l 1
 518 604 l 1
 613 400 l 1
 784 571 l 1
 844 510 l 1
 652 317 l 1
 759 88 l 1
EndSplineSet
EndChar

StartChar: sym046_uni0338
Encoding: 79 -1 79
Width: 1098
Flags: W
HStem: -3 86<535 680>
LayerCount: 2
Back
Fore
SplineSet
580 604 m 1
 650 571 l 1
 543 342 l 1
 814 71 l 1
 849 36 l 1
 827 -3 l 1
 535 -3 l 1
 535 83 l 1
 680 83 l 1
 504 259 l 1
 409 55 l 1
 339 88 l 1
 446 317 l 1
 253 510 l 1
 314 571 l 1
 485 400 l 1
 580 604 l 1
EndSplineSet
EndChar

StartChar: uni294B0338
Encoding: 80 -1 80
Width: 930
Flags: W
HStem: -1 21G<379 459.519> 232 86<237 418 512 693> 531 20G<470.481 551>
LayerCount: 2
Back
Fore
SplineSet
474 551 m 1
 551 537 l 1
 512 318 l 1
 693 318 l 1
 591 420 l 1
 652 481 l 1
 858 275 l 1
 846 232 l 1
 497 232 l 1
 456 -1 l 1
 379 13 l 1
 418 232 l 1
 237 232 l 1
 339 130 l 1
 278 69 l 1
 72 275 l 1
 84 318 l 1
 433 318 l 1
 474 551 l 1
EndSplineSet
EndChar

StartChar: uni294D0338
Encoding: 81 -1 81
Width: 728
Flags: W
VStem: 321 86<47 218 332 503>
LayerCount: 2
Back
Fore
SplineSet
110 141 m 1
 83 214 l 1
 321 301 l 1
 321 503 l 1
 219 401 l 1
 158 462 l 1
 364 668 l 1
 407 656 l 1
 407 332 l 1
 618 409 l 1
 645 336 l 1
 407 249 l 1
 407 47 l 1
 509 149 l 1
 570 88 l 1
 364 -118 l 1
 321 -106 l 1
 321 218 l 1
 110 141 l 1
EndSplineSet
EndChar

StartChar: sym049_uni0338
Encoding: 82 -1 82
Width: 1098
Flags: W
HStem: -3 86<418 562> 467 86<535 680>
LayerCount: 2
Back
Fore
SplineSet
360 477 m 1
 424 521 l 1
 552 339 l 1
 680 467 l 1
 535 467 l 1
 535 553 l 1
 827 553 l 1
 849 514 l 1
 814 479 l 1
 602 267 l 1
 737 73 l 1
 674 29 l 1
 546 211 l 1
 418 83 l 1
 562 83 l 1
 562 -3 l 1
 271 -3 l 1
 249 36 l 1
 496 283 l 1
 360 477 l 1
EndSplineSet
EndChar

StartChar: sym048_uni0338
Encoding: 83 -1 83
Width: 1098
Flags: W
HStem: 1 21G<420.25 473.36> 529 20G<624.64 677.75>
VStem: 271 86<262 406> 741 86<144 288>
LayerCount: 2
Back
Fore
SplineSet
464 1 m 1
 394 33 l 1
 501 262 l 1
 357 406 l 1
 357 262 l 1
 271 262 l 1
 271 553 l 1
 310 575 l 1
 539 346 l 1
 634 549 l 1
 704 517 l 1
 597 288 l 1
 741 144 l 1
 741 288 l 1
 827 288 l 1
 827 -3 l 1
 788 -25 l 1
 559 204 l 1
 464 1 l 1
EndSplineSet
EndChar

StartChar: uni294A0338
Encoding: 84 -1 84
Width: 930
Flags: W
HStem: -6 21G<349.926 411.311> 232 86<237 408 522 693> 536 20G<518.689 580.074>
LayerCount: 2
Back
Fore
SplineSet
526 556 m 1
 599 529 l 1
 522 318 l 1
 846 318 l 1
 858 275 l 1
 652 69 l 1
 591 130 l 1
 693 232 l 1
 491 232 l 1
 404 -6 l 1
 331 21 l 1
 408 232 l 1
 84 232 l 1
 72 275 l 1
 278 481 l 1
 339 420 l 1
 237 318 l 1
 439 318 l 1
 526 556 l 1
EndSplineSet
EndChar

StartChar: uni294C0338
Encoding: 85 -1 85
Width: 728
Flags: W
VStem: 321 86<47 228 322 503>
LayerCount: 2
Back
Fore
SplineSet
102 189 m 1
 88 266 l 1
 321 307 l 1
 321 656 l 1
 364 668 l 1
 570 462 l 1
 509 401 l 1
 407 503 l 1
 407 322 l 1
 626 361 l 1
 640 284 l 1
 407 243 l 1
 407 -106 l 1
 364 -118 l 1
 158 88 l 1
 219 149 l 1
 321 47 l 1
 321 228 l 1
 102 189 l 1
EndSplineSet
EndChar

StartChar: sym04B_uni0338
Encoding: 86 -1 86
Width: 1098
Flags: W
HStem: 1 21G<624.64 677.75> 529 20G<420.25 473.36>
VStem: 271 86<144 288> 741 86<262 406>
LayerCount: 2
Back
Fore
SplineSet
394 517 m 1
 464 549 l 1
 559 346 l 1
 788 575 l 1
 827 553 l 1
 827 262 l 1
 741 262 l 1
 741 406 l 1
 597 262 l 1
 704 33 l 1
 634 1 l 1
 539 204 l 1
 310 -25 l 1
 271 -3 l 1
 271 288 l 1
 357 288 l 1
 357 144 l 1
 501 288 l 1
 394 517 l 1
EndSplineSet
EndChar

StartChar: sym04A_uni0338
Encoding: 87 -1 87
Width: 1098
Flags: W
HStem: -3 86<535 680> 467 86<418 562>
LayerCount: 2
Back
Fore
SplineSet
424 29 m 1
 360 73 l 1
 496 267 l 1
 249 514 l 1
 271 553 l 1
 562 553 l 1
 562 467 l 1
 418 467 l 1
 546 339 l 1
 674 521 l 1
 737 477 l 1
 602 283 l 1
 814 71 l 1
 849 36 l 1
 827 -3 l 1
 535 -3 l 1
 535 83 l 1
 680 83 l 1
 552 211 l 1
 424 29 l 1
EndSplineSet
EndChar

StartChar: uni21CC0338
Encoding: 88 -1 88
Width: 930
Flags: W
HStem: 136 86<237 401 495 840> 328 86<90 435 529 693>
LayerCount: 2
Back
Fore
SplineSet
491 647 m 1
 568 634 l 1
 529 414 l 1
 693 414 l 1
 591 516 l 1
 652 577 l 1
 858 371 l 1
 846 328 l 1
 514 328 l 1
 495 222 l 1
 840 222 l 1
 840 136 l 1
 480 136 l 1
 439 -97 l 1
 362 -84 l 1
 401 136 l 1
 237 136 l 1
 339 34 l 1
 278 -27 l 1
 72 179 l 1
 84 222 l 1
 416 222 l 1
 435 328 l 1
 90 328 l 1
 90 414 l 1
 450 414 l 1
 491 647 l 1
EndSplineSet
EndChar

StartChar: uni296E0338
Encoding: 89 -1 89
Width: 920
Flags: W
VStem: 321 86<-100 183 297 503> 513 86<47 253 367 650>
LayerCount: 2
Back
Fore
SplineSet
110 106 m 1
 83 179 l 1
 321 266 l 1
 321 503 l 1
 219 401 l 1
 158 462 l 1
 364 668 l 1
 407 656 l 1
 407 297 l 1
 513 336 l 1
 513 650 l 1
 599 650 l 1
 599 367 l 1
 811 444 l 1
 837 371 l 1
 599 284 l 1
 599 47 l 1
 702 149 l 1
 762 88 l 1
 556 -118 l 1
 513 -106 l 1
 513 253 l 1
 407 214 l 1
 407 -100 l 1
 321 -100 l 1
 321 183 l 1
 110 106 l 1
EndSplineSet
EndChar

StartChar: sym04D_uni0338
Encoding: 90 -1 90
Width: 1234
Flags: W
HStem: -71 86<554 698> 535 86<535 680>
LayerCount: 2
Back
Fore
SplineSet
372 557 m 1
 436 601 l 1
 564 419 l 1
 680 535 l 1
 535 535 l 1
 535 621 l 1
 827 621 l 1
 849 582 l 1
 814 547 l 1
 614 347 l 1
 675 258 l 1
 920 503 l 1
 981 442 l 1
 726 187 l 1
 861 -7 l 1
 798 -51 l 1
 670 131 l 1
 554 15 l 1
 698 15 l 1
 698 -71 l 1
 407 -71 l 1
 385 -32 l 1
 620 203 l 1
 558 291 l 1
 314 47 l 1
 253 108 l 1
 508 363 l 1
 372 557 l 1
EndSplineSet
EndChar

StartChar: sym04C_uni0338
Encoding: 91 -1 91
Width: 1234
Flags: W
VStem: 271 86<194 338> 877 86<212 356>
LayerCount: 2
Back
Fore
SplineSet
489 -92 m 1
 418 -59 l 1
 525 170 l 1
 357 338 l 1
 357 194 l 1
 271 194 l 1
 271 485 l 1
 310 507 l 1
 326 491 341 476 357 460 c 2
 564 253 l 1
 611 356 l 1
 389 578 l 1
 450 639 l 1
 650 439 l 1
 745 642 l 1
 816 609 l 1
 709 380 l 1
 877 212 l 1
 877 356 l 1
 963 356 l 1
 963 65 l 1
 924 43 l 1
 670 297 l 1
 622 194 l 1
 844 -28 l 1
 784 -89 l 1
 584 111 l 1
 489 -92 l 1
EndSplineSet
EndChar

StartChar: uni21CB0338
Encoding: 92 -1 92
Width: 930
Flags: W
HStem: 136 86<90 373 487 693> 328 86<237 443 557 840>
LayerCount: 2
Back
Fore
SplineSet
561 652 m 1
 634 625 l 1
 557 414 l 1
 840 414 l 1
 840 328 l 1
 526 328 l 1
 487 222 l 1
 846 222 l 1
 858 179 l 1
 652 -27 l 1
 591 34 l 1
 693 136 l 1
 456 136 l 1
 369 -102 l 1
 296 -75 l 1
 373 136 l 1
 90 136 l 1
 90 222 l 1
 404 222 l 1
 443 328 l 1
 84 328 l 1
 72 371 l 1
 278 577 l 1
 339 516 l 1
 237 414 l 1
 474 414 l 1
 561 652 l 1
EndSplineSet
EndChar

StartChar: uni296F0338
Encoding: 93 -1 93
Width: 920
Flags: W
VStem: 321 86<47 211 305 650> 513 86<-100 245 339 503>
LayerCount: 2
Back
Fore
SplineSet
102 172 m 1
 88 249 l 1
 321 290 l 1
 321 650 l 1
 407 650 l 1
 407 305 l 1
 513 324 l 1
 513 656 l 1
 556 668 l 1
 762 462 l 1
 702 401 l 1
 599 503 l 1
 599 339 l 1
 819 378 l 1
 832 301 l 1
 599 260 l 1
 599 -100 l 1
 513 -100 l 1
 513 245 l 1
 407 226 l 1
 407 -106 l 1
 364 -118 l 1
 158 88 l 1
 219 149 l 1
 321 47 l 1
 321 211 l 1
 102 172 l 1
EndSplineSet
EndChar

StartChar: sym04F_uni0338
Encoding: 94 -1 94
Width: 1234
Flags: W
VStem: 271 86<212 356> 877 86<194 338>
LayerCount: 2
Back
Fore
SplineSet
418 609 m 1
 489 642 l 1
 584 439 l 1
 784 639 l 1
 844 578 l 1
 622 356 l 1
 670 253 l 1
 924 507 l 1
 963 485 l 1
 963 194 l 1
 877 194 l 1
 877 338 l 1
 709 170 l 1
 816 -59 l 1
 745 -92 l 1
 650 111 l 1
 450 -89 l 1
 389 -28 l 1
 611 194 l 1
 564 297 l 1
 491 224 418 151 345 78 c 2
 310 43 l 1
 271 65 l 1
 271 356 l 1
 357 356 l 1
 357 212 l 1
 525 380 l 1
 418 609 l 1
EndSplineSet
EndChar

StartChar: sym04E_uni0338
Encoding: 95 -1 95
Width: 1234
Flags: W
HStem: -71 86<535 680> 535 86<554 698>
LayerCount: 2
Back
Fore
SplineSet
436 -51 m 1
 372 -7 l 1
 508 187 l 1
 253 442 l 1
 314 503 l 1
 558 259 l 1
 620 347 l 1
 385 582 l 1
 407 621 l 1
 698 621 l 1
 698 535 l 1
 554 535 l 1
 670 419 l 1
 798 601 l 1
 861 557 l 1
 726 363 l 1
 981 108 l 1
 920 47 l 1
 675 292 l 1
 614 203 l 1
 814 3 l 1
 849 -32 l 1
 827 -71 l 1
 535 -71 l 1
 535 15 l 1
 680 15 l 1
 564 131 l 1
 436 -51 l 1
EndSplineSet
EndChar

StartChar: uni21E20338
Encoding: 96 -1 96
Width: 930
Flags: W
HStem: -6 21G<300.667 361.29> 232 86<90 266 565 693> 536 20G<468.748 530.074>
LayerCount: 2
Back
Fore
SplineSet
90 232 m 1
 90 318 l 1
 266 318 l 1
 266 232 l 1
 90 232 l 1
858 275 m 1
 673 91 l 1
 613 151 l 1
 693 232 l 1
 565 232 l 1
 565 318 l 1
 693 318 l 1
 613 399 l 1
 673 459 l 1
 858 275 l 1
476 556 m 1
 549 529 l 1
 354 -6 l 1
 282 21 l 1
 476 556 l 1
EndSplineSet
EndChar

StartChar: uni21E10338
Encoding: 97 -1 97
Width: 728
Flags: W
VStem: 321 86<-100 76 375 503>
LayerCount: 2
Back
Fore
SplineSet
407 -100 m 1
 321 -100 l 1
 321 76 l 1
 407 76 l 1
 407 -100 l 1
364 668 m 1
 548 483 l 1
 488 423 l 1
 407 503 l 1
 407 375 l 1
 321 375 l 1
 321 503 l 1
 240 423 l 1
 180 483 l 1
 364 668 l 1
110 92 m 1
 83 164 l 1
 618 359 l 1
 645 286 l 1
 110 92 l 1
EndSplineSet
EndChar

StartChar: uni21E00338
Encoding: 98 -1 98
Width: 930
Flags: W
HStem: -6 21G<399.926 461.252> 232 86<237 365 664 840> 536 20G<568.71 629.333>
LayerCount: 2
Back
Fore
SplineSet
840 318 m 1
 840 232 l 1
 664 232 l 1
 664 318 l 1
 840 318 l 1
72 275 m 1
 257 459 l 1
 317 399 l 1
 237 318 l 1
 365 318 l 1
 365 232 l 1
 237 232 l 1
 317 151 l 1
 257 91 l 1
 72 275 l 1
454 -6 m 1
 381 21 l 1
 576 556 l 1
 648 529 l 1
 454 -6 l 1
EndSplineSet
EndChar

StartChar: uni21E30338
Encoding: 99 -1 99
Width: 728
Flags: W
VStem: 321 86<47 175 474 650>
LayerCount: 2
Back
Fore
SplineSet
321 650 m 1
 407 650 l 1
 407 474 l 1
 321 474 l 1
 321 650 l 1
364 -118 m 1
 180 67 l 1
 240 127 l 1
 321 47 l 1
 321 175 l 1
 407 175 l 1
 407 47 l 1
 488 127 l 1
 548 67 l 1
 364 -118 l 1
618 458 m 1
 645 386 l 1
 110 191 l 1
 83 264 l 1
 618 458 l 1
EndSplineSet
EndChar

StartChar: sym051_uni0338
Encoding: 100 -1 100
Width: 1098
Flags: W
HStem: 467 86<566 680>
VStem: 741 86<292 406>
LayerCount: 2
Back
Fore
SplineSet
314 -21 m 1
 253 40 l 1
 378 165 l 1
 438 104 l 1
 314 -21 l 1
827 553 m 1
 827 292 l 1
 741 292 l 1
 741 406 l 1
 650 315 l 1
 589 376 l 1
 680 467 l 1
 566 467 l 1
 566 553 l 1
 827 553 l 1
358 481 m 1
 429 514 l 1
 669 -2 l 1
 599 -34 l 1
 358 481 l 1
EndSplineSet
EndChar

StartChar: sym050_uni0338
Encoding: 101 -1 101
Width: 1098
Flags: W
HStem: 467 86<418 532>
VStem: 271 86<292 406>
LayerCount: 2
Back
Fore
SplineSet
844 40 m 1
 784 -21 l 1
 659 104 l 1
 720 165 l 1
 844 40 l 1
271 553 m 1
 532 553 l 1
 532 467 l 1
 418 467 l 1
 509 376 l 1
 448 315 l 1
 357 406 l 1
 357 292 l 1
 271 292 l 1
 271 553 l 1
499 -34 m 1
 429 -2 l 1
 669 514 l 1
 739 481 l 1
 499 -34 l 1
EndSplineSet
EndChar

StartChar: sym053_uni0338
Encoding: 102 -1 102
Width: 1098
Flags: W
HStem: -3 86<418 532>
VStem: 271 86<144 258>
LayerCount: 2
Back
Fore
SplineSet
784 571 m 1
 844 510 l 1
 720 385 l 1
 659 446 l 1
 784 571 l 1
271 -3 m 1
 271 258 l 1
 357 258 l 1
 357 144 l 1
 448 235 l 1
 509 174 l 1
 418 83 l 1
 532 83 l 1
 532 -3 l 1
 271 -3 l 1
739 69 m 1
 669 36 l 1
 429 552 l 1
 499 584 l 1
 739 69 l 1
EndSplineSet
EndChar

StartChar: sym052_uni0338
Encoding: 103 -1 103
Width: 1098
Flags: W
HStem: -3 86<566 680>
VStem: 741 86<144 258>
LayerCount: 2
Back
Fore
SplineSet
253 510 m 1
 314 571 l 1
 438 446 l 1
 378 385 l 1
 253 510 l 1
827 -3 m 1
 566 -3 l 1
 566 83 l 1
 680 83 l 1
 589 174 l 1
 650 235 l 1
 741 144 l 1
 741 258 l 1
 827 258 l 1
 827 -3 l 1
599 584 m 1
 669 552 l 1
 429 36 l 1
 358 69 l 1
 599 584 l 1
EndSplineSet
EndChar

StartChar: uni22B80338
Encoding: 104 -1 104
Width: 930
Flags: W
HStem: -6 21G<226.926 288.227> 109 86<619.977 727.831> 232 86<90 285 398 521.06> 355 86<619.977 727.831> 536 20G<395.689 456.333>
VStem: 754 86<221.132 328.868>
LayerCount: 2
Back
Fore
SplineSet
674 195 m 0
 718 195 754 231 754 275 c 0
 754 319 718 355 674 355 c 0
 630 355 594 319 594 275 c 0
 594 231 630 195 674 195 c 0
403 556 m 1
 475 529 l 1
 398 318 l 1
 514 318 l 1
 521 346 535 372 556 393 c 0
 587 424 630 441 674 441 c 0
 718 441 760 424 791 393 c 0
 822 361 840 319 840 275 c 0
 840 231 822 189 791 157 c 0
 760 126 718 109 674 109 c 0
 630 109 587 126 556 157 c 0
 535 178 521 204 514 232 c 1
 367 232 l 1
 281 -6 l 1
 208 21 l 1
 285 232 l 1
 90 232 l 1
 90 318 l 1
 316 318 l 1
 403 556 l 1
EndSplineSet
EndChar

StartChar: uni2AEF0338
Encoding: 105 -1 105
Width: 728
Flags: W
HStem: 564 86<310.132 417.868>
VStem: 198 86<429.977 537.831> 321 86<-100 95 208 331.06> 444 86<429.977 537.831>
CounterMasks: 1 70
LayerCount: 2
Back
Fore
SplineSet
364 404 m 0
 408 404 444 440 444 484 c 0
 444 528 408 564 364 564 c 0
 320 564 284 528 284 484 c 0
 284 440 320 404 364 404 c 0
110 18 m 1
 83 91 l 1
 321 177 l 1
 321 324 l 1
 293 331 267 345 246 366 c 0
 215 397 198 440 198 484 c 0
 198 528 215 570 246 601 c 0
 278 632 320 650 364 650 c 0
 408 650 450 632 482 601 c 0
 513 570 530 528 530 484 c 0
 530 440 513 397 482 366 c 0
 461 345 435 331 407 324 c 1
 407 208 l 1
 618 285 l 1
 645 213 l 1
 407 126 l 1
 407 -100 l 1
 321 -100 l 1
 321 95 l 1
 110 18 l 1
EndSplineSet
EndChar

StartChar: uni27DC0338
Encoding: 106 -1 106
Width: 930
Flags: W
HStem: -6 21G<473.667 534.311> 109 86<202.169 310.023> 232 86<408.94 532 645 840> 355 86<202.169 310.023> 536 20G<641.773 703.074>
VStem: 90 86<221.132 328.868>
LayerCount: 2
Back
Fore
SplineSet
256 195 m 0
 300 195 336 231 336 275 c 0
 336 319 300 355 256 355 c 0
 212 355 176 319 176 275 c 0
 176 231 212 195 256 195 c 0
527 -6 m 1
 455 21 l 1
 532 232 l 1
 416 232 l 1
 409 204 395 178 374 157 c 0
 343 126 300 109 256 109 c 0
 212 109 170 126 139 157 c 0
 108 189 90 231 90 275 c 0
 90 319 108 361 139 393 c 0
 170 424 212 441 256 441 c 0
 300 441 343 424 374 393 c 0
 395 372 409 346 416 318 c 1
 563 318 l 1
 649 556 l 1
 722 529 l 1
 645 318 l 1
 840 318 l 1
 840 232 l 1
 614 232 l 1
 527 -6 l 1
EndSplineSet
EndChar

StartChar: uni2AF00338
Encoding: 107 -1 107
Width: 728
Flags: W
HStem: -100 86<310.132 417.868>
VStem: 198 86<12.1692 120.023> 321 86<218.94 342 455 650> 444 86<12.1692 120.023>
CounterMasks: 1 70
LayerCount: 2
Back
Fore
SplineSet
364 -14 m 0
 408 -14 444 22 444 66 c 0
 444 110 408 146 364 146 c 0
 320 146 284 110 284 66 c 0
 284 22 320 -14 364 -14 c 0
618 532 m 1
 645 459 l 1
 407 373 l 1
 407 226 l 1
 435 219 461 205 482 184 c 0
 513 153 530 110 530 66 c 0
 530 22 513 -20 482 -51 c 0
 450 -82 408 -100 364 -100 c 0
 320 -100 278 -82 246 -51 c 0
 215 -20 198 22 198 66 c 0
 198 110 215 153 246 184 c 0
 267 205 293 219 321 226 c 1
 321 342 l 1
 110 265 l 1
 83 337 l 1
 321 424 l 1
 321 650 l 1
 407 650 l 1
 407 455 l 1
 618 532 l 1
EndSplineSet
EndChar

StartChar: sym054_uni0338
Encoding: 108 -1 108
Width: 930
Flags: W
HStem: -6 21G<226.926 288.227> 109 332<591.776 755.497> 232 86<90 285 398 521.06> 536 20G<395.689 456.333>
LayerCount: 2
Back
Fore
SplineSet
403 556 m 1xb0
 475 529 l 1
 398 318 l 1
 514 318 l 1xb0
 521 346 535 372 556 393 c 0
 587 424 630 441 674 441 c 0
 718 441 760 424 791 393 c 0
 822 361 840 319 840 275 c 0
 840 231 822 189 791 157 c 0
 760 126 718 109 674 109 c 0xd0
 630 109 587 126 556 157 c 0
 535 178 521 204 514 232 c 1
 367 232 l 1
 281 -6 l 1
 208 21 l 1
 285 232 l 1
 90 232 l 1
 90 318 l 1
 316 318 l 1
 403 556 l 1xb0
EndSplineSet
EndChar

StartChar: sym056_uni0338
Encoding: 109 -1 109
Width: 728
Flags: W
VStem: 198 332<401.776 565.497> 321 86<-100 95 208 331.06>
LayerCount: 2
Back
Fore
SplineSet
110 18 m 1x40
 83 91 l 1
 321 177 l 1
 321 324 l 1x40
 293 331 267 345 246 366 c 0
 215 397 198 440 198 484 c 0
 198 528 215 570 246 601 c 0
 278 632 320 650 364 650 c 0
 408 650 450 632 482 601 c 0
 513 570 530 528 530 484 c 0x80
 530 440 513 397 482 366 c 0
 461 345 435 331 407 324 c 1
 407 208 l 1
 618 285 l 1
 645 213 l 1
 407 126 l 1
 407 -100 l 1
 321 -100 l 1
 321 95 l 1
 110 18 l 1x40
EndSplineSet
EndChar

StartChar: sym055_uni0338
Encoding: 110 -1 110
Width: 930
Flags: W
HStem: -6 21G<473.667 534.311> 109 332<174.503 338.224> 232 86<408.94 532 645 840> 536 20G<641.773 703.074>
LayerCount: 2
Back
Fore
SplineSet
527 -6 m 1xb0
 455 21 l 1
 532 232 l 1
 416 232 l 1xb0
 409 204 395 178 374 157 c 0
 343 126 300 109 256 109 c 0
 212 109 170 126 139 157 c 0
 108 189 90 231 90 275 c 0
 90 319 108 361 139 393 c 0
 170 424 212 441 256 441 c 0xd0
 300 441 343 424 374 393 c 0
 395 372 409 346 416 318 c 1
 563 318 l 1
 649 556 l 1
 722 529 l 1
 645 318 l 1
 840 318 l 1
 840 232 l 1
 614 232 l 1
 527 -6 l 1xb0
EndSplineSet
EndChar

StartChar: sym057_uni0338
Encoding: 111 -1 111
Width: 728
Flags: W
VStem: 198 332<-15.4974 148.224> 321 86<218.94 342 455 650>
LayerCount: 2
Back
Fore
SplineSet
618 532 m 1x40
 645 459 l 1
 407 373 l 1
 407 226 l 1x40
 435 219 461 205 482 184 c 0
 513 153 530 110 530 66 c 0
 530 22 513 -20 482 -51 c 0
 450 -82 408 -100 364 -100 c 0
 320 -100 278 -82 246 -51 c 0
 215 -20 198 22 198 66 c 0x80
 198 110 215 153 246 184 c 0
 267 205 293 219 321 226 c 1
 321 342 l 1
 110 265 l 1
 83 337 l 1
 321 424 l 1
 321 650 l 1
 407 650 l 1
 407 455 l 1
 618 532 l 1x40
EndSplineSet
EndChar

StartChar: uni29DF0338
Encoding: 112 -1 112
Width: 1230
Flags: W
HStem: -6 21G<499.926 561.311> 109 86<202.169 310.023 919.977 1027.83> 232 86<408.94 558 672 821.06> 355 86<202.169 310.023 919.977 1027.83> 536 20G<668.689 730.074>
VStem: 90 86<221.132 328.868> 1054 86<221.132 328.868>
LayerCount: 2
Back
Fore
SplineSet
974 195 m 0
 1018 195 1054 231 1054 275 c 0
 1054 319 1018 355 974 355 c 0
 930 355 894 319 894 275 c 0
 894 231 930 195 974 195 c 0
256 195 m 0
 300 195 336 231 336 275 c 0
 336 319 300 355 256 355 c 0
 212 355 176 319 176 275 c 0
 176 231 212 195 256 195 c 0
676 556 m 1
 749 529 l 1
 672 318 l 1
 814 318 l 1
 821 346 835 372 856 393 c 0
 887 424 930 441 974 441 c 0
 1018 441 1060 424 1091 393 c 0
 1122 361 1140 319 1140 275 c 0
 1140 231 1122 189 1091 157 c 0
 1060 126 1018 109 974 109 c 0
 930 109 887 126 856 157 c 0
 835 178 821 204 814 232 c 1
 641 232 l 1
 554 -6 l 1
 481 21 l 1
 558 232 l 1
 416 232 l 1
 409 204 395 178 374 157 c 0
 343 126 300 109 256 109 c 0
 212 109 170 126 139 157 c 0
 108 189 90 231 90 275 c 0
 90 319 108 361 139 393 c 0
 170 424 212 441 256 441 c 0
 300 441 343 424 374 393 c 0
 395 372 409 346 416 318 c 1
 589 318 l 1
 676 556 l 1
EndSplineSet
EndChar

StartChar: sym058_uni0338
Encoding: 113 -1 113
Width: 1230
Flags: W
HStem: -6 21G<499.926 561.311> 109 332<174.503 338.224 891.776 1055.5> 232 86<408.94 558 672 821.06> 536 20G<668.689 730.074>
LayerCount: 2
Back
Fore
SplineSet
676 556 m 1xb0
 749 529 l 1
 672 318 l 1
 814 318 l 1xb0
 821 346 835 372 856 393 c 0
 887 424 930 441 974 441 c 0
 1018 441 1060 424 1091 393 c 0
 1122 361 1140 319 1140 275 c 0
 1140 231 1122 189 1091 157 c 0
 1060 126 1018 109 974 109 c 0xd0
 930 109 887 126 856 157 c 0
 835 178 821 204 814 232 c 1
 641 232 l 1
 554 -6 l 1
 481 21 l 1
 558 232 l 1
 416 232 l 1xb0
 409 204 395 178 374 157 c 0
 343 126 300 109 256 109 c 0
 212 109 170 126 139 157 c 0
 108 189 90 231 90 275 c 0
 90 319 108 361 139 393 c 0
 170 424 212 441 256 441 c 0xd0
 300 441 343 424 374 393 c 0
 395 372 409 346 416 318 c 1
 589 318 l 1
 676 556 l 1xb0
EndSplineSet
EndChar

StartChar: uni22B70338
Encoding: 114 -1 114
Width: 1230
Flags: W
HStem: -6 21G<499.926 561.311> 109 332<174.503 338.224> 109 86<919.977 1027.83> 232 86<408.94 558 672 821.06> 355 86<919.977 1027.83> 536 20G<668.689 730.074>
VStem: 1054 86<221.132 328.868>
LayerCount: 2
Back
Fore
SplineSet
974 195 m 0xae
 1018 195 1054 231 1054 275 c 0
 1054 319 1018 355 974 355 c 0
 930 355 894 319 894 275 c 0
 894 231 930 195 974 195 c 0xae
676 556 m 1
 749 529 l 1
 672 318 l 1
 814 318 l 1
 821 346 835 372 856 393 c 0
 887 424 930 441 974 441 c 0
 1018 441 1060 424 1091 393 c 0
 1122 361 1140 319 1140 275 c 0
 1140 231 1122 189 1091 157 c 0
 1060 126 1018 109 974 109 c 0
 930 109 887 126 856 157 c 0
 835 178 821 204 814 232 c 1
 641 232 l 1
 554 -6 l 1
 481 21 l 1
 558 232 l 1
 416 232 l 1xbe
 409 204 395 178 374 157 c 0
 343 126 300 109 256 109 c 0
 212 109 170 126 139 157 c 0
 108 189 90 231 90 275 c 0
 90 319 108 361 139 393 c 0
 170 424 212 441 256 441 c 0xc6
 300 441 343 424 374 393 c 0
 395 372 409 346 416 318 c 1
 589 318 l 1x96
 676 556 l 1
EndSplineSet
EndChar

StartChar: uni22B60338
Encoding: 115 -1 115
Width: 1230
Flags: W
HStem: -6 21G<499.926 561.311> 109 332<891.776 1055.5> 109 86<202.169 310.023> 232 86<408.94 558 672 821.06> 355 86<202.169 310.023> 536 20G<668.689 730.074>
VStem: 90 86<221.132 328.868>
LayerCount: 2
Back
Fore
SplineSet
256 195 m 0xae
 300 195 336 231 336 275 c 0
 336 319 300 355 256 355 c 0
 212 355 176 319 176 275 c 0
 176 231 212 195 256 195 c 0xae
554 -6 m 1
 481 21 l 1
 558 232 l 1
 416 232 l 1
 409 204 395 178 374 157 c 0
 343 126 300 109 256 109 c 0
 212 109 170 126 139 157 c 0
 108 189 90 231 90 275 c 0
 90 319 108 361 139 393 c 0
 170 424 212 441 256 441 c 0
 300 441 343 424 374 393 c 0
 395 372 409 346 416 318 c 1
 589 318 l 1
 676 556 l 1
 749 529 l 1
 672 318 l 1
 814 318 l 1xbe
 821 346 835 372 856 393 c 0
 887 424 930 441 974 441 c 0
 1018 441 1060 424 1091 393 c 0
 1122 361 1140 319 1140 275 c 0
 1140 231 1122 189 1091 157 c 0
 1060 126 1018 109 974 109 c 0xc6
 930 109 887 126 856 157 c 0
 835 178 821 204 814 232 c 1
 641 232 l 1x96
 554 -6 l 1
EndSplineSet
EndChar

StartChar: sym05A_uni0338
Encoding: 116 -1 116
Width: 930
Flags: W
HStem: 29 86<90 216 310 364.061> 232 86<90 252 346 418 501.554 840> 435 86<90 288>
VStem: 418 87<176.82 232 318 374.299>
CounterMasks: 1 e0
LayerCount: 2
Back
Fore
SplineSet
310 115 m 1
 367 119 406 170 418 232 c 1
 331 232 l 1
 310 115 l 1
363 415 m 1
 346 318 l 1
 418 318 l 1
 410 358 391 394 363 415 c 1
330 676 m 1
 407 663 l 1
 379 505 l 1
 446 474 493 401 505 318 c 1
 840 318 l 1
 840 232 l 1
 505 232 l 1
 489 121 411 29 304 29 c 2
 295 29 l 1
 268 -126 l 1
 191 -113 l 1
 216 29 l 1
 90 29 l 1
 90 115 l 1
 231 115 l 1
 252 232 l 1
 90 232 l 1
 90 318 l 1
 267 318 l 1
 288 435 l 1
 90 435 l 1
 90 521 l 1
 303 521 l 1
 330 676 l 1
EndSplineSet
EndChar

StartChar: uni22D40338
Encoding: 117 -1 117
Width: 979
Flags: W
HStem: 1 21G<98.3636 215.6> 228 87<391.82 447 533 588.748>
VStem: 244 86<-100 26 121 174.767> 447 86<-100 62 156 228 311.554 650> 649 86<-100 97>
LayerCount: 2
Back
Fore
SplineSet
629 173 m 1
 608 201 573 220 533 228 c 1
 533 156 l 1
 629 173 l 1
330 121 m 1
 447 141 l 1
 447 228 l 1
 385 216 334 178 330 121 c 1
102 1 m 1
 88 78 l 1
 244 105 l 1
 244 114 l 2
 244 221 336 299 447 315 c 1
 447 650 l 1
 533 650 l 1
 533 315 l 1
 615 303 688 256 719 189 c 1
 877 217 l 1
 891 140 l 1
 735 113 l 1
 735 -100 l 1
 649 -100 l 1
 649 97 l 1
 533 77 l 1
 533 -100 l 1
 447 -100 l 1
 447 62 l 1
 330 41 l 1
 330 -100 l 1
 244 -100 l 1
 244 26 l 1
 102 1 l 1
EndSplineSet
EndChar

StartChar: sym05B_uni0338
Encoding: 118 -1 118
Width: 930
Flags: W
HStem: 29 86<642 840> 232 86<90 428.446 512 584 678 840> 435 86<565.939 620 714 840>
VStem: 425 87<175.701 232 318 373.18>
CounterMasks: 1 e0
LayerCount: 2
Back
Fore
SplineSet
620 435 m 1
 563 431 524 380 512 318 c 1
 599 318 l 1
 620 435 l 1
567 135 m 1
 584 232 l 1
 512 232 l 1
 520 192 539 156 567 135 c 1
600 -126 m 1
 523 -113 l 1
 551 45 l 1
 484 76 437 149 425 232 c 1
 90 232 l 1
 90 318 l 1
 425 318 l 1
 441 429 519 521 626 521 c 2
 635 521 l 1
 662 676 l 1
 739 663 l 1
 714 521 l 1
 840 521 l 1
 840 435 l 1
 699 435 l 1
 678 318 l 1
 840 318 l 1
 840 232 l 1
 663 232 l 1
 642 115 l 1
 840 115 l 1
 840 29 l 1
 627 29 l 1
 600 -126 l 1
EndSplineSet
EndChar

StartChar: sym059_uni0338
Encoding: 119 -1 119
Width: 979
Flags: W
HStem: 235 87<390.701 447 533 587.748> 529 20G<763.4 880.636>
VStem: 244 86<453 650> 447 86<-100 238.446 322 394 488 650> 649 86<375.233 429 524 650>
LayerCount: 2
Back
Fore
SplineSet
350 377 m 1
 371 349 407 330 447 322 c 1
 447 394 l 1
 350 377 l 1
649 429 m 1
 533 409 l 1
 533 322 l 1
 594 334 645 372 649 429 c 1
877 549 m 1
 891 472 l 1
 735 445 l 1
 735 436 l 2
 735 329 643 251 533 235 c 1
 533 -100 l 1
 447 -100 l 1
 447 235 l 1
 364 247 291 294 260 361 c 1
 102 333 l 1
 88 410 l 1
 244 437 l 1
 244 650 l 1
 330 650 l 1
 330 453 l 1
 447 473 l 1
 447 650 l 1
 533 650 l 1
 533 488 l 1
 649 509 l 1
 649 650 l 1
 735 650 l 1
 735 524 l 1
 877 549 l 1
EndSplineSet
EndChar

StartChar: uni21C90338
Encoding: 120 -1 120
Width: 930
Flags: W
HStem: 78 86<90 275 389 693> 386 86<90 387 501 693>
LayerCount: 2
Back
Fore
SplineSet
643 275 m 1
 613 305 l 1
 693 386 l 1
 470 386 l 1
 389 164 l 1
 693 164 l 1
 613 245 l 1
 643 275 l 1
477 633 m 1
 550 606 l 1
 501 472 l 1
 693 472 l 1
 613 553 l 1
 673 613 l 1
 858 429 l 1
 703 275 l 1
 858 121 l 1
 673 -63 l 1
 613 -3 l 1
 693 78 l 1
 358 78 l 1
 299 -83 l 1
 226 -56 l 1
 275 78 l 1
 90 78 l 1
 90 164 l 1
 306 164 l 1
 387 386 l 1
 90 386 l 1
 90 472 l 1
 418 472 l 1
 477 633 l 1
EndSplineSet
EndChar

StartChar: uni21C80338
Encoding: 121 -1 121
Width: 882
Flags: W
VStem: 244 86<-100 85 199 503> 552 86<-100 197 311 503>
LayerCount: 2
Back
Fore
SplineSet
441 453 m 1
 411 423 l 1
 330 503 l 1
 330 199 l 1
 552 280 l 1
 552 503 l 1
 471 423 l 1
 441 453 l 1
110 36 m 1
 83 109 l 1
 244 168 l 1
 244 503 l 1
 163 423 l 1
 103 483 l 1
 287 668 l 1
 441 513 l 1
 595 668 l 1
 779 483 l 1
 719 423 l 1
 638 503 l 1
 638 311 l 1
 772 360 l 1
 799 287 l 1
 638 228 l 1
 638 -100 l 1
 552 -100 l 1
 552 197 l 1
 330 116 l 1
 330 -100 l 1
 244 -100 l 1
 244 85 l 1
 110 36 l 1
EndSplineSet
EndChar

StartChar: uni21C70338
Encoding: 122 -1 122
Width: 930
Flags: W
HStem: 78 86<237 429 543 840> 386 86<237 541 655 840>
LayerCount: 2
Back
Fore
SplineSet
287 275 m 1
 317 245 l 1
 237 164 l 1
 460 164 l 1
 541 386 l 1
 237 386 l 1
 317 305 l 1
 287 275 l 1
453 -83 m 1
 380 -56 l 1
 429 78 l 1
 237 78 l 1
 317 -3 l 1
 257 -63 l 1
 72 121 l 1
 227 275 l 1
 72 429 l 1
 257 613 l 1
 317 553 l 1
 237 472 l 1
 572 472 l 1
 631 633 l 1
 704 606 l 1
 655 472 l 1
 840 472 l 1
 840 386 l 1
 624 386 l 1
 543 164 l 1
 840 164 l 1
 840 78 l 1
 512 78 l 1
 453 -83 l 1
EndSplineSet
EndChar

StartChar: uni21CA0338
Encoding: 123 -1 123
Width: 882
Flags: W
VStem: 244 86<47 239 353 650> 552 86<47 351 465 650>
LayerCount: 2
Back
Fore
SplineSet
441 97 m 1
 471 127 l 1
 552 47 l 1
 552 351 l 1
 330 270 l 1
 330 47 l 1
 411 127 l 1
 441 97 l 1
772 514 m 1
 799 441 l 1
 638 382 l 1
 638 47 l 1
 719 127 l 1
 779 67 l 1
 595 -118 l 1
 441 37 l 1
 287 -118 l 1
 103 67 l 1
 163 127 l 1
 244 47 l 1
 244 239 l 1
 110 190 l 1
 83 263 l 1
 244 322 l 1
 244 650 l 1
 330 650 l 1
 330 353 l 1
 552 434 l 1
 552 650 l 1
 638 650 l 1
 638 465 l 1
 772 514 l 1
EndSplineSet
EndChar

StartChar: sym05D_uni0338
Encoding: 124 -1 124
Width: 1207
Flags: W
HStem: 358 86<772 844> 576 86<511 626>
VStem: 686 86<444 514> 904 86<183 297>
LayerCount: 2
Back
Fore
SplineSet
729 401 m 1
 686 401 l 1
 686 514 l 1
 528 356 l 1
 628 142 l 1
 844 358 l 1
 729 358 l 1
 729 401 l 1
359 536 m 1
 429 569 l 1
 489 439 l 1
 626 576 l 1
 511 576 l 1
 511 662 l 1
 772 662 l 1
 772 444 l 1
 990 444 l 1
 990 183 l 1
 904 183 l 1
 904 297 l 1
 667 60 l 1
 739 -95 l 1
 669 -128 l 1
 608 2 l 1
 477 -129 l 1
 417 -69 l 1
 570 84 l 1
 470 298 l 1
 260 88 l 1
 199 149 l 1
 431 381 l 1
 359 536 l 1
EndSplineSet
EndChar

StartChar: sym05C_uni0338
Encoding: 125 -1 125
Width: 1207
Flags: W
HStem: 358 86<363 434> 576 86<581 695>
VStem: 217 86<183 296> 434 86<444 515>
LayerCount: 2
Back
Fore
SplineSet
477 401 m 1
 477 358 l 1
 363 358 l 1
 579 142 l 1
 679 356 l 1
 520 515 l 1
 520 401 l 1
 477 401 l 1
538 -128 m 1
 468 -95 l 1
 540 59 l 1
 303 296 l 1
 303 183 l 1
 217 183 l 1
 217 444 l 1
 434 444 l 1
 434 662 l 1
 695 662 l 1
 695 576 l 1
 581 576 l 1
 718 439 l 1
 778 569 l 1
 848 536 l 1
 776 381 l 1
 1008 149 l 1
 947 88 l 1
 737 298 l 1
 637 84 l 1
 790 -69 l 1
 729 -129 l 1
 598 1 l 1
 538 -128 l 1
EndSplineSet
EndChar

StartChar: sym05F_uni0338
Encoding: 126 -1 126
Width: 1207
Flags: W
HStem: -112 86<581 695> 106 86<363 434>
VStem: 217 86<254 367> 434 86<35 106>
LayerCount: 2
Back
Fore
SplineSet
477 149 m 1
 520 149 l 1
 520 35 l 1
 679 194 l 1
 579 408 l 1
 363 192 l 1
 477 192 l 1
 477 149 l 1
848 14 m 1
 778 -19 l 1
 718 111 l 1
 581 -26 l 1
 695 -26 l 1
 695 -112 l 1
 434 -112 l 1
 434 106 l 1
 217 106 l 1
 217 367 l 1
 303 367 l 1
 303 254 l 1
 540 491 l 1
 468 645 l 1
 538 678 l 1
 598 549 l 1
 729 679 l 1
 790 619 l 1
 637 466 l 1
 737 252 l 1
 947 462 l 1
 1008 401 l 1
 776 169 l 1
 848 14 l 1
EndSplineSet
EndChar

StartChar: sym05E_uni0338
Encoding: 127 -1 127
Width: 1207
Flags: W
HStem: -112 86<511 626> 106 86<772 844>
VStem: 686 86<36 106> 904 86<253 367>
LayerCount: 2
Back
Fore
SplineSet
729 149 m 1
 729 192 l 1
 844 192 l 1
 628 408 l 1
 528 194 l 1
 686 36 l 1
 686 149 l 1
 729 149 l 1
669 678 m 1
 739 645 l 1
 667 490 l 1
 904 253 l 1
 904 367 l 1
 990 367 l 1
 990 106 l 1
 772 106 l 1
 772 -112 l 1
 511 -112 l 1
 511 -26 l 1
 626 -26 l 1
 489 111 l 1
 429 -19 l 1
 359 14 l 1
 431 169 l 1
 199 401 l 1
 260 462 l 1
 470 252 l 1
 570 466 l 1
 417 619 l 1
 477 679 l 1
 608 548 l 1
 669 678 l 1
EndSplineSet
EndChar

StartChar: uni21C40338
Encoding: 128 -1 128
Width: 930
Flags: W
HStem: 78 86<237 391 485 840> 386 86<90 445 539 693>
LayerCount: 2
Back
Fore
SplineSet
488 628 m 1
 564 614 l 1
 539 472 l 1
 693 472 l 1
 613 553 l 1
 673 613 l 1
 858 429 l 1
 673 245 l 1
 613 305 l 1
 693 386 l 1
 524 386 l 1
 485 164 l 1
 840 164 l 1
 840 78 l 1
 470 78 l 1
 442 -78 l 1
 366 -64 l 1
 391 78 l 1
 237 78 l 1
 317 -3 l 1
 257 -63 l 1
 72 121 l 1
 257 305 l 1
 317 245 l 1
 237 164 l 1
 406 164 l 1
 445 386 l 1
 90 386 l 1
 90 472 l 1
 460 472 l 1
 488 628 l 1
EndSplineSet
EndChar

StartChar: uni21C50338
Encoding: 129 -1 129
Width: 882
Flags: W
VStem: 244 86<-100 162 276 503> 552 86<47 274 388 650>
LayerCount: 2
Back
Fore
SplineSet
110 113 m 1
 83 186 l 1
 244 245 l 1
 244 503 l 1
 163 423 l 1
 103 483 l 1
 287 668 l 1
 471 483 l 1
 411 423 l 1
 330 503 l 1
 330 276 l 1
 552 357 l 1
 552 650 l 1
 638 650 l 1
 638 388 l 1
 772 437 l 1
 799 364 l 1
 638 305 l 1
 638 47 l 1
 719 127 l 1
 779 67 l 1
 595 -118 l 1
 411 67 l 1
 471 127 l 1
 552 47 l 1
 552 274 l 1
 330 193 l 1
 330 -100 l 1
 244 -100 l 1
 244 162 l 1
 110 113 l 1
EndSplineSet
EndChar

StartChar: sym061_uni0338
Encoding: 130 -1 130
Width: 1207
Flags: W
HStem: -112 86<581 695> 576 86<511 626>
VStem: 434 86<35 149> 686 86<401 514>
LayerCount: 2
Back
Fore
SplineSet
370 541 m 1
 433 585 l 1
 516 466 l 1
 626 576 l 1
 511 576 l 1
 511 662 l 1
 772 662 l 1
 772 401 l 1
 686 401 l 1
 686 514 l 1
 567 395 l 1
 696 211 l 1
 947 462 l 1
 1008 401 l 1
 746 139 l 1
 837 9 l 1
 773 -35 l 1
 690 83 l 1
 581 -26 l 1
 695 -26 l 1
 695 -112 l 1
 434 -112 l 1
 434 149 l 1
 520 149 l 1
 520 35 l 1
 640 155 l 1
 511 339 l 1
 260 88 l 1
 199 149 l 1
 461 411 l 1
 370 541 l 1
EndSplineSet
EndChar

StartChar: sym060_uni0338
Encoding: 131 -1 131
Width: 1207
Flags: W
HStem: 106 86<729 844> 358 86<363 477>
VStem: 217 86<183 296> 904 86<253 367>
LayerCount: 2
Back
Fore
SplineSet
484 -73 m 1
 413 -41 l 1
 485 114 l 1
 303 296 l 1
 303 183 l 1
 217 183 l 1
 217 444 l 1
 477 444 l 1
 477 358 l 1
 363 358 l 1
 524 197 l 1
 624 412 l 1
 417 619 l 1
 477 679 l 1
 663 494 l 1
 723 623 l 1
 793 591 l 1
 721 436 l 1
 904 253 l 1
 904 367 l 1
 990 367 l 1
 990 106 l 1
 729 106 l 1
 729 192 l 1
 844 192 l 1
 682 354 l 1
 582 139 l 1
 790 -69 l 1
 729 -129 l 1
 544 56 l 1
 484 -73 l 1
EndSplineSet
EndChar

StartChar: uni21C60338
Encoding: 132 -1 132
Width: 930
Flags: W
HStem: 78 86<90 352 466 693> 386 86<237 464 578 840>
LayerCount: 2
Back
Fore
SplineSet
554 633 m 1
 627 606 l 1
 578 472 l 1
 840 472 l 1
 840 386 l 1
 547 386 l 1
 466 164 l 1
 693 164 l 1
 613 245 l 1
 673 305 l 1
 858 121 l 1
 673 -63 l 1
 613 -3 l 1
 693 78 l 1
 435 78 l 1
 376 -83 l 1
 303 -56 l 1
 352 78 l 1
 90 78 l 1
 90 164 l 1
 383 164 l 1
 464 386 l 1
 237 386 l 1
 317 305 l 1
 257 245 l 1
 72 429 l 1
 257 613 l 1
 317 553 l 1
 237 472 l 1
 495 472 l 1
 554 633 l 1
EndSplineSet
EndChar

StartChar: uni21F50338
Encoding: 133 -1 133
Width: 882
Flags: W
VStem: 244 86<47 201 295 650> 552 86<-100 255 349 503>
LayerCount: 2
Back
Fore
SplineSet
102 176 m 1
 88 252 l 1
 244 280 l 1
 244 650 l 1
 330 650 l 1
 330 295 l 1
 552 334 l 1
 552 503 l 1
 471 423 l 1
 411 483 l 1
 595 668 l 1
 779 483 l 1
 719 423 l 1
 638 503 l 1
 638 349 l 1
 780 374 l 1
 794 298 l 1
 638 270 l 1
 638 -100 l 1
 552 -100 l 1
 552 255 l 1
 330 216 l 1
 330 47 l 1
 411 127 l 1
 471 67 l 1
 287 -118 l 1
 103 67 l 1
 163 127 l 1
 244 47 l 1
 244 201 l 1
 102 176 l 1
EndSplineSet
EndChar

StartChar: sym063_uni0338
Encoding: 134 -1 134
Width: 1207
Flags: W
HStem: 106 86<363 477> 358 86<729 844>
VStem: 217 86<254 367> 904 86<183 297>
LayerCount: 2
Back
Fore
SplineSet
413 591 m 1
 484 623 l 1
 544 494 l 1
 729 679 l 1
 790 619 l 1
 582 411 l 1
 682 196 l 1
 844 358 l 1
 729 358 l 1
 729 444 l 1
 990 444 l 1
 990 183 l 1
 904 183 l 1
 904 297 l 1
 721 114 l 1
 793 -41 l 1
 723 -73 l 1
 663 56 l 1
 477 -129 l 1
 417 -69 l 1
 624 138 l 1
 524 353 l 1
 363 192 l 1
 477 192 l 1
 477 106 l 1
 217 106 l 1
 217 367 l 1
 303 367 l 1
 303 254 l 1
 485 436 l 1
 413 591 l 1
EndSplineSet
EndChar

StartChar: sym062_uni0338
Encoding: 135 -1 135
Width: 1207
Flags: W
HStem: -112 86<511 626> 576 86<581 695>
VStem: 434 86<401 515> 686 86<36 149>
LayerCount: 2
Back
Fore
SplineSet
433 -35 m 1
 370 9 l 1
 461 139 l 1
 199 401 l 1
 260 462 l 1
 511 211 l 1
 640 395 l 1
 520 515 l 1
 520 401 l 1
 434 401 l 1
 434 662 l 1
 695 662 l 1
 695 576 l 1
 581 576 l 1
 690 467 l 1
 773 585 l 1
 837 541 l 1
 746 411 l 1
 1008 149 l 1
 947 88 l 1
 696 339 l 1
 567 155 l 1
 686 36 l 1
 686 149 l 1
 772 149 l 1
 772 -112 l 1
 511 -112 l 1
 511 -26 l 1
 626 -26 l 1
 516 84 l 1
 433 -35 l 1
EndSplineSet
EndChar

StartChar: uni219D0338
Encoding: 136 57883 136
Width: 930
Flags: W
HStem: -6 21G<272.926 334.255> 155 86<455.948 539.957> 232 86<613.663 693> 309 86<228.357 326.03> 536 20G<441.7 503.074>
LayerCount: 2
Back
Fore
SplineSet
449 556 m 1xd8
 522 529 l 1
 434 288 l 1
 452 264 473 241 502 241 c 0xd8
 522 241 535 260 551 272 c 0
 582 293 617 318 649 318 c 2
 693 318 l 1
 613 399 l 1
 673 459 l 1
 858 275 l 1
 673 91 l 1
 613 151 l 1
 693 232 l 1
 649 232 l 2xa8
 644 232 617 213 600 201 c 0
 570 180 539 155 502 155 c 0
 464 155 430 172 401 198 c 1
 327 -6 l 1
 254 21 l 1
 344 267 l 1
 327 289 307 309 281 309 c 0
 228 309 199 256 168 212 c 1
 98 261 l 1
 144 328 201 395 281 395 c 0
 317 395 349 379 376 356 c 1
 449 556 l 1xd8
EndSplineSet
EndChar

StartChar: sym064_uni0338.alt
Encoding: 137 -1 137
Width: 728
Flags: W
VStem: 244 86<38.3565 136.03> 321 86<423.414 503> 398 86<265.948 349.957>
LayerCount: 2
Back
Fore
SplineSet
83 259 m 1xa0
 110 332 l 1
 351 244 l 1
 375 262 398 283 398 312 c 0xa0
 398 332 379 345 367 361 c 0
 346 391 321 427 321 459 c 2
 321 503 l 1
 240 423 l 1
 180 483 l 1
 364 668 l 1
 548 483 l 1
 488 423 l 1
 407 503 l 1
 407 459 l 2x40
 407 454 426 427 438 410 c 0
 459 380 484 349 484 312 c 0
 484 274 467 240 441 211 c 1
 645 137 l 1
 618 64 l 1
 372 154 l 1
 350 137 330 117 330 91 c 0
 330 38 383 9 427 -22 c 1
 378 -92 l 1
 311 -46 244 11 244 91 c 0
 244 127 260 159 283 186 c 1
 83 259 l 1xa0
EndSplineSet
EndChar

StartChar: uni219C0338.alt
Encoding: 138 -1 138
Width: 930
Flags: W
HStem: -6 21G<426.926 488.3> 155 86<603.97 701.643> 232 86<237 316.586> 309 86<390.043 474.052> 536 20G<595.745 657.074>
LayerCount: 2
Back
Fore
SplineSet
481 -6 m 1xd8
 408 21 l 1
 496 262 l 1
 478 286 457 309 428 309 c 0xd8
 408 309 395 290 379 278 c 0
 349 257 313 232 281 232 c 2
 237 232 l 1
 317 151 l 1
 257 91 l 1
 72 275 l 1
 257 459 l 1
 317 399 l 1
 237 318 l 1
 281 318 l 2xa8
 286 318 313 337 330 349 c 0
 360 370 391 395 428 395 c 0
 466 395 500 378 529 352 c 1
 603 556 l 1
 676 529 l 1
 586 283 l 1
 603 261 623 241 649 241 c 0
 702 241 731 294 762 338 c 1
 832 289 l 1
 786 222 729 155 649 155 c 0
 613 155 581 171 554 194 c 1
 481 -6 l 1xd8
EndSplineSet
EndChar

StartChar: sym065_uni0338
Encoding: 139 -1 139
Width: 728
Flags: W
VStem: 244 86<200.043 284.052> 321 86<47 126.586> 398 86<413.97 511.643>
LayerCount: 2
Back
Fore
SplineSet
645 291 m 1xa0
 618 218 l 1
 377 306 l 1
 353 288 330 267 330 238 c 0xa0
 330 218 349 205 361 189 c 0
 382 159 407 123 407 91 c 2
 407 47 l 1
 488 127 l 1
 548 67 l 1
 364 -118 l 1
 180 67 l 1
 240 127 l 1
 321 47 l 1
 321 91 l 2x40
 321 96 302 123 290 140 c 0
 269 170 244 201 244 238 c 0
 244 276 261 310 287 339 c 1
 83 413 l 1
 110 486 l 1
 356 396 l 1
 378 413 398 433 398 459 c 0
 398 512 345 541 301 572 c 1
 350 642 l 1
 417 596 484 539 484 459 c 0
 484 423 468 391 445 364 c 1
 645 291 l 1xa0
EndSplineSet
EndChar

StartChar: uni219D0338.alt
Encoding: 140 -1 140
Width: 930
Flags: W
HStem: -6 21G<272.926 334.333> 155 86<228.357 303.672> 232 86<613.663 693> 309 86<472.635 539.957> 536 20G<441.685 503.074>
LayerCount: 2
Back
Fore
SplineSet
449 556 m 1xd8
 522 529 l 1
 472 391 l 1
 482 393 492 395 502 395 c 0xd8
 539 395 570 370 600 349 c 0
 617 337 644 318 649 318 c 2
 693 318 l 1
 613 399 l 1
 673 459 l 1
 858 275 l 1
 673 91 l 1
 613 151 l 1
 693 232 l 1
 649 232 l 2xa8
 617 232 582 257 551 278 c 0
 535 290 522 309 502 309 c 0
 461 309 438 264 415 234 c 1
 327 -6 l 1
 254 21 l 1
 304 157 l 1
 297 156 289 155 281 155 c 0
 201 155 144 222 98 289 c 1
 168 338 l 1
 199 294 228 241 281 241 c 0
 314 241 335 271 355 299 c 1
 449 556 l 1xd8
EndSplineSet
EndChar

StartChar: sym064_uni0338
Encoding: 141 -1 141
Width: 728
Flags: W
VStem: 244 86<282.635 349.957> 321 86<423.414 503> 398 86<38.3565 113.672>
LayerCount: 2
Back
Fore
SplineSet
83 259 m 1xa0
 110 332 l 1
 248 282 l 1
 246 292 244 302 244 312 c 0xa0
 244 349 269 380 290 410 c 0
 302 427 321 454 321 459 c 2
 321 503 l 1
 240 423 l 1
 180 483 l 1
 364 668 l 1
 548 483 l 1
 488 423 l 1
 407 503 l 1
 407 459 l 2x40
 407 427 382 391 361 361 c 0
 349 345 330 332 330 312 c 0
 330 271 375 248 405 225 c 1
 645 137 l 1
 618 64 l 1
 482 114 l 1
 483 107 484 99 484 91 c 0
 484 11 417 -46 350 -92 c 1
 301 -22 l 1
 345 9 398 38 398 91 c 0
 398 124 368 145 340 165 c 1
 83 259 l 1xa0
EndSplineSet
EndChar

StartChar: uni219C0338
Encoding: 142 -1 142
Width: 930
Flags: W
HStem: -6 21G<426.926 488.315> 155 86<390.043 457.365> 232 86<237 316.586> 309 86<626.328 701.643> 536 20G<595.667 657.074>
LayerCount: 2
Back
Fore
SplineSet
481 -6 m 1xd8
 408 21 l 1
 458 159 l 1
 448 157 438 155 428 155 c 0xd8
 391 155 360 180 330 201 c 0
 313 213 286 232 281 232 c 2
 237 232 l 1
 317 151 l 1
 257 91 l 1
 72 275 l 1
 257 459 l 1
 317 399 l 1
 237 318 l 1
 281 318 l 2xa8
 313 318 349 293 379 272 c 0
 395 260 408 241 428 241 c 0
 469 241 492 286 515 316 c 1
 603 556 l 1
 676 529 l 1
 626 393 l 1
 633 394 641 395 649 395 c 0
 729 395 786 328 832 261 c 1
 762 212 l 1
 731 256 702 309 649 309 c 0
 616 309 595 279 575 251 c 1
 481 -6 l 1xd8
EndSplineSet
EndChar

StartChar: sym065_uni0338.alt
Encoding: 143 -1 143
Width: 728
Flags: W
VStem: 244 86<436.328 511.643> 321 86<47 126.586> 398 86<200.043 267.365>
LayerCount: 2
Back
Fore
SplineSet
645 291 m 1xa0
 618 218 l 1
 480 268 l 1
 482 258 484 248 484 238 c 0xa0
 484 201 459 170 438 140 c 0
 426 123 407 96 407 91 c 2
 407 47 l 1
 488 127 l 1
 548 67 l 1
 364 -118 l 1
 180 67 l 1
 240 127 l 1
 321 47 l 1
 321 91 l 2x40
 321 123 346 159 367 189 c 0
 379 205 398 218 398 238 c 0
 398 279 353 302 323 325 c 1
 83 413 l 1
 110 486 l 1
 246 436 l 1
 245 443 244 451 244 459 c 0
 244 539 311 596 378 642 c 1
 427 572 l 1
 383 541 330 512 330 459 c 0
 330 426 360 405 388 385 c 1
 645 291 l 1xa0
EndSplineSet
EndChar

StartChar: uni21AD0338
Encoding: 144 -1 144
Width: 1080
Flags: W
HStem: -6 21G<424.926 486.327> 155 86<604.918 687.149> 232 86<237 318.844 761.156 843> 309 86<391.02 475.082> 536 20G<593.673 655.074>
LayerCount: 2
Back
Fore
SplineSet
601 556 m 1x98
 674 529 l 1
 585 286 l 1
 602 263 623 241 651 241 c 0xd8
 656 241 684 260 700 272 c 0
 731 293 762 318 799 318 c 2
 843 318 l 1
 763 399 l 1
 823 459 l 1
 1008 275 l 1
 823 91 l 1
 763 151 l 1
 843 232 l 1
 799 232 l 2xa8
 779 232 766 213 750 201 c 0
 719 180 684 155 651 155 c 0
 614 155 581 172 553 196 c 1
 479 -6 l 1
 406 21 l 1
 495 264 l 1
 478 287 457 309 429 309 c 0xd8
 409 309 396 290 380 278 c 0
 349 257 318 232 281 232 c 2
 237 232 l 1
 317 151 l 1
 257 91 l 1
 72 275 l 1
 257 459 l 1
 317 399 l 1
 237 318 l 1
 281 318 l 2xa8
 301 318 314 337 330 349 c 0
 361 370 392 395 429 395 c 0
 466 395 499 378 527 354 c 1
 601 556 l 1x98
EndSplineSet
EndChar

StartChar: sym066_uni0338.alt
Encoding: 145 -1 145
Width: 728
Flags: W
VStem: 244 86<126.02 210.082> 321 86<-28 53.8444 496.156 578> 398 86<339.918 422.149>
LayerCount: 2
Back
Fore
SplineSet
83 336 m 1x80
 110 409 l 1
 353 320 l 1
 376 337 398 358 398 386 c 0xa0
 398 391 379 419 367 435 c 0
 346 466 321 497 321 534 c 2
 321 578 l 1
 240 498 l 1
 180 558 l 1
 364 743 l 1
 548 558 l 1
 488 498 l 1
 407 578 l 1
 407 534 l 2x40
 407 514 426 501 438 485 c 0
 459 454 484 419 484 386 c 0
 484 349 467 316 443 288 c 1
 645 214 l 1
 618 141 l 1
 375 230 l 1
 352 213 330 192 330 164 c 0xa0
 330 144 349 131 361 115 c 0
 382 84 407 53 407 16 c 2
 407 -28 l 1
 488 52 l 1
 548 -8 l 1
 364 -193 l 1
 180 -8 l 1
 240 52 l 1
 321 -28 l 1
 321 16 l 2x40
 321 36 302 49 290 65 c 0
 269 96 244 127 244 164 c 0
 244 201 261 234 285 262 c 1
 83 336 l 1x80
EndSplineSet
EndChar

StartChar: uni21AD0338.alt
Encoding: 146 -1 146
Width: 1080
Flags: W
HStem: -6 21G<424.926 486.258> 155 86<391.02 455.749> 232 86<237 318.844 761.156 843> 309 86<624.251 687.149> 536 20G<593.742 655.074>
LayerCount: 2
Back
Fore
SplineSet
601 556 m 1xc8
 674 529 l 1
 624 392 l 1
 633 394 642 395 651 395 c 0xd8
 684 395 719 370 750 349 c 0
 766 337 779 318 799 318 c 2
 843 318 l 1
 763 399 l 1
 823 459 l 1
 1008 275 l 1
 823 91 l 1
 763 151 l 1
 843 232 l 1
 799 232 l 2xa8
 762 232 731 257 700 278 c 0
 684 290 656 309 651 309 c 0
 614 309 590 271 569 242 c 1
 479 -6 l 1
 406 21 l 1
 456 158 l 1
 447 156 438 155 429 155 c 0xd8
 392 155 361 180 330 201 c 0
 314 213 301 232 281 232 c 2
 237 232 l 1
 317 151 l 1
 257 91 l 1
 72 275 l 1
 257 459 l 1
 317 399 l 1
 237 318 l 1
 281 318 l 2xa8
 318 318 349 293 380 272 c 0
 396 260 409 241 429 241 c 0
 466 241 490 279 511 308 c 1
 601 556 l 1xc8
EndSplineSet
EndChar

StartChar: sym066_uni0338
Encoding: 147 -1 147
Width: 728
Flags: W
VStem: 244 86<359.251 422.149> 321 86<-28 53.8444 496.156 578> 398 86<126.02 190.749>
LayerCount: 2
Back
Fore
SplineSet
83 336 m 1x20
 110 409 l 1
 247 359 l 1
 245 368 244 377 244 386 c 0xa0
 244 419 269 454 290 485 c 0
 302 501 321 514 321 534 c 2
 321 578 l 1
 240 498 l 1
 180 558 l 1
 364 743 l 1
 548 558 l 1
 488 498 l 1
 407 578 l 1
 407 534 l 2x40
 407 497 382 466 361 435 c 0
 349 419 330 391 330 386 c 0
 330 349 368 325 397 304 c 1
 645 214 l 1
 618 141 l 1
 481 191 l 1
 483 182 484 173 484 164 c 0xa0
 484 127 459 96 438 65 c 0
 426 49 407 36 407 16 c 2
 407 -28 l 1
 488 52 l 1
 548 -8 l 1
 364 -193 l 1
 180 -8 l 1
 240 52 l 1
 321 -28 l 1
 321 16 l 2x40
 321 53 346 84 367 115 c 0
 379 131 398 144 398 164 c 0
 398 201 360 225 331 246 c 1
 83 336 l 1x20
EndSplineSet
EndChar

StartChar: sym069_uni0338
Encoding: 148 -1 148
Width: 930
Flags: W
HStem: 295 85<520 553.531> 309 86<311.78 428.664>
LayerCount: 2
Back
Fore
SplineSet
416 395 m 0x40
 425 395 435 395 444 394 c 1
 474 566 l 1
 551 553 l 1
 520 380 l 1
 601 356 673 305 731 240 c 1
 740 342 l 1
 826 334 l 1
 803 74 l 1
 543 97 l 1
 551 183 l 1
 677 172 l 1
 630 228 572 273 505 295 c 1x80
 456 15 l 1
 379 28 l 1
 429 309 l 1
 425 309 420 309 416 309 c 0
 317 309 226 256 168 173 c 1
 98 223 l 1
 171 328 289 395 416 395 c 0x40
EndSplineSet
EndChar

StartChar: sym068_uni0338
Encoding: 149 -1 149
Width: 728
Flags: W
VStem: 244 86<121.78 238.664> 259 85<330 363.531>
LayerCount: 2
Back
Fore
SplineSet
244 226 m 0x80
 244 235 244 245 245 254 c 1
 73 284 l 1
 86 361 l 1
 259 330 l 1
 283 411 334 483 399 541 c 1
 297 550 l 1
 305 636 l 1
 565 613 l 1
 542 353 l 1
 456 361 l 1
 467 487 l 1
 411 440 366 382 344 315 c 1x40
 624 266 l 1
 611 189 l 1
 330 239 l 1
 330 235 330 230 330 226 c 0
 330 127 383 36 466 -22 c 1
 416 -92 l 1
 311 -19 244 99 244 226 c 0x80
EndSplineSet
EndChar

StartChar: sym067_uni0338
Encoding: 150 -1 150
Width: 930
Flags: W
HStem: 155 86<501.336 618.22> 170 85<376.469 410>
LayerCount: 2
Back
Fore
SplineSet
514 155 m 0x80
 505 155 495 155 486 156 c 1
 456 -16 l 1
 379 -3 l 1
 410 170 l 1
 329 194 257 245 199 310 c 1
 190 208 l 1
 104 216 l 1
 127 476 l 1
 387 453 l 1
 379 367 l 1
 253 378 l 1
 300 322 358 277 425 255 c 1x40
 474 535 l 1
 551 522 l 1
 501 241 l 1
 505 241 510 241 514 241 c 0
 613 241 704 294 762 377 c 1
 832 327 l 1
 759 222 641 155 514 155 c 0x80
EndSplineSet
EndChar

StartChar: uni29380338
Encoding: 151 -1 151
Width: 728
Flags: W
VStem: 384 85<186.469 220> 398 86<311.336 428.22>
LayerCount: 2
Back
Fore
SplineSet
484 324 m 0x40
 484 315 484 305 483 296 c 1
 655 266 l 1
 642 189 l 1
 469 220 l 1
 445 139 394 67 329 9 c 1
 431 0 l 1
 423 -86 l 1
 163 -63 l 1
 186 197 l 1
 272 189 l 1
 261 63 l 1
 317 110 362 168 384 235 c 1x80
 104 284 l 1
 117 361 l 1
 398 311 l 1
 398 315 398 320 398 324 c 0
 398 423 345 514 262 572 c 1
 312 642 l 1
 417 569 484 451 484 324 c 0x40
EndSplineSet
EndChar

StartChar: sym06C_uni0338
Encoding: 152 -1 152
Width: 1098
Flags: W
HStem: 354 85<596.471 762>
VStem: 320 86<-7.375 169.334>
LayerCount: 2
Back
Fore
SplineSet
320 52 m 0
 320 164 365 271 450 344 c 1
 350 488 l 1
 413 532 l 1
 514 388 l 1
 579 423 652 439 728 439 c 0
 739 439 750 439 762 438 c 1
 696 517 l 1
 762 572 l 1
 930 372 l 1
 730 204 l 1
 675 270 l 1
 772 352 l 1
 756 354 741 354 725 354 c 0
 668 354 612 343 563 318 c 1
 726 84 l 1
 663 40 l 1
 499 274 l 1
 437 216 406 136 406 52 c 0
 406 32 408 13 411 -7 c 1
 326 -22 l 1
 322 3 320 27 320 52 c 0
EndSplineSet
EndChar

StartChar: sym06B_uni0338
Encoding: 153 -1 153
Width: 1098
Flags: W
HStem: 46 86<654.666 831.375>
VStem: 385 85<322.819 488>
LayerCount: 2
Back
Fore
SplineSet
772 46 m 0
 660 46 553 91 480 176 c 1
 336 76 l 1
 292 139 l 1
 436 240 l 1
 401 305 385 379 385 454 c 0
 385 465 385 476 386 488 c 1
 307 422 l 1
 252 488 l 1
 452 656 l 1
 619 456 l 1
 554 401 l 1
 472 498 l 1
 470 482 470 466 470 451 c 0
 470 394 481 339 506 289 c 1
 740 453 l 1
 784 389 l 1
 550 225 l 1
 608 163 688 132 772 132 c 0
 792 132 811 134 831 137 c 1
 846 52 l 1
 821 48 797 46 772 46 c 0
EndSplineSet
EndChar

StartChar: uni29360338
Encoding: 154 -1 154
Width: 1098
Flags: W
HStem: 111 85<336 501.382>
VStem: 692 86<383.008 557.375>
LayerCount: 2
Back
Fore
SplineSet
778 498 m 0
 778 386 733 278 648 206 c 1
 748 62 l 1
 685 18 l 1
 584 162 l 1
 519 127 445 111 370 111 c 0
 359 111 347 111 336 112 c 1
 402 33 l 1
 336 -22 l 1
 168 178 l 1
 368 346 l 1
 423 280 l 1
 326 198 l 1
 342 196 358 196 373 196 c 0
 430 196 486 207 535 232 c 1
 371 466 l 1
 435 510 l 1
 598 276 l 1
 661 334 692 414 692 498 c 0
 692 517 690 538 687 557 c 1
 772 572 l 1
 776 547 778 523 778 498 c 0
EndSplineSet
EndChar

StartChar: uni29350338
Encoding: 155 -1 155
Width: 1098
Flags: W
HStem: 418 86<266.625 443.516>
VStem: 628 85<62 227.12>
LayerCount: 2
Back
Fore
SplineSet
326 504 m 0
 438 504 545 458 618 374 c 1
 761 474 l 1
 806 411 l 1
 662 310 l 1
 697 245 713 171 713 96 c 0
 713 85 713 74 712 62 c 1
 791 128 l 1
 846 62 l 1
 646 -106 l 1
 478 94 l 1
 544 149 l 1
 626 52 l 1
 628 67 628 83 628 98 c 0
 628 155 617 211 592 261 c 1
 358 97 l 1
 314 161 l 1
 548 325 l 1
 491 387 410 418 326 418 c 0
 306 418 287 416 267 413 c 1
 252 498 l 1
 277 502 301 504 326 504 c 0
EndSplineSet
EndChar

StartChar: uni293B0338
Encoding: 156 -1 156
Width: 930
Flags: W
HStem: 155 86<311.78 430.506>
LayerCount: 2
Back
Fore
SplineSet
461 157 m 1
 446 155 432 155 416 155 c 0
 289 155 171 222 98 327 c 1
 168 377 l 1
 226 294 317 241 416 241 c 0
 421 241 426 241 431 241 c 1
 331 514 l 1
 404 540 l 1
 508 256 l 1
 574 278 631 322 677 378 c 1
 551 367 l 1
 543 453 l 1
 803 476 l 1
 826 216 l 1
 740 208 l 1
 731 310 l 1
 677 249 612 201 537 175 c 1
 599 5 l 1
 526 -21 l 1
 461 157 l 1
EndSplineSet
EndChar

StartChar: sym06A_uni0338
Encoding: 157 -1 157
Width: 728
Flags: W
VStem: 398 86<121.78 240.506>
LayerCount: 2
Back
Fore
SplineSet
482 271 m 1
 484 256 484 242 484 226 c 0
 484 99 417 -19 312 -92 c 1
 262 -22 l 1
 345 36 398 127 398 226 c 0
 398 231 398 236 398 241 c 1
 125 141 l 1
 99 214 l 1
 383 318 l 1
 361 384 317 441 261 487 c 1
 272 361 l 1
 186 353 l 1
 163 613 l 1
 423 636 l 1
 431 550 l 1
 329 541 l 1
 390 487 438 422 464 347 c 1
 634 409 l 1
 660 336 l 1
 482 271 l 1
EndSplineSet
EndChar

StartChar: uni293A0338
Encoding: 158 -1 158
Width: 930
Flags: W
HStem: 309 86<499.494 618.22>
LayerCount: 2
Back
Fore
SplineSet
469 393 m 1
 484 395 498 395 514 395 c 0
 641 395 759 328 832 223 c 1
 762 173 l 1
 704 256 613 309 514 309 c 0
 509 309 504 309 499 309 c 1
 599 36 l 1
 526 10 l 1
 422 294 l 1
 356 272 299 228 253 172 c 1
 379 183 l 1
 387 97 l 1
 127 74 l 1
 104 334 l 1
 190 342 l 1
 199 240 l 1
 253 301 318 349 393 375 c 1
 331 545 l 1
 404 571 l 1
 469 393 l 1
EndSplineSet
EndChar

StartChar: uni29390338
Encoding: 159 -1 159
Width: 728
Flags: W
VStem: 244 86<309.494 428.22>
LayerCount: 2
Back
Fore
SplineSet
246 279 m 1
 244 294 244 308 244 324 c 0
 244 451 311 569 416 642 c 1
 466 572 l 1
 383 514 330 423 330 324 c 0
 330 319 330 314 330 309 c 1
 603 409 l 1
 629 336 l 1
 345 232 l 1
 367 166 411 109 467 63 c 1
 456 189 l 1
 542 197 l 1
 565 -63 l 1
 305 -86 l 1
 297 0 l 1
 399 9 l 1
 338 63 290 128 264 203 c 1
 94 141 l 1
 68 214 l 1
 246 279 l 1
EndSplineSet
EndChar

StartChar: uni29340338
Encoding: 160 -1 160
Width: 1098
Flags: W
HStem: 46 86<266.625 440.184>
VStem: 628 85<322.456 488>
LayerCount: 2
Back
Fore
SplineSet
629 189 m 1
 558 99 445 46 326 46 c 0
 301 46 277 48 252 52 c 1
 267 137 l 1
 287 134 306 132 326 132 c 0
 410 132 492 164 549 227 c 1
 286 349 l 1
 318 419 l 1
 593 291 l 1
 618 340 628 396 628 452 c 0
 628 467 628 483 626 498 c 1
 544 401 l 1
 478 456 l 1
 646 656 l 1
 846 488 l 1
 791 422 l 1
 712 488 l 1
 713 476 713 465 713 454 c 0
 713 384 700 316 670 255 c 1
 834 179 l 1
 801 109 l 1
 629 189 l 1
EndSplineSet
EndChar

StartChar: sym06D_uni0338
Encoding: 161 -1 161
Width: 1098
Flags: W
HStem: 354 85<336 500.674>
VStem: 692 86<-7.375 166.009>
LayerCount: 2
Back
Fore
SplineSet
635 355 m 1
 725 284 778 171 778 52 c 0
 778 27 776 3 772 -22 c 1
 687 -7 l 1
 690 12 692 33 692 52 c 0
 692 136 660 217 597 275 c 1
 475 12 l 1
 404 44 l 1
 532 319 l 1
 483 343 429 354 373 354 c 0
 358 354 342 354 326 352 c 1
 423 270 l 1
 368 204 l 1
 168 372 l 1
 336 572 l 1
 402 517 l 1
 336 438 l 1
 347 439 359 439 370 439 c 0
 439 439 507 426 568 396 c 1
 645 560 l 1
 715 527 l 1
 635 355 l 1
EndSplineSet
EndChar

StartChar: sym06E_uni0338
Encoding: 162 -1 162
Width: 1098
Flags: W
HStem: 418 86<656.196 831.375>
VStem: 385 85<62 227.597>
LayerCount: 2
Back
Fore
SplineSet
469 361 m 1
 540 451 653 504 772 504 c 0
 797 504 821 502 846 498 c 1
 831 413 l 1
 811 416 792 418 772 418 c 0
 688 418 607 387 549 324 c 1
 812 201 l 1
 780 131 l 1
 505 259 l 1
 481 210 470 155 470 99 c 0
 470 84 470 68 472 52 c 1
 554 149 l 1
 619 94 l 1
 452 -106 l 1
 252 62 l 1
 307 128 l 1
 386 62 l 1
 385 74 385 85 385 96 c 0
 385 166 398 234 428 295 c 1
 264 371 l 1
 297 441 l 1
 469 361 l 1
EndSplineSet
EndChar

StartChar: uni29370338
Encoding: 163 -1 163
Width: 1098
Flags: W
HStem: -10 21G<410.576 462.268> 111 85<596.403 762>
VStem: 320 86<382.196 557.375>
LayerCount: 2
Back
Fore
SplineSet
463 195 m 1
 373 266 320 379 320 498 c 0
 320 523 322 547 326 572 c 1
 411 557 l 1
 408 537 406 518 406 498 c 0
 406 414 437 333 500 275 c 1
 623 538 l 1
 693 506 l 1
 565 231 l 1
 614 207 669 196 725 196 c 0
 741 196 756 196 772 198 c 1
 675 280 l 1
 730 346 l 1
 930 178 l 1
 762 -22 l 1
 696 33 l 1
 762 112 l 1
 750 111 739 111 728 111 c 0
 658 111 590 124 529 154 c 1
 453 -10 l 1
 383 23 l 1
 463 195 l 1
EndSplineSet
EndChar

StartChar: sym06F_uni0338
Encoding: 164 -1 164
Width: 1080
Flags: W
HStem: 307 85<422.37 499 593 662.293>
LayerCount: 2
Back
Fore
SplineSet
549 589 m 1
 626 576 l 1
 593 392 l 1
 701 378 799 320 873 239 c 1
 882 342 l 1
 968 334 l 1
 945 74 l 1
 686 97 l 1
 693 183 l 1
 818 172 l 1
 756 244 672 296 578 307 c 1
 531 38 l 1
 454 51 l 1
 499 306 l 1
 406 294 324 244 262 172 c 1
 387 183 l 1
 394 97 l 1
 135 74 l 1
 112 334 l 1
 198 342 l 1
 207 239 l 1
 288 327 395 387 515 394 c 1
 549 589 l 1
EndSplineSet
EndChar

StartChar: sym070_uni0338
Encoding: 165 -1 165
Width: 728
Flags: W
VStem: 247 85<152.707 222 316 392.63>
LayerCount: 2
Back
Fore
SplineSet
63 189 m 1
 50 266 l 1
 245 300 l 1
 252 420 312 527 400 608 c 1
 297 617 l 1
 305 703 l 1
 565 680 l 1
 542 421 l 1
 456 428 l 1
 467 553 l 1
 395 491 345 409 333 316 c 1
 588 361 l 1
 601 284 l 1
 332 237 l 1
 343 143 395 59 467 -3 c 1
 456 122 l 1
 542 129 l 1
 565 -130 l 1
 305 -153 l 1
 297 -67 l 1
 400 -58 l 1
 319 16 261 114 247 222 c 1
 63 189 l 1
EndSplineSet
EndChar

StartChar: sym071_uni0338
Encoding: 166 -1 166
Width: 1080
Flags: W
HStem: 158 85<417.707 487 581 657.63>
LayerCount: 2
Back
Fore
SplineSet
531 -39 m 1
 454 -26 l 1
 487 158 l 1
 379 172 281 230 207 311 c 1
 198 208 l 1
 112 216 l 1
 135 476 l 1
 394 453 l 1
 387 367 l 1
 262 378 l 1
 324 306 408 254 502 243 c 1
 549 512 l 1
 626 499 l 1
 581 244 l 1
 674 256 756 306 818 378 c 1
 693 367 l 1
 686 453 l 1
 945 476 l 1
 968 216 l 1
 882 208 l 1
 873 311 l 1
 792 223 685 163 565 156 c 1
 531 -39 l 1
EndSplineSet
EndChar

StartChar: sym072_uni0338
Encoding: 167 -1 167
Width: 728
Flags: W
VStem: 395 88<152.124 234 328 397.293>
LayerCount: 2
Back
Fore
SplineSet
665 361 m 1
 678 284 l 1
 483 250 l 1
 476 130 416 23 328 -58 c 1
 431 -67 l 1
 423 -153 l 1
 163 -130 l 1
 186 129 l 1
 272 122 l 1
 261 -3 l 1
 333 59 383 141 395 234 c 1
 140 189 l 1
 127 266 l 1
 396 313 l 1
 385 407 333 491 261 553 c 1
 272 428 l 1
 186 421 l 1
 163 680 l 1
 423 703 l 1
 431 617 l 1
 328 608 l 1
 409 534 467 436 481 328 c 1
 665 361 l 1
EndSplineSet
EndChar

StartChar: sym074_uni0338
Encoding: 168 -1 168
Width: 1204
Flags: W
HStem: 400 86<708.464 862.526> 528 20G<420.909 463.987>
VStem: 391 86<14.4741 171.088>
LayerCount: 2
Back
Fore
SplineSet
386 504 m 1
 450 548 l 1
 557 395 l 1
 637 457 736 486 838 486 c 0
 846 486 855 485 863 485 c 1
 797 564 l 1
 863 620 l 1
 1030 420 l 1
 831 252 l 1
 775 318 l 1
 872 399 l 1
 861 400 849 400 838 400 c 0
 754 400 673 376 607 324 c 1
 763 101 l 1
 700 56 l 1
 551 268 l 1
 500 203 477 122 477 39 c 0
 477 28 477 16 478 5 c 1
 559 102 l 1
 625 46 l 1
 457 -153 l 1
 257 14 l 1
 313 80 l 1
 392 14 l 1
 392 22 391 31 391 39 c 0
 391 150 426 258 500 342 c 1
 386 504 l 1
EndSplineSet
EndChar

StartChar: sym073_uni0338
Encoding: 169 -1 169
Width: 1204
Flags: W
HStem: 64 86<708.464 862.526>
VStem: 391 86<378.912 535.526>
LayerCount: 2
Back
Fore
SplineSet
450 2 m 1
 386 46 l 1
 500 208 l 1
 426 292 391 400 391 511 c 0
 391 519 392 528 392 536 c 1
 313 470 l 1
 257 536 l 1
 457 703 l 1
 625 504 l 1
 559 448 l 1
 478 545 l 1
 477 534 477 522 477 511 c 0
 477 428 500 347 551 282 c 1
 700 494 l 1
 763 449 l 1
 607 226 l 1
 673 174 754 150 838 150 c 0
 849 150 861 150 872 151 c 1
 775 232 l 1
 831 298 l 1
 1030 130 l 1
 863 -70 l 1
 797 -14 l 1
 863 65 l 1
 855 65 846 64 838 64 c 0
 736 64 637 93 557 155 c 1
 450 2 l 1
EndSplineSet
EndChar

StartChar: sym076_uni0338
Encoding: 170 -1 170
Width: 1204
Flags: W
HStem: 64 86<341.474 495.536>
VStem: 727 86<378.912 535.526>
LayerCount: 2
Back
Fore
SplineSet
818 46 m 1
 754 2 l 1
 647 155 l 1
 567 93 468 64 366 64 c 0
 358 64 349 65 341 65 c 1
 407 -14 l 1
 341 -70 l 1
 173 130 l 1
 373 298 l 1
 429 232 l 1
 332 151 l 1
 343 150 355 150 366 150 c 0
 450 150 531 174 597 226 c 1
 441 449 l 1
 504 494 l 1
 653 282 l 1
 704 347 727 428 727 511 c 0
 727 522 727 534 726 545 c 1
 645 448 l 1
 579 504 l 1
 747 703 l 1
 947 536 l 1
 891 470 l 1
 812 536 l 1
 812 528 813 519 813 511 c 0
 813 400 778 292 704 208 c 1
 818 46 l 1
EndSplineSet
EndChar

StartChar: sym075_uni0338
Encoding: 171 -1 171
Width: 1204
Flags: W
HStem: 400 86<341.474 495.536> 528 20G<740.013 783.091>
VStem: 727 86<14.4741 171.088>
LayerCount: 2
Back
Fore
SplineSet
754 548 m 1
 818 504 l 1
 704 342 l 1
 778 258 813 150 813 39 c 0
 813 31 812 22 812 14 c 1
 891 80 l 1
 947 14 l 1
 747 -153 l 1
 579 46 l 1
 645 102 l 1
 726 5 l 1
 727 16 727 28 727 39 c 0
 727 122 704 203 653 268 c 1
 504 56 l 1
 441 101 l 1
 597 324 l 1
 531 376 450 400 366 400 c 0
 355 400 343 400 332 399 c 1
 429 318 l 1
 373 252 l 1
 173 420 l 1
 341 620 l 1
 407 564 l 1
 341 485 l 1
 349 485 358 486 366 486 c 0
 468 486 567 457 647 395 c 1
 754 548 l 1
EndSplineSet
EndChar

StartChar: sym077_uni0338
Encoding: 172 -1 172
Width: 930
Flags: W
HStem: -6 21G<349.926 411.311> 232 86<176 408 522 840> 536 20G<518.689 580.074>
VStem: 90 86<78 232 318 472>
LayerCount: 2
Back
Fore
SplineSet
526 556 m 1
 599 529 l 1
 522 318 l 1
 840 318 l 1
 840 232 l 1
 491 232 l 1
 404 -6 l 1
 331 21 l 1
 408 232 l 1
 176 232 l 1
 176 78 l 1
 90 78 l 1
 90 472 l 1
 176 472 l 1
 176 318 l 1
 439 318 l 1
 526 556 l 1
EndSplineSet
EndChar

StartChar: sym078_uni0338
Encoding: 173 -1 173
Width: 930
Flags: W
HStem: -6 21G<349.926 411.311> 232 86<90 408 522 754> 536 20G<518.689 580.074>
VStem: 754 86<78 232 318 472>
LayerCount: 2
Back
Fore
SplineSet
404 -6 m 1
 331 21 l 1
 408 232 l 1
 90 232 l 1
 90 318 l 1
 439 318 l 1
 526 556 l 1
 599 529 l 1
 522 318 l 1
 754 318 l 1
 754 472 l 1
 840 472 l 1
 840 78 l 1
 754 78 l 1
 754 232 l 1
 491 232 l 1
 404 -6 l 1
EndSplineSet
EndChar

StartChar: sym079_uni0338
Encoding: 174 -1 174
Width: 1260
Flags: W
HStem: -205 86<600 758.509> -190 85<467.296 509> 655 85<751 792.704> 669 86<501.491 660>
VStem: 150 86<146.491 403.509> 1018 85<356.765 419.423>
LayerCount: 2
Back
Fore
SplineSet
524 -105 m 1x5c
 660 668 l 1
 650 669 640 669 630 669 c 0
 525 669 425 628 351 554 c 0
 277 480 236 380 236 275 c 0
 236 170 277 70 351 -4 c 0
 399 -52 459 -87 524 -105 c 1x5c
687 822 m 1
 763 808 l 1
 751 740 l 1
 833 719 909 676 970 615 c 0
 1039 545 1086 455 1103 358 c 1
 1018 343 l 1
 1004 423 966 497 909 554 c 0
 861 602 801 637 736 655 c 1
 600 -118 l 1
 610 -119 620 -119 630 -119 c 0
 735 -119 835 -78 909 -4 c 0
 947 34 976 80 996 130 c 1
 871 84 l 1
 841 165 l 1
 1086 254 l 1
 1176 9 l 1
 1095 -20 l 1
 1063 67 l 1
 1040 18 1008 -26 970 -65 c 0
 880 -155 757 -205 630 -205 c 0xac
 615 -205 600 -204 585 -203 c 1
 573 -272 l 1
 497 -258 l 1
 509 -190 l 1
 427 -169 351 -126 290 -65 c 0
 200 25 150 148 150 275 c 0
 150 402 200 525 290 615 c 0
 380 705 503 755 630 755 c 0
 645 755 660 754 675 753 c 1
 687 822 l 1
EndSplineSet
EndChar

StartChar: uni21BA0338
Encoding: 175 -1 175
Width: 1260
Flags: W
HStem: -205 86<501.783 758.509> 663 85<485.577 548.235>
VStem: 150 86<146.952 403.392> 1024 86<146.491 403.048>
LayerCount: 2
Back
Fore
SplineSet
956 498 m 1
 354 -7 l 1
 428 -79 526 -119 630 -119 c 0
 735 -119 835 -78 909 -4 c 0
 983 70 1024 170 1024 275 c 0
 1024 355 1000 433 956 498 c 1
838 708 m 1
 888 684 933 653 972 613 c 1
 1060 686 l 1
 1110 627 l 1
 1022 553 l 1
 1079 472 1110 375 1110 275 c 0
 1110 148 1060 25 970 -65 c 0
 880 -155 757 -205 630 -205 c 0
 502 -205 378 -154 288 -63 c 1
 200 -136 l 1
 150 -77 l 1
 238 -3 l 1
 181 78 150 175 150 275 c 0
 150 402 200 524 290 615 c 0
 360 684 450 731 547 748 c 1
 562 663 l 1
 482 649 408 611 351 554 c 0
 277 480 236 380 236 275 c 0
 236 195 260 117 304 52 c 1
 906 557 l 1
 868 594 824 622 775 641 c 1
 821 516 l 1
 740 486 l 1
 651 731 l 1
 896 821 l 1
 925 740 l 1
 838 708 l 1
EndSplineSet
EndChar

StartChar: uni27F20338
Encoding: 176 -1 176
Width: 1260
Flags: W
HStem: -205 86<600 758.509> -190 85<467.37 509> 655 85<751 792.704> 669 86<501.608 660>
VStem: 157 85<130.577 193.235> 1024 86<146.491 403.509>
LayerCount: 2
Back
Fore
SplineSet
736 655 m 1xac
 600 -118 l 1
 610 -119 620 -119 630 -119 c 0
 735 -119 835 -78 909 -4 c 0
 983 70 1024 170 1024 275 c 0
 1024 380 983 480 909 554 c 0
 861 602 801 637 736 655 c 1xac
687 822 m 1
 763 808 l 1
 751 740 l 1
 833 719 909 676 970 615 c 0
 1060 525 1110 402 1110 275 c 0
 1110 148 1060 25 970 -65 c 0
 880 -155 757 -205 630 -205 c 0xac
 615 -205 600 -204 585 -203 c 1
 573 -272 l 1
 497 -258 l 1
 509 -190 l 1
 427 -169 352 -126 290 -65 c 0
 221 5 174 95 157 192 c 1
 242 207 l 1
 256 127 294 53 351 -4 c 0
 399 -52 459 -87 524 -105 c 1
 660 668 l 1
 650 669 640 669 630 669 c 0
 525 669 425 628 351 554 c 0
 313 516 284 470 264 420 c 1
 389 466 l 1
 419 385 l 1
 174 296 l 1
 84 541 l 1
 165 570 l 1
 197 483 l 1
 220 532 252 576 290 615 c 0
 381 705 503 755 630 755 c 0x5c
 645 755 660 754 675 753 c 1
 687 822 l 1
EndSplineSet
EndChar

StartChar: sym07C_uni0338
Encoding: 177 -1 177
Width: 1260
Flags: W
HStem: -198 85<711.765 774.423> 669 86<501.491 758.217>
VStem: 150 86<146.952 403.509> 1024 86<146.608 403.048>
LayerCount: 2
Back
Fore
SplineSet
304 52 m 1
 906 557 l 1
 832 629 734 669 630 669 c 0
 525 669 425 628 351 554 c 0
 277 480 236 380 236 275 c 0
 236 195 260 117 304 52 c 1
630 755 m 0
 758 755 882 704 972 613 c 1
 1060 686 l 1
 1110 627 l 1
 1022 553 l 1
 1079 472 1110 375 1110 275 c 0
 1110 148 1060 26 970 -65 c 0
 900 -134 810 -181 713 -198 c 1
 698 -113 l 1
 778 -99 852 -61 909 -4 c 0
 983 70 1024 170 1024 275 c 0
 1024 355 1000 433 956 498 c 1
 354 -7 l 1
 392 -44 436 -72 485 -91 c 1
 439 34 l 1
 520 64 l 1
 609 -181 l 1
 364 -271 l 1
 335 -190 l 1
 422 -158 l 1
 372 -134 327 -103 288 -63 c 1
 200 -136 l 1
 150 -77 l 1
 238 -3 l 1
 181 78 150 175 150 275 c 0
 150 402 200 525 290 615 c 0
 380 705 503 755 630 755 c 0
EndSplineSet
EndChar

StartChar: uni27F30338
Encoding: 178 -1 178
Width: 1260
Flags: W
HStem: -205 86<600 758.509> -190 85<467.296 509> 655 85<751 792.704> 669 86<501.491 660>
VStem: 150 86<146.491 403.509> 1018 85<130.577 193.235>
LayerCount: 2
Back
Fore
SplineSet
524 -105 m 1x5c
 660 668 l 1
 650 669 640 669 630 669 c 0
 525 669 425 628 351 554 c 0
 277 480 236 380 236 275 c 0
 236 170 277 70 351 -4 c 0
 399 -52 459 -87 524 -105 c 1x5c
687 822 m 1
 763 808 l 1
 751 740 l 1
 833 719 909 676 970 615 c 0
 1008 576 1040 532 1063 483 c 1
 1095 570 l 1
 1176 541 l 1
 1086 296 l 1
 841 385 l 1
 871 466 l 1
 996 420 l 1
 952 532 855 622 736 655 c 1
 600 -118 l 1
 610 -119 620 -119 630 -119 c 0
 735 -119 835 -78 909 -4 c 0
 966 53 1004 127 1018 207 c 1
 1103 192 l 1
 1086 95 1039 5 970 -65 c 0
 880 -155 757 -205 630 -205 c 0xac
 615 -205 600 -204 585 -203 c 1
 573 -272 l 1
 497 -258 l 1
 509 -190 l 1
 427 -169 351 -126 290 -65 c 0
 200 25 150 148 150 275 c 0
 150 402 200 525 290 615 c 0
 380 705 503 755 630 755 c 0
 645 755 660 754 675 753 c 1
 687 822 l 1
EndSplineSet
EndChar

StartChar: uni21BB0338
Encoding: 179 -1 179
Width: 1260
Flags: W
HStem: -205 86<501.783 758.509> 663 85<711.765 771.447>
VStem: 150 86<146.952 403.392> 1024 86<146.491 403.048>
LayerCount: 2
Back
Fore
SplineSet
956 498 m 1
 354 -7 l 1
 428 -79 526 -119 630 -119 c 0
 735 -119 835 -78 909 -4 c 0
 983 70 1024 170 1024 275 c 0
 1024 355 1000 433 956 498 c 1
713 748 m 1
 810 731 903 684 972 613 c 1
 1060 686 l 1
 1110 627 l 1
 1022 553 l 1
 1079 472 1110 375 1110 275 c 0
 1110 148 1060 25 970 -65 c 0
 880 -155 757 -205 630 -205 c 0
 502 -205 378 -154 288 -63 c 1
 200 -136 l 1
 150 -77 l 1
 238 -3 l 1
 181 78 150 175 150 275 c 0
 150 402 200 524 290 615 c 0
 329 653 373 685 422 708 c 1
 335 740 l 1
 364 821 l 1
 609 731 l 1
 520 486 l 1
 439 516 l 1
 485 641 l 1
 435 621 389 592 351 554 c 0
 277 480 236 380 236 275 c 0
 236 195 260 117 304 52 c 1
 906 557 l 1
 849 612 777 649 698 663 c 1
 713 748 l 1
EndSplineSet
EndChar

StartChar: sym07A_uni0338
Encoding: 180 -1 180
Width: 1260
Flags: W
HStem: -205 86<600 758.509> -190 85<467.37 509> 655 85<751 792.704> 669 86<501.608 660>
VStem: 157 85<356.765 419.423> 1024 86<146.491 403.509>
LayerCount: 2
Back
Fore
SplineSet
736 655 m 1xac
 600 -118 l 1
 610 -119 620 -119 630 -119 c 0
 735 -119 835 -78 909 -4 c 0
 983 70 1024 170 1024 275 c 0
 1024 380 983 480 909 554 c 0
 861 602 801 637 736 655 c 1xac
687 822 m 1
 763 808 l 1
 751 740 l 1
 833 719 909 676 970 615 c 0
 1060 525 1110 402 1110 275 c 0
 1110 148 1060 25 970 -65 c 0
 880 -155 757 -205 630 -205 c 0xac
 615 -205 600 -204 585 -203 c 1
 573 -272 l 1
 497 -258 l 1
 509 -190 l 1
 427 -169 352 -126 290 -65 c 0
 252 -26 220 18 197 67 c 1
 165 -20 l 1
 84 9 l 1
 174 254 l 1
 419 165 l 1
 389 84 l 1
 264 130 l 1
 308 18 405 -72 524 -105 c 1
 660 668 l 1
 650 669 640 669 630 669 c 0
 525 669 425 628 351 554 c 0
 294 497 256 423 242 343 c 1
 157 358 l 1
 174 455 221 545 290 615 c 0
 381 705 503 755 630 755 c 0x5c
 645 755 660 754 675 753 c 1
 687 822 l 1
EndSplineSet
EndChar

StartChar: sym07B_uni0338
Encoding: 181 -1 181
Width: 1260
Flags: W
HStem: -198 85<488.553 548.235> 669 86<501.491 758.217>
VStem: 150 86<146.952 403.509> 1024 86<146.608 403.048>
LayerCount: 2
Back
Fore
SplineSet
304 52 m 1
 906 557 l 1
 832 629 734 669 630 669 c 0
 525 669 425 628 351 554 c 0
 277 480 236 380 236 275 c 0
 236 195 260 117 304 52 c 1
630 755 m 0
 758 755 882 704 972 613 c 1
 1060 686 l 1
 1110 627 l 1
 1022 553 l 1
 1079 472 1110 375 1110 275 c 0
 1110 148 1060 26 970 -65 c 0
 931 -103 887 -135 838 -158 c 1
 925 -190 l 1
 896 -271 l 1
 651 -181 l 1
 740 64 l 1
 821 34 l 1
 775 -91 l 1
 825 -71 871 -42 909 -4 c 0
 983 70 1024 170 1024 275 c 0
 1024 355 1000 433 956 498 c 1
 354 -7 l 1
 411 -62 483 -99 562 -113 c 1
 547 -198 l 1
 450 -181 357 -134 288 -63 c 1
 200 -136 l 1
 150 -77 l 1
 238 -3 l 1
 181 78 150 175 150 275 c 0
 150 402 200 525 290 615 c 0
 380 705 503 755 630 755 c 0
EndSplineSet
EndChar

StartChar: uni21DB0338
Encoding: 182 -1 182
Width: 1080
Flags: W
HStem: 112 69<90 286 393 724> 241 68<90 333 439 852> 369 69<90 379 486 724>
CounterMasks: 1 e0
LayerCount: 2
Back
Fore
SplineSet
852 241 m 1
 414 241 l 1
 393 181 l 1
 792 181 l 1
 852 241 l 1
792 369 m 1
 461 369 l 1
 439 309 l 1
 852 309 l 1
 792 369 l 1
481 648 m 1
 553 622 l 1
 486 438 l 1
 724 438 l 1
 686 476 l 1
 746 536 l 1
 1008 275 l 1
 746 14 l 1
 686 74 l 1
 724 112 l 1
 367 112 l 1
 291 -98 l 1
 219 -72 l 1
 286 112 l 1
 90 112 l 1
 90 181 l 1
 311 181 l 1
 333 241 l 1
 90 241 l 1
 90 309 l 1
 358 309 l 1
 379 369 l 1
 90 369 l 1
 90 438 l 1
 405 438 l 1
 481 648 l 1
EndSplineSet
EndChar

StartChar: uni290A0338
Encoding: 183 -1 183
Width: 913
Flags: W
VStem: 294 68<-175 21 128 459> 422 69<-175 68 174 586> 550 69<-175 114 221 459>
LayerCount: 2
Back
Fore
SplineSet
491 586 m 1
 491 174 l 1
 550 196 l 1
 550 527 l 1
 491 586 l 1
362 527 m 1
 362 128 l 1
 422 149 l 1
 422 587 l 1
 362 527 l 1
110 -46 m 1
 83 26 l 1
 294 103 l 1
 294 459 l 1
 256 421 l 1
 195 481 l 1
 456 743 l 1
 718 481 l 1
 657 421 l 1
 619 459 l 1
 619 221 l 1
 803 288 l 1
 829 216 l 1
 619 139 l 1
 619 -175 l 1
 550 -175 l 1
 550 114 l 1
 491 93 l 1
 491 -175 l 1
 422 -175 l 1
 422 68 l 1
 362 46 l 1
 362 -175 l 1
 294 -175 l 1
 294 21 l 1
 110 -46 l 1
EndSplineSet
EndChar

StartChar: uni21DA0338
Encoding: 184 -1 184
Width: 1080
Flags: W
HStem: 112 69<356 594 701 990> 241 68<228 641 747 990> 369 69<356 687 794 990>
CounterMasks: 1 e0
LayerCount: 2
Back
Fore
SplineSet
228 309 m 1
 666 309 l 1
 687 369 l 1
 288 369 l 1
 228 309 l 1
288 181 m 1
 619 181 l 1
 641 241 l 1
 228 241 l 1
 288 181 l 1
599 -98 m 1
 527 -72 l 1
 594 112 l 1
 356 112 l 1
 394 74 l 1
 334 14 l 1
 72 275 l 1
 334 536 l 1
 394 476 l 1
 356 438 l 1
 713 438 l 1
 789 648 l 1
 861 622 l 1
 794 438 l 1
 990 438 l 1
 990 369 l 1
 769 369 l 1
 747 309 l 1
 990 309 l 1
 990 241 l 1
 722 241 l 1
 701 181 l 1
 990 181 l 1
 990 112 l 1
 675 112 l 1
 599 -98 l 1
EndSplineSet
EndChar

StartChar: uni290B0338
Encoding: 185 -1 185
Width: 913
Flags: W
VStem: 294 68<91 329 436 725> 422 69<-36 376 482 725> 550 69<91 422 529 725>
LayerCount: 2
Back
Fore
SplineSet
422 -37 m 1
 422 376 l 1
 362 354 l 1
 362 23 l 1
 422 -37 l 1
550 23 m 1
 550 422 l 1
 491 401 l 1
 491 -36 l 1
 550 23 l 1
803 596 m 1
 829 524 l 1
 619 447 l 1
 619 91 l 1
 657 129 l 1
 718 69 l 1
 456 -193 l 1
 195 69 l 1
 256 129 l 1
 294 91 l 1
 294 329 l 1
 110 262 l 1
 83 334 l 1
 294 411 l 1
 294 725 l 1
 362 725 l 1
 362 436 l 1
 422 457 l 1
 422 725 l 1
 491 725 l 1
 491 482 l 1
 550 504 l 1
 550 725 l 1
 619 725 l 1
 619 529 l 1
 803 596 l 1
EndSplineSet
EndChar

StartChar: uni27F60338
Encoding: 186 -1 186
Width: 1680
Flags: W
HStem: -6 21G<647.926 709.311> 232 86<90 706 820 1443> 536 20G<816.689 878.074>
LayerCount: 2
Back
Fore
SplineSet
824 556 m 1
 897 529 l 1
 820 318 l 1
 1443 318 l 1
 1363 399 l 1
 1423 459 l 1
 1608 275 l 1
 1423 91 l 1
 1363 151 l 1
 1443 232 l 1
 789 232 l 1
 702 -6 l 1
 629 21 l 1
 706 232 l 1
 90 232 l 1
 90 318 l 1
 737 318 l 1
 824 556 l 1
EndSplineSet
EndChar

StartChar: uni27F50338
Encoding: 187 -1 187
Width: 1680
Flags: W
HStem: -6 21G<801.926 863.311> 232 86<237 860 974 1590> 536 20G<970.689 1032.07>
LayerCount: 2
Back
Fore
SplineSet
856 -6 m 1
 783 21 l 1
 860 232 l 1
 237 232 l 1
 317 151 l 1
 257 91 l 1
 72 275 l 1
 257 459 l 1
 317 399 l 1
 237 318 l 1
 891 318 l 1
 978 556 l 1
 1051 529 l 1
 974 318 l 1
 1590 318 l 1
 1590 232 l 1
 943 232 l 1
 856 -6 l 1
EndSplineSet
EndChar

StartChar: uni27F90338
Encoding: 188 -1 188
Width: 1680
Flags: W
HStem: 136 86<90 594 708 1347> 328 86<90 664 778 1347>
LayerCount: 2
Back
Fore
SplineSet
1433 328 m 1
 746 328 l 1
 708 222 l 1
 1433 222 l 1
 1486 275 l 1
 1433 328 l 1
769 617 m 1
 842 591 l 1
 778 414 l 1
 1347 414 l 1
 1316 445 l 1
 1377 506 l 1
 1608 275 l 1
 1377 44 l 1
 1316 105 l 1
 1347 136 l 1
 677 136 l 1
 603 -67 l 1
 530 -41 l 1
 594 136 l 1
 90 136 l 1
 90 222 l 1
 626 222 l 1
 664 328 l 1
 90 328 l 1
 90 414 l 1
 695 414 l 1
 769 617 l 1
EndSplineSet
EndChar

StartChar: uni27F80338
Encoding: 189 -1 189
Width: 1680
Flags: W
HStem: 136 86<333 902 1016 1590> 328 86<333 972 1086 1590>
LayerCount: 2
Back
Fore
SplineSet
247 222 m 1
 934 222 l 1
 972 328 l 1
 247 328 l 1
 194 275 l 1
 247 222 l 1
911 -67 m 1
 838 -41 l 1
 902 136 l 1
 333 136 l 1
 364 105 l 1
 303 44 l 1
 72 275 l 1
 303 506 l 1
 364 445 l 1
 333 414 l 1
 1003 414 l 1
 1077 617 l 1
 1150 591 l 1
 1086 414 l 1
 1590 414 l 1
 1590 328 l 1
 1054 328 l 1
 1016 222 l 1
 1590 222 l 1
 1590 136 l 1
 985 136 l 1
 911 -67 l 1
EndSplineSet
EndChar

StartChar: uni27F70338
Encoding: 190 -1 190
Width: 1680
Flags: W
HStem: -6 21G<724.926 786.311> 232 86<237 783 897 1443> 536 20G<893.689 955.074>
LayerCount: 2
Back
Fore
SplineSet
901 556 m 1
 974 529 l 1
 897 318 l 1
 1443 318 l 1
 1363 399 l 1
 1423 459 l 1
 1608 275 l 1
 1423 91 l 1
 1363 151 l 1
 1443 232 l 1
 866 232 l 1
 779 -6 l 1
 706 21 l 1
 783 232 l 1
 237 232 l 1
 317 151 l 1
 257 91 l 1
 72 275 l 1
 257 459 l 1
 317 399 l 1
 237 318 l 1
 814 318 l 1
 901 556 l 1
EndSplineSet
EndChar

StartChar: uni27FA0338
Encoding: 191 -1 191
Width: 1680
Flags: W
HStem: 136 86<333 748 862 1347> 328 86<333 818 932 1347>
LayerCount: 2
Back
Fore
SplineSet
247 328 m 1
 194 275 l 1
 247 222 l 1
 780 222 l 1
 818 328 l 1
 247 328 l 1
1433 328 m 1
 900 328 l 1
 862 222 l 1
 1433 222 l 1
 1486 275 l 1
 1433 328 l 1
923 617 m 1
 996 591 l 1
 932 414 l 1
 1347 414 l 1
 1316 445 l 1
 1377 506 l 1
 1608 275 l 1
 1377 44 l 1
 1316 105 l 1
 1347 136 l 1
 831 136 l 1
 757 -67 l 1
 684 -41 l 1
 748 136 l 1
 333 136 l 1
 364 105 l 1
 303 44 l 1
 72 275 l 1
 303 506 l 1
 364 445 l 1
 333 414 l 1
 849 414 l 1
 923 617 l 1
EndSplineSet
EndChar

StartChar: uni27FC0338
Encoding: 192 -1 192
Width: 1680
Flags: W
HStem: -6 21G<647.926 709.311> 232 86<176 706 820 1443> 536 20G<816.689 878.074>
VStem: 90 86<78 232 318 472>
LayerCount: 2
Back
Fore
SplineSet
824 556 m 1
 897 529 l 1
 820 318 l 1
 1443 318 l 1
 1363 399 l 1
 1423 459 l 1
 1608 275 l 1
 1423 91 l 1
 1363 151 l 1
 1443 232 l 1
 789 232 l 1
 702 -6 l 1
 629 21 l 1
 706 232 l 1
 176 232 l 1
 176 78 l 1
 90 78 l 1
 90 472 l 1
 176 472 l 1
 176 318 l 1
 737 318 l 1
 824 556 l 1
EndSplineSet
EndChar

StartChar: uni27FB0338
Encoding: 193 -1 193
Width: 1680
Flags: W
HStem: -6 21G<801.926 863.311> 232 86<237 860 974 1504> 536 20G<970.689 1032.07>
VStem: 1504 86<78 232 318 472>
LayerCount: 2
Back
Fore
SplineSet
856 -6 m 1
 783 21 l 1
 860 232 l 1
 237 232 l 1
 317 151 l 1
 257 91 l 1
 72 275 l 1
 257 459 l 1
 317 399 l 1
 237 318 l 1
 891 318 l 1
 978 556 l 1
 1051 529 l 1
 974 318 l 1
 1504 318 l 1
 1504 472 l 1
 1590 472 l 1
 1590 78 l 1
 1504 78 l 1
 1504 232 l 1
 943 232 l 1
 856 -6 l 1
EndSplineSet
EndChar

StartChar: uni27FE0338
Encoding: 194 -1 194
Width: 1680
Flags: W
HStem: 136 86<176 594 708 1347> 328 86<176 664 778 1347>
VStem: 90 86<32 136 222 328 414 518>
LayerCount: 2
Back
Fore
SplineSet
1433 328 m 1
 746 328 l 1
 708 222 l 1
 1433 222 l 1
 1486 275 l 1
 1433 328 l 1
176 328 m 1
 176 222 l 1
 626 222 l 1
 664 328 l 1
 176 328 l 1
769 617 m 1
 842 591 l 1
 778 414 l 1
 1347 414 l 1
 1316 445 l 1
 1377 506 l 1
 1608 275 l 1
 1377 44 l 1
 1316 105 l 1
 1347 136 l 1
 677 136 l 1
 603 -67 l 1
 530 -41 l 1
 594 136 l 1
 176 136 l 1
 176 32 l 1
 90 32 l 1
 90 518 l 1
 176 518 l 1
 176 414 l 1
 695 414 l 1
 769 617 l 1
EndSplineSet
EndChar

StartChar: uni27FD0338
Encoding: 195 -1 195
Width: 1680
Flags: W
HStem: 136 86<333 902 1016 1504> 328 86<333 972 1086 1504>
VStem: 1504 86<32 136 222 328 414 518>
LayerCount: 2
Back
Fore
SplineSet
247 222 m 1
 934 222 l 1
 972 328 l 1
 247 328 l 1
 194 275 l 1
 247 222 l 1
1504 222 m 1
 1504 328 l 1
 1054 328 l 1
 1016 222 l 1
 1504 222 l 1
911 -67 m 1
 838 -41 l 1
 902 136 l 1
 333 136 l 1
 364 105 l 1
 303 44 l 1
 72 275 l 1
 303 506 l 1
 364 445 l 1
 333 414 l 1
 1003 414 l 1
 1077 617 l 1
 1150 591 l 1
 1086 414 l 1
 1504 414 l 1
 1504 518 l 1
 1590 518 l 1
 1590 32 l 1
 1504 32 l 1
 1504 136 l 1
 985 136 l 1
 911 -67 l 1
EndSplineSet
EndChar

StartChar: uni27FF0338
Encoding: 196 -1 196
Width: 1680
Flags: W
HStem: -6 21G<647.926 709.347> 155 86<423.522 499.005 818.228 894.541 1213.99 1281.85> 232 86<1352.34 1443> 309 86<218.754 302.817 621.995 697.364 1015.52 1091.01> 536 20G<816.745 878.074>
LayerCount: 2
Back
Fore
SplineSet
824 556 m 1xd8
 897 529 l 1
 806 280 l 1
 819 260 833 241 856 241 c 0
 887 241 902 274 920 300 c 0
 954 348 996 395 1054 395 c 0
 1112 395 1154 348 1188 300 c 0
 1206 274 1220 241 1251 241 c 0xd8
 1266 241 1276 256 1286 267 c 0
 1313 294 1345 318 1383 318 c 2
 1443 318 l 1
 1363 399 l 1
 1423 459 l 1
 1608 275 l 1
 1423 91 l 1
 1363 151 l 1
 1443 232 l 1
 1383 232 l 2xa8
 1367 232 1358 217 1347 206 c 0
 1320 179 1289 155 1251 155 c 0
 1193 155 1151 202 1117 250 c 0
 1099 276 1085 309 1054 309 c 0
 1023 309 1008 276 990 250 c 0
 957 202 914 155 856 155 c 0
 824 155 798 169 774 190 c 1
 702 -6 l 1
 629 21 l 1
 716 260 l 1
 701 284 686 309 659 309 c 0
 628 309 614 276 596 250 c 0
 562 202 520 155 462 155 c 0
 404 155 362 202 328 250 c 0
 310 276 295 309 265 309 c 0
 215 309 197 252 168 212 c 1
 98 261 l 1
 142 324 189 395 265 395 c 0
 322 395 365 348 398 300 c 0
 416 274 431 241 462 241 c 0
 493 241 507 274 525 300 c 0
 559 348 601 395 659 395 c 0
 695 395 725 377 750 352 c 1
 824 556 l 1xd8
EndSplineSet
EndChar

StartChar: uni2B330338
Encoding: 197 -1 197
Width: 1680
Flags: W
HStem: -6 21G<801.926 863.319> 155 86<398.146 467.403 785.626 831.288 1180.99 1256.48> 232 86<237 327.661> 309 86<588.995 664.478 1001.44 1058.01 1377.18 1461.25> 536 20G<970.727 1032.07>
LayerCount: 2
Back
Fore
SplineSet
856 -6 m 1xd8
 783 21 l 1
 832 155 l 1
 829 155 827 155 824 155 c 0
 766 155 723 202 690 250 c 0
 672 276 657 309 626 309 c 0
 595 309 581 276 563 250 c 0
 529 202 487 155 429 155 c 0xd8
 391 155 360 179 333 206 c 0
 322 217 313 232 297 232 c 2
 237 232 l 1
 317 151 l 1
 257 91 l 1
 72 275 l 1
 257 459 l 1
 317 399 l 1
 237 318 l 1
 297 318 l 2xa8
 335 318 367 294 394 267 c 0
 404 256 414 241 429 241 c 0
 460 241 475 274 492 300 c 0
 526 348 568 395 626 395 c 0
 684 395 726 348 760 300 c 0
 778 274 793 241 824 241 c 0
 851 241 866 268 882 292 c 1
 978 556 l 1
 1051 529 l 1
 1001 393 l 1
 1007 394 1014 395 1021 395 c 0
 1079 395 1121 348 1155 300 c 0
 1173 274 1187 241 1218 241 c 0
 1249 241 1264 274 1282 300 c 0
 1315 348 1358 395 1415 395 c 0
 1491 395 1538 324 1582 261 c 1
 1512 212 l 1
 1483 252 1465 309 1415 309 c 0
 1385 309 1370 276 1352 250 c 0
 1318 202 1276 155 1218 155 c 0
 1160 155 1118 202 1084 250 c 0
 1066 276 1052 309 1021 309 c 0
 990 309 975 276 957 250 c 0
 952 243 947 236 942 229 c 1
 856 -6 l 1xd8
EndSplineSet
EndChar

StartChar: uni27DD0338
Encoding: 198 -1 198
Width: 1680
Flags: W
HStem: -6 21G<724.926 786.311> 232 86<176 783 897 1590> 536 20G<893.689 955.074>
VStem: 90 86<78 232 318 472>
LayerCount: 2
Back
Fore
SplineSet
901 556 m 1
 974 529 l 1
 897 318 l 1
 1590 318 l 1
 1590 232 l 1
 866 232 l 1
 779 -6 l 1
 706 21 l 1
 783 232 l 1
 176 232 l 1
 176 78 l 1
 90 78 l 1
 90 472 l 1
 176 472 l 1
 176 318 l 1
 814 318 l 1
 901 556 l 1
EndSplineSet
EndChar

StartChar: uni27DE0338
Encoding: 199 -1 199
Width: 1680
Flags: W
HStem: -6 21G<724.926 786.311> 232 86<90 783 897 1504> 536 20G<893.689 955.074>
VStem: 1504 86<78 232 318 472>
LayerCount: 2
Back
Fore
SplineSet
779 -6 m 1
 706 21 l 1
 783 232 l 1
 90 232 l 1
 90 318 l 1
 814 318 l 1
 901 556 l 1
 974 529 l 1
 897 318 l 1
 1504 318 l 1
 1504 472 l 1
 1590 472 l 1
 1590 78 l 1
 1504 78 l 1
 1504 232 l 1
 866 232 l 1
 779 -6 l 1
EndSplineSet
EndChar

StartChar: uni22AC
Encoding: 224 8876 200
Width: 840
Flags: W
HStem: 0 17G<90 176 332 412.397> 311 86<176 411 515 750> 691 16G<90 176 513.65 594>
VStem: 90 86<0 311 397 707>
LayerCount: 2
Back
Fore
SplineSet
519 711 m 1
 594 691 l 1
 515 397 l 1
 750 397 l 1
 750 311 l 1
 492 311 l 1
 407 -4 l 1
 332 16 l 1
 411 311 l 1
 176 311 l 1
 176 0 l 1
 90 0 l 1
 90 707 l 1
 176 707 l 1
 176 397 l 1
 435 397 l 1
 519 711 l 1
EndSplineSet
EndChar

StartChar: uni22A50338
Encoding: 225 -1 201
Width: 840
Flags: W
HStem: 0 86<90 377 463 750> 531 20G<674.948 737.397> 687 20G<377 463>
VStem: 377 86<86 339 454 707>
LayerCount: 2
Back
Fore
SplineSet
110 242 m 1
 83 315 l 1
 377 422 l 1
 377 707 l 1
 463 707 l 1
 463 454 l 1
 730 551 l 1
 757 478 l 1
 463 371 l 1
 463 86 l 1
 750 86 l 1
 750 0 l 1
 90 0 l 1
 90 86 l 1
 377 86 l 1
 377 339 l 1
 110 242 l 1
EndSplineSet
EndChar

StartChar: uni22A30338
Encoding: 226 -1 202
Width: 840
Flags: W
HStem: 0 17G<246 326.397 664 750> 311 86<90 325 429 664> 691 16G<427.65 508 664 750>
VStem: 664 86<0 311 397 707>
LayerCount: 2
Back
Fore
SplineSet
321 -4 m 1
 246 16 l 1
 325 311 l 1
 90 311 l 1
 90 397 l 1
 349 397 l 1
 433 711 l 1
 508 691 l 1
 429 397 l 1
 664 397 l 1
 664 707 l 1
 750 707 l 1
 750 0 l 1
 664 0 l 1
 664 311 l 1
 406 311 l 1
 321 -4 l 1
EndSplineSet
EndChar

StartChar: uni22A40338
Encoding: 227 -1 203
Width: 840
Flags: W
HStem: 0 21G<377 463> 621 86<90 377 463 750>
VStem: 377 86<0 253 368 621>
LayerCount: 2
Back
Fore
SplineSet
730 465 m 1
 757 392 l 1
 463 285 l 1
 463 0 l 1
 377 0 l 1
 377 253 l 1
 110 156 l 1
 83 229 l 1
 377 336 l 1
 377 621 l 1
 90 621 l 1
 90 707 l 1
 750 707 l 1
 750 621 l 1
 463 621 l 1
 463 368 l 1
 730 465 l 1
EndSplineSet
EndChar

StartChar: uni22A60338
Encoding: 228 -1 204
Width: 642
Flags: W
HStem: 0 17G<90 176 233 313.397> 311 86<176 312 416 552> 691 16G<90 176 414.65 495>
VStem: 90 86<0 311 397 707>
LayerCount: 2
Back
Fore
SplineSet
420 711 m 1
 495 691 l 1
 416 397 l 1
 552 397 l 1
 552 311 l 1
 393 311 l 1
 308 -4 l 1
 233 16 l 1
 312 311 l 1
 176 311 l 1
 176 0 l 1
 90 0 l 1
 90 707 l 1
 176 707 l 1
 176 397 l 1
 336 397 l 1
 420 711 l 1
EndSplineSet
EndChar

StartChar: uni2AE00338
Encoding: 229 -1 205
Width: 840
Flags: W
HStem: 0 86<90 377 463 750>
VStem: 377 86<86 233 348 495>
LayerCount: 2
Back
Fore
SplineSet
110 136 m 1
 83 209 l 1
 377 316 l 1
 377 495 l 1
 463 495 l 1
 463 348 l 1
 730 445 l 1
 757 372 l 1
 463 265 l 1
 463 86 l 1
 750 86 l 1
 750 0 l 1
 90 0 l 1
 90 86 l 1
 377 86 l 1
 377 233 l 1
 110 136 l 1
EndSplineSet
EndChar

StartChar: uni2ADE0338
Encoding: 230 -1 206
Width: 642
Flags: W
HStem: 0 17G<147 227.397 466 552> 311 86<90 226 330 466> 691 16G<328.65 409 466 552>
VStem: 466 86<0 311 397 707>
LayerCount: 2
Back
Fore
SplineSet
222 -4 m 1
 147 16 l 1
 226 311 l 1
 90 311 l 1
 90 397 l 1
 250 397 l 1
 334 711 l 1
 409 691 l 1
 330 397 l 1
 466 397 l 1
 466 707 l 1
 552 707 l 1
 552 0 l 1
 466 0 l 1
 466 311 l 1
 307 311 l 1
 222 -4 l 1
EndSplineSet
EndChar

StartChar: uni2ADF0338
Encoding: 231 -1 207
Width: 840
Flags: W
HStem: 0 21G<377 463> 409 86<90 377 463 750>
VStem: 377 86<0 147 262 409>
LayerCount: 2
Back
Fore
SplineSet
730 359 m 1
 757 286 l 1
 463 179 l 1
 463 0 l 1
 377 0 l 1
 377 147 l 1
 110 50 l 1
 83 123 l 1
 377 230 l 1
 377 409 l 1
 90 409 l 1
 90 495 l 1
 750 495 l 1
 750 409 l 1
 463 409 l 1
 463 262 l 1
 730 359 l 1
EndSplineSet
EndChar

StartChar: uni22AD
Encoding: 232 8877 208
Width: 840
Flags: W
HStem: 0 17G<90 176 332 412.413> 214 86<176 385 489 750> 407 86<176 437 541 750> 691 16G<90 176 513.587 594>
VStem: 90 86<0 214 300 407 493 707>
LayerCount: 2
Back
Fore
SplineSet
176 407 m 1
 176 300 l 1
 408 300 l 1
 437 407 l 1
 176 407 l 1
519 711 m 1
 594 691 l 1
 541 493 l 1
 750 493 l 1
 750 407 l 1
 518 407 l 1
 489 300 l 1
 750 300 l 1
 750 214 l 1
 466 214 l 1
 407 -4 l 1
 332 16 l 1
 385 214 l 1
 176 214 l 1
 176 0 l 1
 90 0 l 1
 90 707 l 1
 176 707 l 1
 176 493 l 1
 460 493 l 1
 519 711 l 1
EndSplineSet
EndChar

StartChar: uni2AEB0338
Encoding: 233 -1 209
Width: 840
Flags: W
HStem: 0 86<90 281 367 473 559 750> 531 20G<674.839 737.397> 687 20G<281 367 473 559>
VStem: 281 86<86 304 419 707> 473 86<86 374 489 707>
LayerCount: 2
Back
Fore
SplineSet
367 86 m 1
 473 86 l 1
 473 374 l 1
 367 336 l 1
 367 86 l 1
110 242 m 1
 83 315 l 1
 281 387 l 1
 281 707 l 1
 367 707 l 1
 367 419 l 1
 473 457 l 1
 473 707 l 1
 559 707 l 1
 559 489 l 1
 730 551 l 1
 757 478 l 1
 559 406 l 1
 559 86 l 1
 750 86 l 1
 750 0 l 1
 90 0 l 1
 90 86 l 1
 281 86 l 1
 281 304 l 1
 110 242 l 1
EndSplineSet
EndChar

StartChar: uni2AE40338
Encoding: 234 -1 210
Width: 840
Flags: W
HStem: 0 17G<246 326.413 664 750> 214 86<90 299 403 664> 407 86<90 351 455 664> 691 16G<427.587 508 664 750>
VStem: 664 86<0 214 300 407 493 707>
LayerCount: 2
Back
Fore
SplineSet
664 300 m 1
 664 407 l 1
 432 407 l 1
 403 300 l 1
 664 300 l 1
321 -4 m 1
 246 16 l 1
 299 214 l 1
 90 214 l 1
 90 300 l 1
 322 300 l 1
 351 407 l 1
 90 407 l 1
 90 493 l 1
 374 493 l 1
 433 711 l 1
 508 691 l 1
 455 493 l 1
 664 493 l 1
 664 707 l 1
 750 707 l 1
 750 0 l 1
 664 0 l 1
 664 214 l 1
 380 214 l 1
 321 -4 l 1
EndSplineSet
EndChar

StartChar: uni2AEA0338
Encoding: 235 -1 211
Width: 840
Flags: W
HStem: 0 21G<281 367 473 559> 621 86<90 281 367 473 559 750>
VStem: 281 86<0 218 333 621> 473 86<0 288 403 621>
LayerCount: 2
Back
Fore
SplineSet
473 621 m 1
 367 621 l 1
 367 333 l 1
 473 371 l 1
 473 621 l 1
730 465 m 1
 757 392 l 1
 559 320 l 1
 559 0 l 1
 473 0 l 1
 473 288 l 1
 367 250 l 1
 367 0 l 1
 281 0 l 1
 281 218 l 1
 110 156 l 1
 83 229 l 1
 281 301 l 1
 281 621 l 1
 90 621 l 1
 90 707 l 1
 750 707 l 1
 750 621 l 1
 559 621 l 1
 559 403 l 1
 730 465 l 1
EndSplineSet
EndChar

StartChar: uni22A70338
Encoding: 236 -1 212
Width: 642
Flags: W
HStem: 0 17G<90 176 233 313.413> 214 86<176 286 390 552> 407 86<176 338 442 552> 691 16G<90 176 414.587 495>
VStem: 90 86<0 214 300 407 493 707>
LayerCount: 2
Back
Fore
SplineSet
176 407 m 1
 176 300 l 1
 309 300 l 1
 338 407 l 1
 176 407 l 1
420 711 m 1
 495 691 l 1
 442 493 l 1
 552 493 l 1
 552 407 l 1
 419 407 l 1
 390 300 l 1
 552 300 l 1
 552 214 l 1
 367 214 l 1
 308 -4 l 1
 233 16 l 1
 286 214 l 1
 176 214 l 1
 176 0 l 1
 90 0 l 1
 90 707 l 1
 176 707 l 1
 176 493 l 1
 361 493 l 1
 420 711 l 1
EndSplineSet
EndChar

StartChar: sym07E_uni0338
Encoding: 237 -1 213
Width: 840
Flags: W
HStem: 0 86<90 281 367 473 559 750>
VStem: 281 86<86 198 313 495> 473 86<86 268 383 495>
LayerCount: 2
Back
Fore
SplineSet
367 86 m 1
 473 86 l 1
 473 268 l 1
 367 230 l 1
 367 86 l 1
110 136 m 1
 83 209 l 1
 281 281 l 1
 281 495 l 1
 367 495 l 1
 367 313 l 1
 473 351 l 1
 473 495 l 1
 559 495 l 1
 559 383 l 1
 730 445 l 1
 757 372 l 1
 559 300 l 1
 559 86 l 1
 750 86 l 1
 750 0 l 1
 90 0 l 1
 90 86 l 1
 281 86 l 1
 281 198 l 1
 110 136 l 1
EndSplineSet
EndChar

StartChar: sym07D_uni0338
Encoding: 238 -1 214
Width: 642
Flags: W
HStem: 0 17G<147 227.413 466 552> 214 86<90 200 304 466> 407 86<90 252 356 466> 691 16G<328.587 409 466 552>
VStem: 466 86<0 214 300 407 493 707>
LayerCount: 2
Back
Fore
SplineSet
466 300 m 1
 466 407 l 1
 333 407 l 1
 304 300 l 1
 466 300 l 1
222 -4 m 1
 147 16 l 1
 200 214 l 1
 90 214 l 1
 90 300 l 1
 223 300 l 1
 252 407 l 1
 90 407 l 1
 90 493 l 1
 275 493 l 1
 334 711 l 1
 409 691 l 1
 356 493 l 1
 466 493 l 1
 466 707 l 1
 552 707 l 1
 552 0 l 1
 466 0 l 1
 466 214 l 1
 281 214 l 1
 222 -4 l 1
EndSplineSet
EndChar

StartChar: sym07F_uni0338
Encoding: 239 -1 215
Width: 840
Flags: W
HStem: 0 21G<281 367 473 559> 409 86<90 281 367 473 559 750>
VStem: 281 86<0 112 227 409> 473 86<0 182 297 409>
LayerCount: 2
Back
Fore
SplineSet
473 409 m 1
 367 409 l 1
 367 227 l 1
 473 265 l 1
 473 409 l 1
730 359 m 1
 757 286 l 1
 559 214 l 1
 559 0 l 1
 473 0 l 1
 473 182 l 1
 367 144 l 1
 367 0 l 1
 281 0 l 1
 281 112 l 1
 110 50 l 1
 83 123 l 1
 281 195 l 1
 281 409 l 1
 90 409 l 1
 90 495 l 1
 750 495 l 1
 750 409 l 1
 559 409 l 1
 559 297 l 1
 730 359 l 1
EndSplineSet
EndChar

StartChar: uni22AE
Encoding: 240 8878 216
Width: 1038
Flags: W
HStem: 0 21G<90 176 288 374 530 610.397> 311 86<374 609 713 948> 687 20G<90 176 288 374 711.65 792>
VStem: 90 86<0 707> 288 86<0 311 397 707>
LayerCount: 2
Back
Fore
SplineSet
176 0 m 1
 90 0 l 1
 90 707 l 1
 176 707 l 1
 176 0 l 1
717 711 m 1
 792 691 l 1
 713 397 l 1
 948 397 l 1
 948 311 l 1
 690 311 l 1
 605 -4 l 1
 530 16 l 1
 609 311 l 1
 374 311 l 1
 374 0 l 1
 288 0 l 1
 288 707 l 1
 374 707 l 1
 374 397 l 1
 633 397 l 1
 717 711 l 1
EndSplineSet
EndChar

StartChar: uni234A0338
Encoding: 241 -1 217
Width: 840
Flags: W
HStem: -106 86<90 750> 92 86<90 377 463 750>
VStem: 377 86<178 438 553 813>
LayerCount: 2
Back
Fore
SplineSet
750 -20 m 1
 750 -106 l 1
 90 -106 l 1
 90 -20 l 1
 750 -20 l 1
110 341 m 1
 83 414 l 1
 377 521 l 1
 377 813 l 1
 463 813 l 1
 463 553 l 1
 730 650 l 1
 757 577 l 1
 463 470 l 1
 463 178 l 1
 750 178 l 1
 750 92 l 1
 90 92 l 1
 90 178 l 1
 377 178 l 1
 377 438 l 1
 110 341 l 1
EndSplineSet
EndChar

StartChar: uni2AE30338
Encoding: 242 -1 218
Width: 1038
Flags: W
HStem: 0 21G<246 326.397 664 750 862 948> 311 86<90 325 429 664> 687 20G<427.65 508 664 750 862 948>
VStem: 664 86<0 311 397 707> 862 86<0 707>
LayerCount: 2
Back
Fore
SplineSet
862 707 m 1
 948 707 l 1
 948 0 l 1
 862 0 l 1
 862 707 l 1
321 -4 m 1
 246 16 l 1
 325 311 l 1
 90 311 l 1
 90 397 l 1
 349 397 l 1
 433 711 l 1
 508 691 l 1
 429 397 l 1
 664 397 l 1
 664 707 l 1
 750 707 l 1
 750 0 l 1
 664 0 l 1
 664 311 l 1
 406 311 l 1
 321 -4 l 1
EndSplineSet
EndChar

StartChar: uni23510338
Encoding: 243 -1 219
Width: 840
Flags: W
HStem: 529 86<90 377 463 750> 727 86<90 750>
VStem: 377 86<-106 154 269 529>
LayerCount: 2
Back
Fore
SplineSet
90 727 m 1
 90 813 l 1
 750 813 l 1
 750 727 l 1
 90 727 l 1
730 366 m 1
 757 293 l 1
 463 186 l 1
 463 -106 l 1
 377 -106 l 1
 377 154 l 1
 110 57 l 1
 83 130 l 1
 377 237 l 1
 377 529 l 1
 90 529 l 1
 90 615 l 1
 750 615 l 1
 750 529 l 1
 463 529 l 1
 463 269 l 1
 730 366 l 1
EndSplineSet
EndChar

StartChar: uni22AE.alt
Encoding: 244 -1 220
Width: 840
Flags: W
HStem: 0 21G<90 176 288 374 431 511.397> 311 86<374 510 614 750> 687 20G<90 176 288 374 612.65 693>
VStem: 90 86<0 707> 288 86<0 311 397 707>
LayerCount: 2
Back
Fore
SplineSet
176 0 m 1
 90 0 l 1
 90 707 l 1
 176 707 l 1
 176 0 l 1
618 711 m 1
 693 691 l 1
 614 397 l 1
 750 397 l 1
 750 311 l 1
 591 311 l 1
 506 -4 l 1
 431 16 l 1
 510 311 l 1
 374 311 l 1
 374 0 l 1
 288 0 l 1
 288 707 l 1
 374 707 l 1
 374 397 l 1
 534 397 l 1
 618 711 l 1
EndSplineSet
EndChar

StartChar: uni2AE80338
Encoding: 245 -1 221
Width: 840
Flags: W
HStem: 0 86<90 750> 198 86<90 377 463 750> 687 20G<377 463>
VStem: 377 86<284 438 553 707>
LayerCount: 2
Back
Fore
SplineSet
750 86 m 1
 750 0 l 1
 90 0 l 1
 90 86 l 1
 750 86 l 1
110 341 m 1
 83 414 l 1
 377 521 l 1
 377 707 l 1
 463 707 l 1
 463 553 l 1
 730 650 l 1
 757 577 l 1
 463 470 l 1
 463 284 l 1
 750 284 l 1
 750 198 l 1
 90 198 l 1
 90 284 l 1
 377 284 l 1
 377 438 l 1
 110 341 l 1
EndSplineSet
EndChar

StartChar: uni2AE30338.alt
Encoding: 246 -1 222
Width: 840
Flags: W
HStem: 0 21G<147 227.397 466 552 664 750> 311 86<90 226 330 466> 687 20G<328.65 409 466 552 664 750>
VStem: 466 86<0 311 397 707> 664 86<0 707>
LayerCount: 2
Back
Fore
SplineSet
664 707 m 1
 750 707 l 1
 750 0 l 1
 664 0 l 1
 664 707 l 1
222 -4 m 1
 147 16 l 1
 226 311 l 1
 90 311 l 1
 90 397 l 1
 250 397 l 1
 334 711 l 1
 409 691 l 1
 330 397 l 1
 466 397 l 1
 466 707 l 1
 552 707 l 1
 552 0 l 1
 466 0 l 1
 466 311 l 1
 307 311 l 1
 222 -4 l 1
EndSplineSet
EndChar

StartChar: uni2AE70338
Encoding: 247 -1 223
Width: 840
Flags: W
HStem: 0 21G<377 463> 423 86<90 377 463 750> 621 86<90 750>
VStem: 377 86<0 154 269 423>
LayerCount: 2
Back
Fore
SplineSet
90 621 m 1
 90 707 l 1
 750 707 l 1
 750 621 l 1
 90 621 l 1
730 366 m 1
 757 293 l 1
 463 186 l 1
 463 0 l 1
 377 0 l 1
 377 154 l 1
 110 57 l 1
 83 130 l 1
 377 237 l 1
 377 423 l 1
 90 423 l 1
 90 509 l 1
 750 509 l 1
 750 423 l 1
 463 423 l 1
 463 269 l 1
 730 366 l 1
EndSplineSet
EndChar

StartChar: uni22AF
Encoding: 248 8879 224
Width: 1038
Flags: W
HStem: 0 21G<90 176 288 374 530 610.413> 214 86<374 583 687 948> 407 86<374 635 739 948> 687 20G<90 176 288 374 711.587 792>
VStem: 90 86<0 707> 288 86<0 214 300 407 493 707>
LayerCount: 2
Back
Fore
SplineSet
374 407 m 1
 374 300 l 1
 606 300 l 1
 635 407 l 1
 374 407 l 1
176 0 m 1
 90 0 l 1
 90 707 l 1
 176 707 l 1
 176 0 l 1
717 711 m 1
 792 691 l 1
 739 493 l 1
 948 493 l 1
 948 407 l 1
 716 407 l 1
 687 300 l 1
 948 300 l 1
 948 214 l 1
 664 214 l 1
 605 -4 l 1
 530 16 l 1
 583 214 l 1
 374 214 l 1
 374 0 l 1
 288 0 l 1
 288 707 l 1
 374 707 l 1
 374 493 l 1
 658 493 l 1
 717 711 l 1
EndSplineSet
EndChar

StartChar: sym080_uni0338
Encoding: 249 -1 225
Width: 840
Flags: W
HStem: -106 86<90 750> 92 86<90 281 367 473 559 750>
VStem: 281 86<178 403 518 813> 473 86<178 473 588 813>
LayerCount: 2
Back
Fore
SplineSet
367 178 m 1
 473 178 l 1
 473 473 l 1
 367 435 l 1
 367 178 l 1
750 -20 m 1
 750 -106 l 1
 90 -106 l 1
 90 -20 l 1
 750 -20 l 1
110 341 m 1
 83 414 l 1
 281 486 l 1
 281 813 l 1
 367 813 l 1
 367 518 l 1
 473 556 l 1
 473 813 l 1
 559 813 l 1
 559 588 l 1
 730 650 l 1
 757 577 l 1
 559 505 l 1
 559 178 l 1
 750 178 l 1
 750 92 l 1
 90 92 l 1
 90 178 l 1
 281 178 l 1
 281 403 l 1
 110 341 l 1
EndSplineSet
EndChar

StartChar: uni2AE50338
Encoding: 250 -1 226
Width: 1038
Flags: W
HStem: 0 21G<246 326.413 664 750 862 948> 214 86<90 299 403 664> 407 86<90 351 455 664> 687 20G<427.587 508 664 750 862 948>
VStem: 664 86<0 214 300 407 493 707> 862 86<0 707>
LayerCount: 2
Back
Fore
SplineSet
664 300 m 1
 664 407 l 1
 432 407 l 1
 403 300 l 1
 664 300 l 1
862 707 m 1
 948 707 l 1
 948 0 l 1
 862 0 l 1
 862 707 l 1
321 -4 m 1
 246 16 l 1
 299 214 l 1
 90 214 l 1
 90 300 l 1
 322 300 l 1
 351 407 l 1
 90 407 l 1
 90 493 l 1
 374 493 l 1
 433 711 l 1
 508 691 l 1
 455 493 l 1
 664 493 l 1
 664 707 l 1
 750 707 l 1
 750 0 l 1
 664 0 l 1
 664 214 l 1
 380 214 l 1
 321 -4 l 1
EndSplineSet
EndChar

StartChar: sym081_uni0338
Encoding: 251 -1 227
Width: 840
Flags: W
HStem: 529 86<90 281 367 473 559 750> 727 86<90 750>
VStem: 281 86<-106 119 234 529> 473 86<-106 189 304 529>
LayerCount: 2
Back
Fore
SplineSet
473 529 m 1
 367 529 l 1
 367 234 l 1
 473 272 l 1
 473 529 l 1
90 727 m 1
 90 813 l 1
 750 813 l 1
 750 727 l 1
 90 727 l 1
730 366 m 1
 757 293 l 1
 559 221 l 1
 559 -106 l 1
 473 -106 l 1
 473 189 l 1
 367 151 l 1
 367 -106 l 1
 281 -106 l 1
 281 119 l 1
 110 57 l 1
 83 130 l 1
 281 202 l 1
 281 529 l 1
 90 529 l 1
 90 615 l 1
 750 615 l 1
 750 529 l 1
 559 529 l 1
 559 304 l 1
 730 366 l 1
EndSplineSet
EndChar

StartChar: uni22AA0338
Encoding: 252 -1 228
Width: 1038
Flags: W
HStem: 0 21G<90 176 288 374 486 572 629 709.397> 311 86<572 708 812 948> 687 20G<90 176 288 374 486 572 810.65 891>
VStem: 90 86<0 707> 288 86<0 707> 486 86<0 311 397 707>
CounterMasks: 1 1c
LayerCount: 2
Back
Fore
SplineSet
176 0 m 1
 90 0 l 1
 90 707 l 1
 176 707 l 1
 176 0 l 1
374 0 m 1
 288 0 l 1
 288 707 l 1
 374 707 l 1
 374 0 l 1
816 711 m 1
 891 691 l 1
 812 397 l 1
 948 397 l 1
 948 311 l 1
 789 311 l 1
 704 -4 l 1
 629 16 l 1
 708 311 l 1
 572 311 l 1
 572 0 l 1
 486 0 l 1
 486 707 l 1
 572 707 l 1
 572 397 l 1
 732 397 l 1
 816 711 l 1
EndSplineSet
EndChar

StartChar: sym082_uni0338
Encoding: 253 -1 229
Width: 1038
Flags: W
HStem: 0 21G<147 227.397 466 552 664 750 862 948> 311 86<90 226 330 466> 687 20G<328.65 409 466 552 664 750 862 948>
VStem: 466 86<0 311 397 707> 664 86<0 707> 862 86<0 707>
CounterMasks: 1 1c
LayerCount: 2
Back
Fore
SplineSet
862 707 m 1
 948 707 l 1
 948 0 l 1
 862 0 l 1
 862 707 l 1
664 707 m 1
 750 707 l 1
 750 0 l 1
 664 0 l 1
 664 707 l 1
222 -4 m 1
 147 16 l 1
 226 311 l 1
 90 311 l 1
 90 397 l 1
 250 397 l 1
 334 711 l 1
 409 691 l 1
 330 397 l 1
 466 397 l 1
 466 707 l 1
 552 707 l 1
 552 0 l 1
 466 0 l 1
 466 311 l 1
 307 311 l 1
 222 -4 l 1
EndSplineSet
EndChar

StartChar: uni2AE20338
Encoding: 254 -1 230
Width: 840
Flags: W
HStem: 0 17G<90 176 332 412.41> 118 86<176 359 463 750> 311 86<176 411 515 750> 503 86<176 463 567 750> 691 16G<90 176 513.59 594>
VStem: 90 86<0 118 204 311 397 503 589 707>
LayerCount: 2
Back
Fore
SplineSet
176 397 m 1
 435 397 l 1
 463 503 l 1
 176 503 l 1
 176 397 l 1
176 204 m 1
 383 204 l 1
 411 311 l 1
 176 311 l 1
 176 204 l 1
519 711 m 1
 594 691 l 1
 567 589 l 1
 750 589 l 1
 750 503 l 1
 543 503 l 1
 515 397 l 1
 750 397 l 1
 750 311 l 1
 492 311 l 1
 463 204 l 1
 750 204 l 1
 750 118 l 1
 440 118 l 1
 407 -4 l 1
 332 16 l 1
 359 118 l 1
 176 118 l 1
 176 0 l 1
 90 0 l 1
 90 707 l 1
 176 707 l 1
 176 589 l 1
 486 589 l 1
 519 711 l 1
EndSplineSet
EndChar

StartChar: sym083_uni0338
Encoding: 255 -1 231
Width: 840
Flags: W
HStem: 0 17G<246 326.41 664 750> 118 86<90 273 377 664> 311 86<90 325 429 664> 503 86<90 377 481 664> 691 16G<427.59 508 664 750>
VStem: 664 86<0 118 204 311 397 503 589 707>
LayerCount: 2
Back
Fore
SplineSet
664 311 m 1
 406 311 l 1
 377 204 l 1
 664 204 l 1
 664 311 l 1
664 503 m 1
 457 503 l 1
 429 397 l 1
 664 397 l 1
 664 503 l 1
321 -4 m 1
 246 16 l 1
 273 118 l 1
 90 118 l 1
 90 204 l 1
 297 204 l 1
 325 311 l 1
 90 311 l 1
 90 397 l 1
 349 397 l 1
 377 503 l 1
 90 503 l 1
 90 589 l 1
 400 589 l 1
 433 711 l 1
 508 691 l 1
 481 589 l 1
 664 589 l 1
 664 707 l 1
 750 707 l 1
 750 0 l 1
 664 0 l 1
 664 118 l 1
 354 118 l 1
 321 -4 l 1
EndSplineSet
EndChar
